<ttFont>
<head>
    <!-- Most of this table will be recalculated by the compiler -->
    <tableVersion value="1.0"/>
    <fontRevision value="1.302"/>
    <checkSumAdjustment value="0x94749671"/>
    <magicNumber value="0x5f0f3cf5"/>
    <flags value="00000000 00001011"/>
    <unitsPerEm value="1000"/>
    <created value="Tue Oct  2 22:58:00 2007"/>
    <modified value="Thu Mar  6 18:39:31 2014"/>
    <xMin value="-112"/>
    <yMin value="-296"/>
    <xMax value="971"/>
    <yMax value="1106"/>
    <macStyle value="00000000 00000010"/>
    <lowestRecPPEM value="9"/>
    <fontDirectionHint value="2"/>
    <indexToLocFormat value="0"/>
    <glyphDataFormat value="0"/>
  </head>
    <TTGlyph name="A" xMin="-38" yMin="0" xMax="487" yMax="740">
      <contour>
        <pt x="373" y="0" on="1"/>
        <pt x="355" y="160" on="1"/>
        <pt x="155" y="160" on="1"/>
        <pt x="76" y="0" on="1"/>
        <pt x="-38" y="0" on="1"/>
        <pt x="337" y="740" on="1"/>
        <pt x="387" y="740" on="1"/>
        <pt x="487" y="0" on="1"/>
      </contour>
      <contour>
        <pt x="320" y="510" on="1"/>
        <pt x="200" y="255" on="1"/>
        <pt x="345" y="255" on="1"/>
      </contour>
    </TTGlyph>
    <TTGlyph name="AE" xMin="-43" yMin="0" xMax="816" yMax="733">
      <contour>
        <pt x="797" y="629" on="1"/>
        <pt x="562" y="629" on="1"/>
        <pt x="525" y="426" on="1"/>
        <pt x="736" y="426" on="1"/>
        <pt x="717" y="324" on="1"/>
        <pt x="506" y="324" on="1"/>
        <pt x="466" y="104" on="1"/>
        <pt x="700" y="104" on="1"/>
        <pt x="681" y="0" on="1"/>
        <pt x="335" y="0" on="1"/>
        <pt x="366" y="165" on="1"/>
        <pt x="187" y="165" on="1"/>
        <pt x="77" y="0" on="1"/>
        <pt x="-43" y="0" on="1"/>
        <pt x="445" y="733" on="1"/>
        <pt x="816" y="733" on="1"/>
      </contour>
      <contour>
        <pt x="440" y="567" on="1"/>
        <pt x="250" y="262" on="1"/>
        <pt x="384" y="262" on="1"/>
      </contour>
    </TTGlyph>
    <TTGlyph name="AEacute" xMin="-43" yMin="0" xMax="816" yMax="956">
      <component glyphName="acute" x="369" y="293" flags="0x4"/>
      <component glyphName="AE" x="0" y="0" flags="0x4"/>
    </TTGlyph>
    <TTGlyph name="Aacute" xMin="-38" yMin="0" xMax="531" yMax="959">
      <component glyphName="A" x="0" y="0" flags="0x204"/>
      <component glyphName="acute" x="161" y="296" flags="0x4"/>
    </TTGlyph>
    <TTGlyph name="Abreve" xMin="-38" yMin="0" xMax="527" yMax="930">
      <component glyphName="A" x="0" y="0" flags="0x204"/>
      <component glyphName="breve" x="107" y="296" flags="0x4"/>
    </TTGlyph>
    <TTGlyph name="Acircumflex" xMin="-38" yMin="0" xMax="513" yMax="950">
      <component glyphName="A" x="0" y="0" flags="0x204"/>
      <component glyphName="circumflex" x="102" y="296" flags="0x4"/>
    </TTGlyph>
    <TTGlyph name="Adieresis" xMin="-38" yMin="0" xMax="516" yMax="907">
      <component glyphName="A" x="0" y="0" flags="0x204"/>
      <component glyphName="dieresis" x="107" y="296" flags="0x4"/>
    </TTGlyph>
    <TTGlyph name="Agrave" xMin="-38" yMin="0" xMax="487" yMax="963">
      <component glyphName="A" x="0" y="0" flags="0x204"/>
      <component glyphName="grave" x="52" y="296" flags="0x4"/>
    </TTGlyph>
    <TTGlyph name="Amacron" xMin="-38" yMin="0" xMax="512" yMax="878">
      <component glyphName="A" x="0" y="0" flags="0x204"/>
      <component glyphName="macron" x="108" y="296" flags="0x4"/>
    </TTGlyph>
    <TTGlyph name="Aogonek" xMin="-38" yMin="-205" xMax="487" yMax="740">
      <contour>
        <pt x="466" y="-168" on="1"/>
        <pt x="446" y="-185" on="0"/>
        <pt x="402" y="-205" on="0"/>
        <pt x="373" y="-205" on="1"/>
        <pt x="340" y="-205" on="0"/>
        <pt x="304" y="-169" on="0"/>
        <pt x="304" y="-140" on="1"/>
        <pt x="304" y="-101" on="0"/>
        <pt x="350" y="-32" on="0"/>
        <pt x="385" y="0" on="1"/>
        <pt x="373" y="0" on="1"/>
        <pt x="355" y="160" on="1"/>
        <pt x="155" y="160" on="1"/>
        <pt x="76" y="0" on="1"/>
        <pt x="-38" y="0" on="1"/>
        <pt x="337" y="740" on="1"/>
        <pt x="387" y="740" on="1"/>
        <pt x="487" y="0" on="1"/>
        <pt x="453" y="0" on="1"/>
        <pt x="441" y="-12" on="0"/>
        <pt x="415" y="-39" on="0"/>
        <pt x="394" y="-68" on="0"/>
        <pt x="380" y="-98" on="0"/>
        <pt x="380" y="-113" on="1"/>
        <pt x="380" y="-141" on="0"/>
        <pt x="407" y="-141" on="1"/>
        <pt x="417" y="-141" on="0"/>
        <pt x="438" y="-132" on="0"/>
        <pt x="449" y="-124" on="1"/>
      </contour>
      <contour>
        <pt x="320" y="510" on="1"/>
        <pt x="200" y="255" on="1"/>
        <pt x="345" y="255" on="1"/>
      </contour>
    </TTGlyph>
    <TTGlyph name="Aring" xMin="-38" yMin="0" xMax="487" yMax="899">
      <contour>
        <pt x="476" y="811" on="1"/>
        <pt x="476" y="774" on="0"/>
        <pt x="431" y="711" on="0"/>
        <pt x="391" y="701" on="1"/>
        <pt x="487" y="0" on="1"/>
        <pt x="373" y="0" on="1"/>
        <pt x="355" y="160" on="1"/>
        <pt x="155" y="160" on="1"/>
        <pt x="76" y="0" on="1"/>
        <pt x="-38" y="0" on="1"/>
        <pt x="319" y="704" on="1"/>
        <pt x="295" y="715" on="0"/>
        <pt x="266" y="757" on="0"/>
        <pt x="266" y="784" on="1"/>
        <pt x="266" y="805" on="0"/>
        <pt x="283" y="847" on="0"/>
        <pt x="313" y="879" on="0"/>
        <pt x="356" y="899" on="0"/>
        <pt x="383" y="899" on="1"/>
        <pt x="425" y="899" on="0"/>
        <pt x="476" y="847" on="0"/>
      </contour>
      <contour>
        <pt x="320" y="510" on="1"/>
        <pt x="200" y="255" on="1"/>
        <pt x="345" y="255" on="1"/>
      </contour>
      <contour>
        <pt x="416" y="806" on="1"/>
        <pt x="416" y="826" on="0"/>
        <pt x="395" y="848" on="0"/>
        <pt x="378" y="848" on="1"/>
        <pt x="357" y="848" on="0"/>
        <pt x="327" y="814" on="0"/>
        <pt x="327" y="788" on="1"/>
        <pt x="327" y="769" on="0"/>
        <pt x="347" y="746" on="0"/>
        <pt x="364" y="746" on="1"/>
        <pt x="385" y="746" on="0"/>
        <pt x="416" y="780" on="0"/>
      </contour>
    </TTGlyph>
    <TTGlyph name="Aringacute" xMin="-38" yMin="0" xMax="562" yMax="1106">
      <component glyphName="acute" x="192" y="443" flags="0x4"/>
      <component glyphName="Aring" x="0" y="0" flags="0x4"/>
    </TTGlyph>
    <TTGlyph name="Atilde" xMin="-38" yMin="0" xMax="530" yMax="910">
      <component glyphName="A" x="0" y="0" flags="0x204"/>
      <component glyphName="tilde" x="102" y="296" flags="0x4"/>
    </TTGlyph>
    <TTGlyph name="B" xMin="20" yMin="-7" xMax="503" yMax="739">
      <contour>
        <pt x="503" y="566" on="1"/>
        <pt x="503" y="531" on="0"/>
        <pt x="482" y="471" on="0"/>
        <pt x="445" y="422" on="0"/>
        <pt x="395" y="386" on="0"/>
        <pt x="367" y="375" on="1"/>
        <pt x="411" y="355" on="0"/>
        <pt x="460" y="278" on="0"/>
        <pt x="460" y="229" on="1"/>
        <pt x="460" y="179" on="0"/>
        <pt x="423" y="92" on="0"/>
        <pt x="350" y="29" on="0"/>
        <pt x="243" y="-7" on="0"/>
        <pt x="174" y="-7" on="1"/>
        <pt x="138" y="-7" on="0"/>
        <pt x="51" y="2" on="0"/>
        <pt x="20" y="9" on="1"/>
        <pt x="152" y="727" on="1"/>
        <pt x="184" y="733" on="0"/>
        <pt x="251" y="739" on="0"/>
        <pt x="280" y="739" on="1"/>
        <pt x="336" y="739" on="0"/>
        <pt x="420" y="711" on="0"/>
        <pt x="475" y="663" on="0"/>
        <pt x="503" y="600" on="0"/>
      </contour>
      <contour>
        <pt x="386" y="546" on="1"/>
        <pt x="386" y="591" on="0"/>
        <pt x="331" y="640" on="0"/>
        <pt x="283" y="640" on="1"/>
        <pt x="262" y="640" on="0"/>
        <pt x="246" y="637" on="1"/>
        <pt x="206" y="418" on="1"/>
        <pt x="219" y="415" on="0"/>
        <pt x="250" y="415" on="1"/>
        <pt x="312" y="415" on="0"/>
        <pt x="386" y="486" on="0"/>
      </contour>
      <contour>
        <pt x="344" y="228" on="1"/>
        <pt x="344" y="276" on="0"/>
        <pt x="283" y="333" on="0"/>
        <pt x="226" y="333" on="1"/>
        <pt x="216" y="333" on="0"/>
        <pt x="196" y="332" on="0"/>
        <pt x="190" y="331" on="1"/>
        <pt x="146" y="96" on="1"/>
        <pt x="160" y="93" on="0"/>
        <pt x="185" y="91" on="0"/>
        <pt x="200" y="91" on="1"/>
        <pt x="232" y="91" on="0"/>
        <pt x="285" y="112" on="0"/>
        <pt x="323" y="148" on="0"/>
        <pt x="344" y="198" on="0"/>
      </contour>
    </TTGlyph>
    <TTGlyph name="C" xMin="55" yMin="-11" xMax="570" yMax="744">
      <contour>
        <pt x="515" y="596" on="1"/>
        <pt x="492" y="614" on="0"/>
        <pt x="433" y="639" on="0"/>
        <pt x="398" y="639" on="1"/>
        <pt x="350" y="639" on="0"/>
        <pt x="268" y="578" on="0"/>
        <pt x="207" y="479" on="0"/>
        <pt x="173" y="353" on="0"/>
        <pt x="173" y="287" on="1"/>
        <pt x="173" y="193" on="0"/>
        <pt x="255" y="93" on="0"/>
        <pt x="321" y="93" on="1"/>
        <pt x="353" y="93" on="0"/>
        <pt x="412" y="114" on="0"/>
        <pt x="438" y="128" on="1"/>
        <pt x="463" y="33" on="1"/>
        <pt x="422" y="8" on="0"/>
        <pt x="342" y="-11" on="0"/>
        <pt x="307" y="-11" on="1"/>
        <pt x="251" y="-11" on="0"/>
        <pt x="158" y="30" on="0"/>
        <pt x="92" y="106" on="0"/>
        <pt x="55" y="214" on="0"/>
        <pt x="55" y="281" on="1"/>
        <pt x="55" y="371" on="0"/>
        <pt x="108" y="538" on="0"/>
        <pt x="202" y="667" on="0"/>
        <pt x="328" y="744" on="0"/>
        <pt x="402" y="744" on="1"/>
        <pt x="452" y="744" on="0"/>
        <pt x="537" y="715" on="0"/>
        <pt x="570" y="689" on="1"/>
      </contour>
    </TTGlyph>
    <TTGlyph name="Cacute" xMin="55" yMin="-11" xMax="570" yMax="959">
      <component glyphName="acute" x="194" y="296" flags="0x4"/>
      <component glyphName="C" x="0" y="0" flags="0x4"/>
    </TTGlyph>
    <TTGlyph name="Ccaron" xMin="55" yMin="-11" xMax="579" yMax="946">
      <component glyphName="caron" x="143" y="296" flags="0x4"/>
      <component glyphName="C" x="0" y="0" flags="0x4"/>
    </TTGlyph>
    <TTGlyph name="Ccedilla" xMin="55" yMin="-217" xMax="570" yMax="744">
      <contour>
        <pt x="343" y="-124" on="1"/>
        <pt x="343" y="-163" on="0"/>
        <pt x="286" y="-217" on="0"/>
        <pt x="237" y="-217" on="1"/>
        <pt x="208" y="-217" on="0"/>
        <pt x="154" y="-199" on="0"/>
        <pt x="131" y="-183" on="1"/>
        <pt x="161" y="-131" on="1"/>
        <pt x="184" y="-146" on="0"/>
        <pt x="223" y="-159" on="0"/>
        <pt x="240" y="-159" on="1"/>
        <pt x="255" y="-159" on="0"/>
        <pt x="277" y="-143" on="0"/>
        <pt x="277" y="-129" on="1"/>
        <pt x="277" y="-116" on="0"/>
        <pt x="245" y="-93" on="0"/>
        <pt x="200" y="-91" on="1"/>
        <pt x="197" y="-83" on="1"/>
        <pt x="234" y="-1" on="1"/>
        <pt x="152" y="22" on="0"/>
        <pt x="55" y="169" on="0"/>
        <pt x="55" y="281" on="1"/>
        <pt x="55" y="371" on="0"/>
        <pt x="108" y="538" on="0"/>
        <pt x="202" y="667" on="0"/>
        <pt x="328" y="744" on="0"/>
        <pt x="402" y="744" on="1"/>
        <pt x="452" y="744" on="0"/>
        <pt x="537" y="715" on="0"/>
        <pt x="570" y="689" on="1"/>
        <pt x="515" y="596" on="1"/>
        <pt x="492" y="614" on="0"/>
        <pt x="433" y="639" on="0"/>
        <pt x="398" y="639" on="1"/>
        <pt x="350" y="639" on="0"/>
        <pt x="268" y="578" on="0"/>
        <pt x="207" y="479" on="0"/>
        <pt x="173" y="353" on="0"/>
        <pt x="173" y="287" on="1"/>
        <pt x="173" y="193" on="0"/>
        <pt x="255" y="93" on="0"/>
        <pt x="321" y="93" on="1"/>
        <pt x="353" y="93" on="0"/>
        <pt x="412" y="114" on="0"/>
        <pt x="438" y="128" on="1"/>
        <pt x="463" y="33" on="1"/>
        <pt x="422" y="8" on="0"/>
        <pt x="342" y="-11" on="0"/>
        <pt x="307" y="-11" on="1"/>
        <pt x="299" y="-11" on="0"/>
        <pt x="285" y="-10" on="0"/>
        <pt x="277" y="-9" on="1"/>
        <pt x="262" y="-45" on="1"/>
        <pt x="304" y="-54" on="0"/>
        <pt x="343" y="-96" on="0"/>
      </contour>
    </TTGlyph>
    <TTGlyph name="Cdotaccent" xMin="55" yMin="-11" xMax="570" yMax="907">
      <component glyphName="C" x="0" y="0" flags="0x204"/>
      <component glyphName="dotaccent" x="146" y="296" flags="0x4"/>
    </TTGlyph>
    <TTGlyph name="D" xMin="22" yMin="-7" xMax="572" yMax="739">
      <contour>
        <pt x="169" y="-7" on="1"/>
        <pt x="131" y="-7" on="0"/>
        <pt x="57" y="1" on="0"/>
        <pt x="22" y="7" on="1"/>
        <pt x="155" y="729" on="1"/>
        <pt x="178" y="734" on="0"/>
        <pt x="236" y="739" on="0"/>
        <pt x="269" y="739" on="1"/>
        <pt x="341" y="739" on="0"/>
        <pt x="454" y="697" on="0"/>
        <pt x="492" y="659" on="1"/>
        <pt x="532" y="619" on="0"/>
        <pt x="572" y="505" on="0"/>
        <pt x="572" y="436" on="1"/>
        <pt x="572" y="348" on="0"/>
        <pt x="516" y="188" on="0"/>
        <pt x="412" y="66" on="0"/>
        <pt x="262" y="-7" on="0"/>
      </contour>
      <contour>
        <pt x="282" y="637" on="1"/>
        <pt x="274" y="637" on="0"/>
        <pt x="258" y="637" on="0"/>
        <pt x="250" y="636" on="1"/>
        <pt x="151" y="97" on="1"/>
        <pt x="160" y="95" on="0"/>
        <pt x="179" y="95" on="0"/>
        <pt x="190" y="95" on="1"/>
        <pt x="246" y="95" on="0"/>
        <pt x="343" y="150" on="0"/>
        <pt x="414" y="242" on="0"/>
        <pt x="455" y="364" on="0"/>
        <pt x="455" y="430" on="1"/>
        <pt x="455" y="486" on="0"/>
        <pt x="427" y="567" on="0"/>
        <pt x="401" y="593" on="1"/>
        <pt x="378" y="616" on="0"/>
        <pt x="317" y="637" on="0"/>
      </contour>
    </TTGlyph>
    <TTGlyph name="Dcaron" xMin="22" yMin="-7" xMax="572" yMax="943">
      <component glyphName="caron" x="96" y="293" flags="0x4"/>
      <component glyphName="D" x="0" y="0" flags="0x4"/>
    </TTGlyph>
    <TTGlyph name="Dcroat" xMin="32" yMin="-7" xMax="585" yMax="739">
      <component glyphName="Eth" x="0" y="0" flags="0x204"/>
    </TTGlyph>
    <TTGlyph name="E" xMin="21" yMin="0" xMax="503" yMax="733">
      <contour>
        <pt x="483" y="629" on="1"/>
        <pt x="249" y="629" on="1"/>
        <pt x="212" y="426" on="1"/>
        <pt x="423" y="426" on="1"/>
        <pt x="404" y="324" on="1"/>
        <pt x="193" y="324" on="1"/>
        <pt x="153" y="104" on="1"/>
        <pt x="387" y="104" on="1"/>
        <pt x="368" y="0" on="1"/>
        <pt x="21" y="0" on="1"/>
        <pt x="156" y="733" on="1"/>
        <pt x="503" y="733" on="1"/>
      </contour>
    </TTGlyph>
    <TTGlyph name="Eacute" xMin="21" yMin="0" xMax="503" yMax="956">
      <component glyphName="acute" x="129" y="293" flags="0x4"/>
      <component glyphName="E" x="0" y="0" flags="0x4"/>
    </TTGlyph>
    <TTGlyph name="Ebreve" xMin="21" yMin="0" xMax="503" yMax="927">
      <component glyphName="E" x="0" y="0" flags="0x204"/>
      <component glyphName="breve" x="77" y="293" flags="0x4"/>
    </TTGlyph>
    <TTGlyph name="Ecaron" xMin="21" yMin="0" xMax="513" yMax="943">
      <component glyphName="caron" x="77" y="293" flags="0x4"/>
      <component glyphName="E" x="0" y="0" flags="0x4"/>
    </TTGlyph>
    <TTGlyph name="Ecircumflex" xMin="21" yMin="0" xMax="503" yMax="947">
      <component glyphName="circumflex" x="69" y="293" flags="0x4"/>
      <component glyphName="E" x="0" y="0" flags="0x4"/>
    </TTGlyph>
    <TTGlyph name="Edieresis" xMin="21" yMin="0" xMax="503" yMax="904">
      <component glyphName="dieresis" x="75" y="293" flags="0x4"/>
      <component glyphName="E" x="0" y="0" flags="0x4"/>
    </TTGlyph>
    <TTGlyph name="Edotaccent" xMin="21" yMin="0" xMax="503" yMax="904">
      <component glyphName="E" x="0" y="0" flags="0x204"/>
      <component glyphName="dotaccent" x="80" y="293" flags="0x4"/>
    </TTGlyph>
    <TTGlyph name="Egrave" xMin="21" yMin="0" xMax="503" yMax="960">
      <component glyphName="E" x="0" y="0" flags="0x204"/>
      <component glyphName="grave" x="19" y="293" flags="0x4"/>
    </TTGlyph>
    <TTGlyph name="Emacron" xMin="21" yMin="0" xMax="503" yMax="875">
      <component glyphName="E" x="0" y="0" flags="0x204"/>
      <component glyphName="macron" x="75" y="293" flags="0x4"/>
    </TTGlyph>
    <TTGlyph name="Eogonek" xMin="21" yMin="-205" xMax="503" yMax="733">
      <contour>
        <pt x="483" y="629" on="1"/>
        <pt x="249" y="629" on="1"/>
        <pt x="212" y="426" on="1"/>
        <pt x="423" y="426" on="1"/>
        <pt x="404" y="324" on="1"/>
        <pt x="193" y="324" on="1"/>
        <pt x="153" y="104" on="1"/>
        <pt x="387" y="104" on="1"/>
        <pt x="368" y="0" on="1"/>
        <pt x="331" y="0" on="1"/>
        <pt x="319" y="-12" on="0"/>
        <pt x="293" y="-39" on="0"/>
        <pt x="272" y="-68" on="0"/>
        <pt x="258" y="-98" on="0"/>
        <pt x="258" y="-113" on="1"/>
        <pt x="258" y="-141" on="0"/>
        <pt x="285" y="-141" on="1"/>
        <pt x="295" y="-141" on="0"/>
        <pt x="316" y="-132" on="0"/>
        <pt x="327" y="-124" on="1"/>
        <pt x="344" y="-168" on="1"/>
        <pt x="324" y="-185" on="0"/>
        <pt x="280" y="-205" on="0"/>
        <pt x="251" y="-205" on="1"/>
        <pt x="218" y="-205" on="0"/>
        <pt x="182" y="-169" on="0"/>
        <pt x="182" y="-140" on="1"/>
        <pt x="182" y="-101" on="0"/>
        <pt x="228" y="-32" on="0"/>
        <pt x="263" y="0" on="1"/>
        <pt x="21" y="0" on="1"/>
        <pt x="156" y="733" on="1"/>
        <pt x="503" y="733" on="1"/>
      </contour>
    </TTGlyph>
    <TTGlyph name="Eth" xMin="32" yMin="-7" xMax="585" yMax="739">
      <contour>
        <pt x="585" y="436" on="1"/>
        <pt x="585" y="348" on="0"/>
        <pt x="529" y="188" on="0"/>
        <pt x="425" y="66" on="0"/>
        <pt x="275" y="-7" on="0"/>
        <pt x="182" y="-7" on="1"/>
        <pt x="144" y="-7" on="0"/>
        <pt x="70" y="1" on="0"/>
        <pt x="35" y="7" on="1"/>
        <pt x="93" y="325" on="1"/>
        <pt x="32" y="325" on="1"/>
        <pt x="49" y="417" on="1"/>
        <pt x="110" y="417" on="1"/>
        <pt x="167" y="729" on="1"/>
        <pt x="191" y="734" on="0"/>
        <pt x="249" y="739" on="0"/>
        <pt x="282" y="739" on="1"/>
        <pt x="354" y="739" on="0"/>
        <pt x="467" y="697" on="0"/>
        <pt x="505" y="659" on="1"/>
        <pt x="545" y="619" on="0"/>
        <pt x="585" y="505" on="0"/>
      </contour>
      <contour>
        <pt x="467" y="430" on="1"/>
        <pt x="467" y="486" on="0"/>
        <pt x="440" y="567" on="0"/>
        <pt x="414" y="593" on="1"/>
        <pt x="391" y="616" on="0"/>
        <pt x="330" y="637" on="0"/>
        <pt x="295" y="637" on="1"/>
        <pt x="287" y="637" on="0"/>
        <pt x="271" y="637" on="0"/>
        <pt x="263" y="636" on="1"/>
        <pt x="223" y="417" on="1"/>
        <pt x="319" y="417" on="1"/>
        <pt x="302" y="325" on="1"/>
        <pt x="206" y="325" on="1"/>
        <pt x="164" y="97" on="1"/>
        <pt x="173" y="95" on="0"/>
        <pt x="192" y="95" on="0"/>
        <pt x="203" y="95" on="1"/>
        <pt x="259" y="95" on="0"/>
        <pt x="356" y="150" on="0"/>
        <pt x="427" y="242" on="0"/>
        <pt x="467" y="364" on="0"/>
      </contour>
    </TTGlyph>
    <TTGlyph name="Euro" xMin="21" yMin="-11" xMax="544" yMax="672">
      <contour>
        <pt x="88" y="291" on="1"/>
        <pt x="90" y="311" on="0"/>
        <pt x="95" y="350" on="0"/>
        <pt x="99" y="370" on="1"/>
        <pt x="49" y="370" on="1"/>
        <pt x="62" y="445" on="1"/>
        <pt x="122" y="445" on="1"/>
        <pt x="141" y="494" on="0"/>
        <pt x="197" y="577" on="0"/>
        <pt x="268" y="638" on="0"/>
        <pt x="350" y="672" on="0"/>
        <pt x="396" y="672" on="1"/>
        <pt x="440" y="672" on="0"/>
        <pt x="514" y="646" on="0"/>
        <pt x="544" y="623" on="1"/>
        <pt x="492" y="536" on="1"/>
        <pt x="472" y="552" on="0"/>
        <pt x="421" y="574" on="0"/>
        <pt x="390" y="574" on="1"/>
        <pt x="342" y="574" on="0"/>
        <pt x="261" y="502" on="0"/>
        <pt x="234" y="445" on="1"/>
        <pt x="439" y="445" on="1"/>
        <pt x="426" y="370" on="1"/>
        <pt x="208" y="370" on="1"/>
        <pt x="198" y="333" on="0"/>
        <pt x="195" y="291" on="1"/>
        <pt x="411" y="291" on="1"/>
        <pt x="398" y="216" on="1"/>
        <pt x="196" y="216" on="1"/>
        <pt x="204" y="152" on="0"/>
        <pt x="271" y="87" on="0"/>
        <pt x="322" y="87" on="1"/>
        <pt x="348" y="87" on="0"/>
        <pt x="399" y="103" on="0"/>
        <pt x="421" y="116" on="1"/>
        <pt x="443" y="27" on="1"/>
        <pt x="408" y="6" on="0"/>
        <pt x="338" y="-11" on="0"/>
        <pt x="308" y="-11" on="1"/>
        <pt x="263" y="-11" on="0"/>
        <pt x="186" y="21" on="0"/>
        <pt x="129" y="79" on="0"/>
        <pt x="93" y="163" on="0"/>
        <pt x="88" y="216" on="1"/>
        <pt x="21" y="216" on="1"/>
        <pt x="34" y="291" on="1"/>
      </contour>
    </TTGlyph>
    <TTGlyph name="Euro.lin" xMin="24" yMin="-11" xMax="612" yMax="737">
      <contour>
        <pt x="136" y="484" on="1"/>
        <pt x="157" y="539" on="0"/>
        <pt x="220" y="631" on="0"/>
        <pt x="300" y="699" on="0"/>
        <pt x="394" y="737" on="0"/>
        <pt x="445" y="737" on="1"/>
        <pt x="494" y="737" on="0"/>
        <pt x="579" y="707" on="0"/>
        <pt x="612" y="681" on="1"/>
        <pt x="557" y="588" on="1"/>
        <pt x="534" y="606" on="0"/>
        <pt x="474" y="631" on="0"/>
        <pt x="439" y="631" on="1"/>
        <pt x="382" y="631" on="0"/>
        <pt x="287" y="549" on="0"/>
        <pt x="256" y="484" on="1"/>
        <pt x="495" y="484" on="1"/>
        <pt x="481" y="409" on="1"/>
        <pt x="229" y="409" on="1"/>
        <pt x="217" y="366" on="0"/>
        <pt x="214" y="318" on="1"/>
        <pt x="465" y="318" on="1"/>
        <pt x="451" y="243" on="1"/>
        <pt x="215" y="243" on="1"/>
        <pt x="224" y="173" on="0"/>
        <pt x="302" y="94" on="0"/>
        <pt x="365" y="94" on="1"/>
        <pt x="393" y="94" on="0"/>
        <pt x="454" y="114" on="0"/>
        <pt x="481" y="129" on="1"/>
        <pt x="506" y="33" on="1"/>
        <pt x="465" y="9" on="0"/>
        <pt x="384" y="-11" on="0"/>
        <pt x="349" y="-11" on="1"/>
        <pt x="296" y="-11" on="0"/>
        <pt x="208" y="25" on="0"/>
        <pt x="143" y="91" on="0"/>
        <pt x="104" y="185" on="0"/>
        <pt x="99" y="243" on="1"/>
        <pt x="24" y="243" on="1"/>
        <pt x="38" y="318" on="1"/>
        <pt x="99" y="318" on="1"/>
        <pt x="101" y="341" on="0"/>
        <pt x="108" y="386" on="0"/>
        <pt x="113" y="409" on="1"/>
        <pt x="54" y="409" on="1"/>
        <pt x="68" y="484" on="1"/>
      </contour>
    </TTGlyph>
    <TTGlyph name="F" xMin="21" yMin="0" xMax="499" yMax="733">
      <contour>
        <pt x="480" y="629" on="1"/>
        <pt x="249" y="629" on="1"/>
        <pt x="209" y="411" on="1"/>
        <pt x="411" y="411" on="1"/>
        <pt x="393" y="310" on="1"/>
        <pt x="190" y="310" on="1"/>
        <pt x="133" y="0" on="1"/>
        <pt x="21" y="0" on="1"/>
        <pt x="156" y="733" on="1"/>
        <pt x="499" y="733" on="1"/>
      </contour>
    </TTGlyph>
    <TTGlyph name="G" xMin="56" yMin="-11" xMax="577" yMax="744">
      <contour>
        <pt x="483" y="40" on="1"/>
        <pt x="442" y="15" on="0"/>
        <pt x="358" y="-11" on="0"/>
        <pt x="306" y="-11" on="1"/>
        <pt x="253" y="-11" on="0"/>
        <pt x="162" y="27" on="0"/>
        <pt x="94" y="101" on="0"/>
        <pt x="56" y="210" on="0"/>
        <pt x="56" y="280" on="1"/>
        <pt x="56" y="370" on="0"/>
        <pt x="108" y="537" on="0"/>
        <pt x="201" y="666" on="0"/>
        <pt x="329" y="744" on="0"/>
        <pt x="404" y="744" on="1"/>
        <pt x="458" y="744" on="0"/>
        <pt x="545" y="709" on="0"/>
        <pt x="577" y="683" on="1"/>
        <pt x="522" y="591" on="1"/>
        <pt x="499" y="610" on="0"/>
        <pt x="435" y="639" on="0"/>
        <pt x="396" y="639" on="1"/>
        <pt x="346" y="639" on="0"/>
        <pt x="264" y="576" on="0"/>
        <pt x="205" y="474" on="0"/>
        <pt x="173" y="346" on="0"/>
        <pt x="173" y="281" on="1"/>
        <pt x="173" y="185" on="0"/>
        <pt x="255" y="88" on="0"/>
        <pt x="321" y="88" on="1"/>
        <pt x="344" y="88" on="0"/>
        <pt x="375" y="97" on="0"/>
        <pt x="388" y="104" on="1"/>
        <pt x="426" y="301" on="1"/>
        <pt x="310" y="301" on="1"/>
        <pt x="328" y="402" on="1"/>
        <pt x="551" y="402" on="1"/>
      </contour>
    </TTGlyph>
    <TTGlyph name="G.alt" xMin="56" yMin="-12" xMax="595" yMax="744">
      <contour>
        <pt x="595" y="398" on="1"/>
        <pt x="586" y="303" on="0"/>
        <pt x="538" y="151" on="0"/>
        <pt x="463" y="45" on="0"/>
        <pt x="362" y="-12" on="0"/>
        <pt x="299" y="-12" on="1"/>
        <pt x="247" y="-12" on="0"/>
        <pt x="158" y="27" on="0"/>
        <pt x="93" y="101" on="0"/>
        <pt x="56" y="208" on="0"/>
        <pt x="56" y="277" on="1"/>
        <pt x="56" y="373" on="0"/>
        <pt x="109" y="542" on="0"/>
        <pt x="202" y="670" on="0"/>
        <pt x="328" y="744" on="0"/>
        <pt x="401" y="744" on="1"/>
        <pt x="461" y="744" on="0"/>
        <pt x="553" y="701" on="0"/>
        <pt x="583" y="672" on="1"/>
        <pt x="518" y="586" on="1"/>
        <pt x="497" y="606" on="0"/>
        <pt x="434" y="639" on="0"/>
        <pt x="394" y="639" on="1"/>
        <pt x="346" y="639" on="0"/>
        <pt x="264" y="580" on="0"/>
        <pt x="206" y="479" on="0"/>
        <pt x="173" y="347" on="0"/>
        <pt x="173" y="275" on="1"/>
        <pt x="173" y="187" on="0"/>
        <pt x="246" y="90" on="0"/>
        <pt x="309" y="90" on="1"/>
        <pt x="337" y="90" on="0"/>
        <pt x="388" y="122" on="0"/>
        <pt x="429" y="177" on="0"/>
        <pt x="459" y="253" on="0"/>
        <pt x="467" y="297" on="1"/>
        <pt x="303" y="297" on="1"/>
        <pt x="322" y="398" on="1"/>
      </contour>
    </TTGlyph>
    <TTGlyph name="Gbreve" xMin="56" yMin="-11" xMax="577" yMax="930">
      <component glyphName="G" x="0" y="0" flags="0x204"/>
      <component glyphName="breve" x="146" y="296" flags="0x4"/>
    </TTGlyph>
    <TTGlyph name="Gbreve.alt" xMin="56" yMin="-12" xMax="595" yMax="930">
      <component glyphName="G.alt" x="0" y="0" flags="0x4"/>
      <component glyphName="breve" x="145" y="296" flags="0x4"/>
    </TTGlyph>
    <TTGlyph name="Gcommaaccent" xMin="56" yMin="-295" xMax="577" yMax="744">
      <component glyphName="commaaccent" x="141" y="0" flags="0x4"/>
      <component glyphName="G" x="0" y="0" flags="0x4"/>
    </TTGlyph>
    <TTGlyph name="Gcommaaccent.alt" xMin="56" yMin="-295" xMax="595" yMax="744">
      <component glyphName="commaaccent" x="161" y="0" flags="0x4"/>
      <component glyphName="G.alt" x="0" y="0" flags="0x4"/>
    </TTGlyph>
    <TTGlyph name="Gdotaccent" xMin="56" yMin="-11" xMax="577" yMax="907">
      <component glyphName="G" x="0" y="0" flags="0x204"/>
      <component glyphName="dotaccent" x="150" y="296" flags="0x4"/>
    </TTGlyph>
    <TTGlyph name="Gdotaccent.alt" xMin="56" yMin="-12" xMax="595" yMax="907">
      <component glyphName="G.alt" x="0" y="0" flags="0x4"/>
      <component glyphName="dotaccent" x="149" y="296" flags="0x4"/>
    </TTGlyph>
    <TTGlyph name="H" xMin="21" yMin="0" xMax="607" yMax="733">
      <contour>
        <pt x="472" y="0" on="1"/>
        <pt x="359" y="0" on="1"/>
        <pt x="418" y="320" on="1"/>
        <pt x="193" y="320" on="1"/>
        <pt x="134" y="0" on="1"/>
        <pt x="21" y="0" on="1"/>
        <pt x="156" y="733" on="1"/>
        <pt x="269" y="733" on="1"/>
        <pt x="213" y="423" on="1"/>
        <pt x="437" y="423" on="1"/>
        <pt x="494" y="733" on="1"/>
        <pt x="607" y="733" on="1"/>
      </contour>
    </TTGlyph>
    <TTGlyph name="Hbar" xMin="21" yMin="0" xMax="645" yMax="733">
      <contour>
        <pt x="585" y="615" on="1"/>
        <pt x="645" y="615" on="1"/>
        <pt x="630" y="539" on="1"/>
        <pt x="571" y="539" on="1"/>
        <pt x="472" y="0" on="1"/>
        <pt x="359" y="0" on="1"/>
        <pt x="417" y="316" on="1"/>
        <pt x="193" y="316" on="1"/>
        <pt x="134" y="0" on="1"/>
        <pt x="21" y="0" on="1"/>
        <pt x="120" y="539" on="1"/>
        <pt x="60" y="539" on="1"/>
        <pt x="74" y="615" on="1"/>
        <pt x="134" y="615" on="1"/>
        <pt x="156" y="733" on="1"/>
        <pt x="269" y="733" on="1"/>
        <pt x="247" y="615" on="1"/>
        <pt x="472" y="615" on="1"/>
        <pt x="494" y="733" on="1"/>
        <pt x="607" y="733" on="1"/>
      </contour>
      <contour>
        <pt x="436" y="419" on="1"/>
        <pt x="458" y="539" on="1"/>
        <pt x="234" y="539" on="1"/>
        <pt x="212" y="419" on="1"/>
      </contour>
    </TTGlyph>
    <TTGlyph name="I" xMin="25" yMin="0" xMax="272" yMax="733">
      <contour>
        <pt x="137" y="0" on="1"/>
        <pt x="25" y="0" on="1"/>
        <pt x="160" y="733" on="1"/>
        <pt x="272" y="733" on="1"/>
      </contour>
    </TTGlyph>
    <TTGlyph name="Iacute" xMin="25" yMin="0" xMax="386" yMax="956">
      <component glyphName="I" x="0" y="0" flags="0x204"/>
      <component glyphName="acute" x="16" y="293" flags="0x4"/>
    </TTGlyph>
    <TTGlyph name="Ibreve" xMin="25" yMin="0" xMax="386" yMax="927">
      <component glyphName="I" x="0" y="0" flags="0x204"/>
      <component glyphName="breve" x="-34" y="293" flags="0x4"/>
    </TTGlyph>
    <TTGlyph name="Icircumflex" xMin="25" yMin="0" xMax="369" yMax="947">
      <component glyphName="I" x="0" y="0" flags="0x204"/>
      <component glyphName="circumflex" x="-42" y="293" flags="0x4"/>
    </TTGlyph>
    <TTGlyph name="Idieresis" xMin="25" yMin="0" xMax="373" yMax="904">
      <component glyphName="I" x="0" y="0" flags="0x204"/>
      <component glyphName="dieresis" x="-36" y="293" flags="0x4"/>
    </TTGlyph>
    <TTGlyph name="Idotaccent" xMin="25" yMin="0" xMax="293" yMax="904">
      <component glyphName="I" x="0" y="0" flags="0x204"/>
      <component glyphName="dotaccent" x="-31" y="293" flags="0x4"/>
    </TTGlyph>
    <TTGlyph name="Igrave" xMin="25" yMin="0" xMax="286" yMax="960">
      <component glyphName="I" x="0" y="0" flags="0x204"/>
      <component glyphName="grave" x="-92" y="293" flags="0x4"/>
    </TTGlyph>
    <TTGlyph name="Imacron" xMin="25" yMin="0" xMax="368" yMax="875">
      <component glyphName="I" x="0" y="0" flags="0x204"/>
      <component glyphName="macron" x="-36" y="293" flags="0x4"/>
    </TTGlyph>
    <TTGlyph name="Iogonek" xMin="-32" yMin="-205" xMax="272" yMax="733">
      <contour>
        <pt x="137" y="0" on="1"/>
        <pt x="116" y="0" on="1"/>
        <pt x="104" y="-12" on="0"/>
        <pt x="79" y="-39" on="0"/>
        <pt x="58" y="-68" on="0"/>
        <pt x="44" y="-98" on="0"/>
        <pt x="44" y="-113" on="1"/>
        <pt x="44" y="-141" on="0"/>
        <pt x="71" y="-141" on="1"/>
        <pt x="81" y="-141" on="0"/>
        <pt x="102" y="-132" on="0"/>
        <pt x="112" y="-124" on="1"/>
        <pt x="130" y="-168" on="1"/>
        <pt x="110" y="-185" on="0"/>
        <pt x="66" y="-205" on="0"/>
        <pt x="37" y="-205" on="1"/>
        <pt x="4" y="-205" on="0"/>
        <pt x="-32" y="-169" on="0"/>
        <pt x="-32" y="-140" on="1"/>
        <pt x="-32" y="-101" on="0"/>
        <pt x="14" y="-32" on="0"/>
        <pt x="49" y="0" on="1"/>
        <pt x="25" y="0" on="1"/>
        <pt x="160" y="733" on="1"/>
        <pt x="272" y="733" on="1"/>
      </contour>
    </TTGlyph>
    <TTGlyph name="J" xMin="-23" yMin="-10" xMax="424" yMax="733">
      <contour>
        <pt x="322" y="180" on="1"/>
        <pt x="305" y="86" on="0"/>
        <pt x="212" y="-10" on="0"/>
        <pt x="127" y="-10" on="1"/>
        <pt x="88" y="-10" on="0"/>
        <pt x="10" y="16" on="0"/>
        <pt x="-23" y="40" on="1"/>
        <pt x="27" y="130" on="1"/>
        <pt x="73" y="95" on="0"/>
        <pt x="119" y="95" on="1"/>
        <pt x="160" y="95" on="0"/>
        <pt x="202" y="144" on="0"/>
        <pt x="212" y="198" on="1"/>
        <pt x="311" y="733" on="1"/>
        <pt x="424" y="733" on="1"/>
      </contour>
    </TTGlyph>
    <TTGlyph name="K" xMin="21" yMin="0" xMax="595" yMax="733">
      <contour>
        <pt x="305" y="373" on="1"/>
        <pt x="468" y="0" on="1"/>
        <pt x="341" y="0" on="1"/>
        <pt x="199" y="354" on="1"/>
        <pt x="134" y="0" on="1"/>
        <pt x="21" y="0" on="1"/>
        <pt x="156" y="733" on="1"/>
        <pt x="268" y="733" on="1"/>
        <pt x="207" y="400" on="1"/>
        <pt x="463" y="733" on="1"/>
        <pt x="595" y="733" on="1"/>
      </contour>
    </TTGlyph>
    <TTGlyph name="Kcommaaccent" xMin="21" yMin="-293" xMax="595" yMax="733">
      <component glyphName="commaaccent" x="108" y="2" flags="0x4"/>
      <component glyphName="K" x="0" y="0" flags="0x4"/>
    </TTGlyph>
    <TTGlyph name="L" xMin="21" yMin="0" xMax="376" yMax="733">
      <contour>
        <pt x="357" y="0" on="1"/>
        <pt x="21" y="0" on="1"/>
        <pt x="156" y="733" on="1"/>
        <pt x="269" y="733" on="1"/>
        <pt x="153" y="104" on="1"/>
        <pt x="376" y="104" on="1"/>
      </contour>
    </TTGlyph>
    <TTGlyph name="Lacute" xMin="21" yMin="0" xMax="388" yMax="956">
      <component glyphName="acute" x="18" y="293" flags="0x4"/>
      <component glyphName="L" x="0" y="0" flags="0x4"/>
    </TTGlyph>
    <TTGlyph name="Lcaron" xMin="21" yMin="0" xMax="424" yMax="733">
      <component glyphName="caron.alt" x="244" y="-8" flags="0x4"/>
      <component glyphName="L" x="0" y="0" flags="0x4"/>
    </TTGlyph>
    <TTGlyph name="Lcommaaccent" xMin="21" yMin="-295" xMax="376" yMax="733">
      <component glyphName="commaaccent" x="68" y="0" flags="0x4"/>
      <component glyphName="L" x="0" y="0" flags="0x4"/>
    </TTGlyph>
    <TTGlyph name="Ldot" xMin="21" yMin="0" xMax="409" yMax="733">
      <component glyphName="L" x="0" y="0" flags="0x204"/>
      <component glyphName="dotaccent" x="85" y="-189" flags="0x4"/>
    </TTGlyph>
    <TTGlyph name="Lslash" xMin="24" yMin="0" xMax="391" yMax="733">
      <contour>
        <pt x="372" y="0" on="1"/>
        <pt x="36" y="0" on="1"/>
        <pt x="87" y="275" on="1"/>
        <pt x="24" y="249" on="1"/>
        <pt x="42" y="351" on="1"/>
        <pt x="105" y="377" on="1"/>
        <pt x="171" y="733" on="1"/>
        <pt x="284" y="733" on="1"/>
        <pt x="228" y="428" on="1"/>
        <pt x="333" y="472" on="1"/>
        <pt x="314" y="370" on="1"/>
        <pt x="209" y="326" on="1"/>
        <pt x="168" y="104" on="1"/>
        <pt x="391" y="104" on="1"/>
      </contour>
    </TTGlyph>
    <TTGlyph name="M" xMin="13" yMin="0" xMax="683" yMax="739">
      <contour>
        <pt x="579" y="0" on="1"/>
        <pt x="469" y="0" on="1"/>
        <pt x="538" y="430" on="1"/>
        <pt x="331" y="114" on="1"/>
        <pt x="312" y="114" on="1"/>
        <pt x="211" y="435" on="1"/>
        <pt x="123" y="0" on="1"/>
        <pt x="13" y="0" on="1"/>
        <pt x="171" y="737" on="1"/>
        <pt x="209" y="739" on="1"/>
        <pt x="353" y="298" on="1"/>
        <pt x="643" y="739" on="1"/>
        <pt x="683" y="737" on="1"/>
      </contour>
    </TTGlyph>
    <TTGlyph name="M.alt" xMin="13" yMin="0" xMax="683" yMax="739">
      <contour>
        <pt x="579" y="0" on="1"/>
        <pt x="469" y="0" on="1"/>
        <pt x="539" y="434" on="1"/>
        <pt x="334" y="131" on="1"/>
        <pt x="316" y="131" on="1"/>
        <pt x="212" y="440" on="1"/>
        <pt x="123" y="0" on="1"/>
        <pt x="13" y="0" on="1"/>
        <pt x="171" y="737" on="1"/>
        <pt x="209" y="739" on="1"/>
        <pt x="356" y="312" on="1"/>
        <pt x="643" y="739" on="1"/>
        <pt x="683" y="737" on="1"/>
      </contour>
    </TTGlyph>
    <TTGlyph name="N" xMin="21" yMin="-7" xMax="610" yMax="740">
      <contour>
        <pt x="474" y="-5" on="1"/>
        <pt x="439" y="-7" on="1"/>
        <pt x="216" y="455" on="1"/>
        <pt x="132" y="0" on="1"/>
        <pt x="21" y="0" on="1"/>
        <pt x="157" y="737" on="1"/>
        <pt x="195" y="740" on="1"/>
        <pt x="416" y="285" on="1"/>
        <pt x="499" y="733" on="1"/>
        <pt x="610" y="733" on="1"/>
      </contour>
    </TTGlyph>
    <TTGlyph name="Nacute" xMin="21" yMin="-7" xMax="610" yMax="953">
      <component glyphName="acute" x="182" y="290" flags="0x4"/>
      <component glyphName="N" x="0" y="0" flags="0x4"/>
    </TTGlyph>
    <TTGlyph name="Ncaron" xMin="21" yMin="-7" xMax="610" yMax="940">
      <component glyphName="caron" x="131" y="290" flags="0x4"/>
      <component glyphName="N" x="0" y="0" flags="0x4"/>
    </TTGlyph>
    <TTGlyph name="Ncommaaccent" xMin="21" yMin="-296" xMax="610" yMax="740">
      <component glyphName="commaaccent" x="124" y="-1" flags="0x4"/>
      <component glyphName="N" x="0" y="0" flags="0x4"/>
    </TTGlyph>
    <TTGlyph name="Ntilde" xMin="21" yMin="-7" xMax="610" yMax="904">
      <component glyphName="N" x="0" y="0" flags="0x204"/>
      <component glyphName="tilde" x="123" y="290" flags="0x4"/>
    </TTGlyph>
    <TTGlyph name="O" xMin="55" yMin="-11" xMax="615" yMax="744">
      <contour>
        <pt x="283" y="-11" on="1"/>
        <pt x="229" y="-11" on="0"/>
        <pt x="144" y="29" on="0"/>
        <pt x="85" y="103" on="0"/>
        <pt x="55" y="209" on="0"/>
        <pt x="55" y="274" on="1"/>
        <pt x="55" y="325" on="0"/>
        <pt x="74" y="434" on="0"/>
        <pt x="113" y="538" on="0"/>
        <pt x="169" y="632" on="0"/>
        <pt x="243" y="703" on="0"/>
        <pt x="333" y="744" on="0"/>
        <pt x="387" y="744" on="1"/>
        <pt x="442" y="744" on="0"/>
        <pt x="527" y="704" on="0"/>
        <pt x="585" y="631" on="0"/>
        <pt x="615" y="525" on="0"/>
        <pt x="615" y="459" on="1"/>
        <pt x="615" y="408" on="0"/>
        <pt x="596" y="299" on="0"/>
        <pt x="558" y="195" on="0"/>
        <pt x="502" y="101" on="0"/>
        <pt x="428" y="30" on="0"/>
        <pt x="337" y="-11" on="0"/>
      </contour>
      <contour>
        <pt x="287" y="88" on="1"/>
        <pt x="318" y="88" on="0"/>
        <pt x="375" y="123" on="0"/>
        <pt x="422" y="181" on="0"/>
        <pt x="460" y="257" on="0"/>
        <pt x="486" y="340" on="0"/>
        <pt x="500" y="424" on="0"/>
        <pt x="500" y="461" on="1"/>
        <pt x="500" y="550" on="0"/>
        <pt x="441" y="645" on="0"/>
        <pt x="384" y="645" on="1"/>
        <pt x="337" y="645" on="0"/>
        <pt x="258" y="571" on="0"/>
        <pt x="201" y="459" on="0"/>
        <pt x="170" y="328" on="0"/>
        <pt x="170" y="272" on="1"/>
        <pt x="170" y="184" on="0"/>
        <pt x="229" y="88" on="0"/>
      </contour>
    </TTGlyph>
    <TTGlyph name="OE" xMin="58" yMin="-5" xMax="844" yMax="739">
      <contour>
        <pt x="825" y="629" on="1"/>
        <pt x="590" y="629" on="1"/>
        <pt x="553" y="426" on="1"/>
        <pt x="764" y="426" on="1"/>
        <pt x="745" y="324" on="1"/>
        <pt x="535" y="324" on="1"/>
        <pt x="494" y="104" on="1"/>
        <pt x="729" y="104" on="1"/>
        <pt x="710" y="0" on="1"/>
        <pt x="440" y="0" on="1"/>
        <pt x="424" y="-2" on="0"/>
        <pt x="384" y="-5" on="0"/>
        <pt x="361" y="-5" on="1"/>
        <pt x="288" y="-5" on="0"/>
        <pt x="175" y="39" on="0"/>
        <pt x="98" y="119" on="0"/>
        <pt x="58" y="231" on="0"/>
        <pt x="58" y="298" on="1"/>
        <pt x="58" y="385" on="0"/>
        <pt x="114" y="545" on="0"/>
        <pt x="219" y="667" on="0"/>
        <pt x="369" y="739" on="0"/>
        <pt x="462" y="739" on="1"/>
        <pt x="511" y="739" on="0"/>
        <pt x="556" y="733" on="1"/>
        <pt x="556" y="733" on="0"/>
        <pt x="582" y="733" on="0"/>
        <pt x="622" y="733" on="0"/>
        <pt x="674" y="733" on="0"/>
        <pt x="701" y="733" on="1"/>
        <pt x="844" y="733" on="1"/>
      </contour>
      <contour>
        <pt x="349" y="97" on="1"/>
        <pt x="356" y="97" on="0"/>
        <pt x="372" y="97" on="0"/>
        <pt x="380" y="98" on="1"/>
        <pt x="479" y="635" on="1"/>
        <pt x="471" y="636" on="0"/>
        <pt x="452" y="637" on="0"/>
        <pt x="442" y="637" on="1"/>
        <pt x="383" y="637" on="0"/>
        <pt x="286" y="581" on="0"/>
        <pt x="215" y="487" on="0"/>
        <pt x="176" y="366" on="0"/>
        <pt x="176" y="302" on="1"/>
        <pt x="176" y="245" on="0"/>
        <pt x="207" y="162" on="0"/>
        <pt x="236" y="136" on="1"/>
        <pt x="258" y="116" on="0"/>
        <pt x="316" y="97" on="0"/>
      </contour>
    </TTGlyph>
    <TTGlyph name="Oacute" xMin="55" yMin="-11" xMax="615" yMax="959">
      <component glyphName="acute" x="202" y="296" flags="0x4"/>
      <component glyphName="O" x="0" y="0" flags="0x4"/>
    </TTGlyph>
    <TTGlyph name="Obreve" xMin="55" yMin="-11" xMax="615" yMax="930">
      <component glyphName="O" x="0" y="0" flags="0x204"/>
      <component glyphName="breve" x="150" y="296" flags="0x4"/>
    </TTGlyph>
    <TTGlyph name="Ocircumflex" xMin="55" yMin="-11" xMax="615" yMax="950">
      <component glyphName="circumflex" x="143" y="296" flags="0x4"/>
      <component glyphName="O" x="0" y="0" flags="0x4"/>
    </TTGlyph>
    <TTGlyph name="Odieresis" xMin="55" yMin="-11" xMax="615" yMax="907">
      <component glyphName="dieresis" x="149" y="296" flags="0x4"/>
      <component glyphName="O" x="0" y="0" flags="0x4"/>
    </TTGlyph>
    <TTGlyph name="Ograve" xMin="55" yMin="-11" xMax="615" yMax="963">
      <component glyphName="O" x="0" y="0" flags="0x204"/>
      <component glyphName="grave" x="93" y="296" flags="0x4"/>
    </TTGlyph>
    <TTGlyph name="Ohungarumlaut" xMin="55" yMin="-11" xMax="637" yMax="993">
      <component glyphName="hungarumlaut" x="188" y="296" flags="0x4"/>
      <component glyphName="O" x="0" y="0" flags="0x4"/>
    </TTGlyph>
    <TTGlyph name="Omacron" xMin="55" yMin="-11" xMax="615" yMax="878">
      <component glyphName="macron" x="149" y="296" flags="0x4"/>
      <component glyphName="O" x="0" y="0" flags="0x4"/>
    </TTGlyph>
    <TTGlyph name="Oslash" xMin="5" yMin="-11" xMax="663" yMax="744">
      <contour>
        <pt x="283" y="-11" on="1"/>
        <pt x="229" y="-11" on="0"/>
        <pt x="146" y="28" on="0"/>
        <pt x="117" y="63" on="1"/>
        <pt x="54" y="-9" on="1"/>
        <pt x="5" y="35" on="1"/>
        <pt x="80" y="126" on="1"/>
        <pt x="55" y="186" on="0"/>
        <pt x="55" y="274" on="1"/>
        <pt x="55" y="325" on="0"/>
        <pt x="74" y="434" on="0"/>
        <pt x="113" y="538" on="0"/>
        <pt x="169" y="632" on="0"/>
        <pt x="243" y="703" on="0"/>
        <pt x="333" y="744" on="0"/>
        <pt x="387" y="744" on="1"/>
        <pt x="441" y="744" on="0"/>
        <pt x="523" y="706" on="0"/>
        <pt x="552" y="671" on="1"/>
        <pt x="614" y="743" on="1"/>
        <pt x="663" y="699" on="1"/>
        <pt x="651" y="684" on="0"/>
        <pt x="638" y="669" on="1"/>
        <pt x="627" y="656" on="0"/>
        <pt x="600" y="625" on="0"/>
        <pt x="588" y="611" on="1"/>
        <pt x="615" y="548" on="0"/>
        <pt x="615" y="459" on="1"/>
        <pt x="615" y="408" on="0"/>
        <pt x="596" y="299" on="0"/>
        <pt x="558" y="195" on="0"/>
        <pt x="502" y="101" on="0"/>
        <pt x="428" y="30" on="0"/>
        <pt x="337" y="-11" on="0"/>
      </contour>
      <contour>
        <pt x="287" y="88" on="1"/>
        <pt x="318" y="88" on="0"/>
        <pt x="375" y="123" on="0"/>
        <pt x="422" y="181" on="0"/>
        <pt x="460" y="257" on="0"/>
        <pt x="486" y="340" on="0"/>
        <pt x="500" y="424" on="0"/>
        <pt x="500" y="461" on="1"/>
        <pt x="500" y="487" on="0"/>
        <pt x="497" y="510" on="1"/>
        <pt x="193" y="148" on="1"/>
        <pt x="224" y="88" on="0"/>
      </contour>
      <contour>
        <pt x="170" y="272" on="1"/>
        <pt x="170" y="260" on="0"/>
        <pt x="170" y="239" on="0"/>
        <pt x="172" y="228" on="1"/>
        <pt x="475" y="588" on="1"/>
        <pt x="446" y="645" on="0"/>
        <pt x="384" y="645" on="1"/>
        <pt x="337" y="645" on="0"/>
        <pt x="258" y="571" on="0"/>
        <pt x="201" y="459" on="0"/>
        <pt x="170" y="328" on="0"/>
      </contour>
    </TTGlyph>
    <TTGlyph name="Oslashacute" xMin="5" yMin="-11" xMax="663" yMax="959">
      <component glyphName="Oslash" x="0" y="0" flags="0x204"/>
      <component glyphName="acute" x="201" y="296" flags="0x4"/>
    </TTGlyph>
    <TTGlyph name="Otilde" xMin="55" yMin="-11" xMax="615" yMax="910">
      <component glyphName="O" x="0" y="0" flags="0x204"/>
      <component glyphName="tilde" x="144" y="296" flags="0x4"/>
    </TTGlyph>
    <TTGlyph name="P" xMin="21" yMin="0" xMax="512" yMax="739">
      <contour>
        <pt x="512" y="527" on="1"/>
        <pt x="512" y="470" on="0"/>
        <pt x="473" y="367" on="0"/>
        <pt x="398" y="290" on="0"/>
        <pt x="291" y="244" on="0"/>
        <pt x="222" y="244" on="1"/>
        <pt x="216" y="244" on="0"/>
        <pt x="186" y="245" on="0"/>
        <pt x="179" y="247" on="1"/>
        <pt x="134" y="0" on="1"/>
        <pt x="21" y="0" on="1"/>
        <pt x="155" y="728" on="1"/>
        <pt x="181" y="733" on="0"/>
        <pt x="237" y="739" on="0"/>
        <pt x="270" y="739" on="1"/>
        <pt x="330" y="739" on="0"/>
        <pt x="420" y="707" on="0"/>
        <pt x="481" y="650" on="0"/>
        <pt x="512" y="572" on="0"/>
      </contour>
      <contour>
        <pt x="397" y="517" on="1"/>
        <pt x="397" y="571" on="0"/>
        <pt x="337" y="635" on="0"/>
        <pt x="284" y="635" on="1"/>
        <pt x="265" y="635" on="0"/>
        <pt x="250" y="632" on="1"/>
        <pt x="198" y="347" on="1"/>
        <pt x="216" y="344" on="0"/>
        <pt x="237" y="344" on="1"/>
        <pt x="274" y="344" on="0"/>
        <pt x="333" y="371" on="0"/>
        <pt x="375" y="417" on="0"/>
        <pt x="397" y="481" on="0"/>
      </contour>
    </TTGlyph>
    <TTGlyph name="Q" xMin="55" yMin="-25" xMax="615" yMax="744">
      <contour>
        <pt x="287" y="88" on="1"/>
        <pt x="337" y="88" on="0"/>
        <pt x="376" y="124" on="1"/>
        <pt x="298" y="242" on="1"/>
        <pt x="374" y="301" on="1"/>
        <pt x="438" y="206" on="1"/>
        <pt x="468" y="265" on="0"/>
        <pt x="500" y="402" on="0"/>
        <pt x="500" y="461" on="1"/>
        <pt x="500" y="550" on="0"/>
        <pt x="441" y="645" on="0"/>
        <pt x="384" y="645" on="1"/>
        <pt x="337" y="645" on="0"/>
        <pt x="258" y="571" on="0"/>
        <pt x="201" y="459" on="0"/>
        <pt x="170" y="328" on="0"/>
        <pt x="170" y="272" on="1"/>
        <pt x="170" y="184" on="0"/>
        <pt x="229" y="88" on="0"/>
      </contour>
      <contour>
        <pt x="432" y="39" on="1"/>
        <pt x="400" y="16" on="0"/>
        <pt x="326" y="-11" on="0"/>
        <pt x="283" y="-11" on="1"/>
        <pt x="229" y="-11" on="0"/>
        <pt x="144" y="29" on="0"/>
        <pt x="85" y="103" on="0"/>
        <pt x="55" y="209" on="0"/>
        <pt x="55" y="274" on="1"/>
        <pt x="55" y="325" on="0"/>
        <pt x="74" y="434" on="0"/>
        <pt x="113" y="538" on="0"/>
        <pt x="169" y="632" on="0"/>
        <pt x="243" y="703" on="0"/>
        <pt x="333" y="744" on="0"/>
        <pt x="387" y="744" on="1"/>
        <pt x="442" y="744" on="0"/>
        <pt x="527" y="704" on="0"/>
        <pt x="585" y="631" on="0"/>
        <pt x="615" y="525" on="0"/>
        <pt x="615" y="459" on="1"/>
        <pt x="615" y="415" on="0"/>
        <pt x="601" y="321" on="0"/>
        <pt x="572" y="228" on="0"/>
        <pt x="530" y="142" on="0"/>
        <pt x="502" y="106" on="1"/>
        <pt x="552" y="32" on="1"/>
        <pt x="475" y="-25" on="1"/>
      </contour>
    </TTGlyph>
    <TTGlyph name="R" xMin="21" yMin="0" xMax="516" yMax="739">
      <contour>
        <pt x="516" y="537" on="1"/>
        <pt x="516" y="457" on="0"/>
        <pt x="431" y="330" on="0"/>
        <pt x="359" y="298" on="1"/>
        <pt x="452" y="0" on="1"/>
        <pt x="328" y="0" on="1"/>
        <pt x="253" y="271" on="1"/>
        <pt x="248" y="271" on="0"/>
        <pt x="238" y="270" on="0"/>
        <pt x="233" y="270" on="1"/>
        <pt x="206" y="270" on="0"/>
        <pt x="184" y="273" on="1"/>
        <pt x="184" y="273" on="0"/>
        <pt x="180" y="249" on="0"/>
        <pt x="172" y="210" on="0"/>
        <pt x="163" y="161" on="0"/>
        <pt x="159" y="136" on="1"/>
        <pt x="148" y="76" on="0"/>
        <pt x="134" y="0" on="1"/>
        <pt x="21" y="0" on="1"/>
        <pt x="155" y="728" on="1"/>
        <pt x="180" y="733" on="0"/>
        <pt x="241" y="739" on="0"/>
        <pt x="279" y="739" on="1"/>
        <pt x="337" y="739" on="0"/>
        <pt x="426" y="708" on="0"/>
        <pt x="486" y="654" on="0"/>
        <pt x="516" y="580" on="0"/>
      </contour>
      <contour>
        <pt x="399" y="526" on="1"/>
        <pt x="399" y="578" on="0"/>
        <pt x="340" y="637" on="0"/>
        <pt x="286" y="637" on="1"/>
        <pt x="275" y="637" on="0"/>
        <pt x="257" y="635" on="0"/>
        <pt x="250" y="634" on="1"/>
        <pt x="202" y="367" on="1"/>
        <pt x="212" y="366" on="0"/>
        <pt x="230" y="365" on="0"/>
        <pt x="241" y="365" on="1"/>
        <pt x="277" y="365" on="0"/>
        <pt x="336" y="389" on="0"/>
        <pt x="377" y="433" on="0"/>
        <pt x="399" y="491" on="0"/>
      </contour>
    </TTGlyph>
    <TTGlyph name="Racute" xMin="21" yMin="0" xMax="516" yMax="956">
      <component glyphName="acute" x="139" y="293" flags="0x4"/>
      <component glyphName="R" x="0" y="0" flags="0x4"/>
    </TTGlyph>
    <TTGlyph name="Rcaron" xMin="21" yMin="0" xMax="523" yMax="943">
      <component glyphName="caron" x="87" y="293" flags="0x4"/>
      <component glyphName="R" x="0" y="0" flags="0x4"/>
    </TTGlyph>
    <TTGlyph name="Rcommaaccent" xMin="21" yMin="-293" xMax="516" yMax="739">
      <component glyphName="commaaccent" x="80" y="2" flags="0x4"/>
      <component glyphName="R" x="0" y="0" flags="0x4"/>
    </TTGlyph>
    <TTGlyph name="S" xMin="-7" yMin="-11" xMax="476" yMax="744">
      <contour>
        <pt x="428" y="588" on="1"/>
        <pt x="400" y="613" on="0"/>
        <pt x="335" y="642" on="0"/>
        <pt x="303" y="642" on="1"/>
        <pt x="279" y="642" on="0"/>
        <pt x="244" y="626" on="0"/>
        <pt x="221" y="601" on="0"/>
        <pt x="210" y="568" on="0"/>
        <pt x="210" y="551" on="1"/>
        <pt x="210" y="512" on="0"/>
        <pt x="261" y="446" on="0"/>
        <pt x="300" y="409" on="1"/>
        <pt x="323" y="388" on="0"/>
        <pt x="363" y="343" on="0"/>
        <pt x="393" y="293" on="0"/>
        <pt x="411" y="236" on="0"/>
        <pt x="411" y="203" on="1"/>
        <pt x="411" y="158" on="0"/>
        <pt x="381" y="80" on="0"/>
        <pt x="326" y="22" on="0"/>
        <pt x="247" y="-11" on="0"/>
        <pt x="198" y="-11" on="1"/>
        <pt x="136" y="-11" on="0"/>
        <pt x="31" y="36" on="0"/>
        <pt x="-7" y="68" on="1"/>
        <pt x="41" y="164" on="1"/>
        <pt x="76" y="132" on="0"/>
        <pt x="155" y="92" on="0"/>
        <pt x="199" y="92" on="1"/>
        <pt x="247" y="92" on="0"/>
        <pt x="298" y="149" on="0"/>
        <pt x="298" y="192" on="1"/>
        <pt x="298" y="213" on="0"/>
        <pt x="283" y="251" on="0"/>
        <pt x="258" y="287" on="0"/>
        <pt x="224" y="322" on="0"/>
        <pt x="205" y="340" on="1"/>
        <pt x="183" y="361" on="0"/>
        <pt x="144" y="404" on="0"/>
        <pt x="115" y="452" on="0"/>
        <pt x="98" y="507" on="0"/>
        <pt x="98" y="540" on="1"/>
        <pt x="98" y="584" on="0"/>
        <pt x="129" y="659" on="0"/>
        <pt x="184" y="713" on="0"/>
        <pt x="260" y="744" on="0"/>
        <pt x="305" y="744" on="1"/>
        <pt x="359" y="744" on="0"/>
        <pt x="446" y="707" on="0"/>
        <pt x="476" y="684" on="1"/>
      </contour>
    </TTGlyph>
    <TTGlyph name="Sacute" xMin="-7" yMin="-11" xMax="483" yMax="959">
      <component glyphName="acute" x="113" y="296" flags="0x4"/>
      <component glyphName="S" x="0" y="0" flags="0x4"/>
    </TTGlyph>
    <TTGlyph name="Scaron" xMin="-7" yMin="-11" xMax="497" yMax="946">
      <component glyphName="caron" x="61" y="296" flags="0x4"/>
      <component glyphName="S" x="0" y="0" flags="0x4"/>
    </TTGlyph>
    <TTGlyph name="Scedilla" xMin="-7" yMin="-217" xMax="476" yMax="744">
      <contour>
        <pt x="258" y="-124" on="1"/>
        <pt x="258" y="-163" on="0"/>
        <pt x="201" y="-217" on="0"/>
        <pt x="152" y="-217" on="1"/>
        <pt x="123" y="-217" on="0"/>
        <pt x="69" y="-199" on="0"/>
        <pt x="46" y="-183" on="1"/>
        <pt x="76" y="-131" on="1"/>
        <pt x="99" y="-146" on="0"/>
        <pt x="138" y="-159" on="0"/>
        <pt x="155" y="-159" on="1"/>
        <pt x="170" y="-159" on="0"/>
        <pt x="192" y="-143" on="0"/>
        <pt x="192" y="-129" on="1"/>
        <pt x="192" y="-116" on="0"/>
        <pt x="160" y="-93" on="0"/>
        <pt x="115" y="-91" on="1"/>
        <pt x="112" y="-83" on="1"/>
        <pt x="147" y="-6" on="1"/>
        <pt x="101" y="2" on="0"/>
        <pt x="23" y="42" on="0"/>
        <pt x="-7" y="68" on="1"/>
        <pt x="41" y="164" on="1"/>
        <pt x="76" y="132" on="0"/>
        <pt x="155" y="92" on="0"/>
        <pt x="199" y="92" on="1"/>
        <pt x="247" y="92" on="0"/>
        <pt x="298" y="149" on="0"/>
        <pt x="298" y="192" on="1"/>
        <pt x="298" y="213" on="0"/>
        <pt x="283" y="251" on="0"/>
        <pt x="258" y="287" on="0"/>
        <pt x="224" y="322" on="0"/>
        <pt x="205" y="340" on="1"/>
        <pt x="183" y="361" on="0"/>
        <pt x="144" y="404" on="0"/>
        <pt x="115" y="452" on="0"/>
        <pt x="98" y="507" on="0"/>
        <pt x="98" y="540" on="1"/>
        <pt x="98" y="584" on="0"/>
        <pt x="129" y="659" on="0"/>
        <pt x="184" y="713" on="0"/>
        <pt x="260" y="744" on="0"/>
        <pt x="305" y="744" on="1"/>
        <pt x="359" y="744" on="0"/>
        <pt x="446" y="707" on="0"/>
        <pt x="476" y="684" on="1"/>
        <pt x="428" y="588" on="1"/>
        <pt x="400" y="613" on="0"/>
        <pt x="335" y="642" on="0"/>
        <pt x="303" y="642" on="1"/>
        <pt x="279" y="642" on="0"/>
        <pt x="244" y="626" on="0"/>
        <pt x="221" y="601" on="0"/>
        <pt x="210" y="568" on="0"/>
        <pt x="210" y="551" on="1"/>
        <pt x="210" y="512" on="0"/>
        <pt x="261" y="446" on="0"/>
        <pt x="300" y="409" on="1"/>
        <pt x="323" y="388" on="0"/>
        <pt x="363" y="343" on="0"/>
        <pt x="393" y="293" on="0"/>
        <pt x="411" y="236" on="0"/>
        <pt x="411" y="203" on="1"/>
        <pt x="411" y="158" on="0"/>
        <pt x="381" y="80" on="0"/>
        <pt x="326" y="22" on="0"/>
        <pt x="247" y="-11" on="0"/>
        <pt x="198" y="-11" on="1"/>
        <pt x="191" y="-11" on="1"/>
        <pt x="177" y="-45" on="1"/>
        <pt x="219" y="-54" on="0"/>
        <pt x="258" y="-96" on="0"/>
      </contour>
    </TTGlyph>
    <TTGlyph name="Scommaaccent" xMin="-7" yMin="-295" xMax="476" yMax="744">
      <component glyphName="commaaccent" x="53" y="0" flags="0x4"/>
      <component glyphName="S" x="0" y="0" flags="0x4"/>
    </TTGlyph>
    <TTGlyph name="T" xMin="94" yMin="0" xMax="545" yMax="733">
      <contour>
        <pt x="526" y="628" on="1"/>
        <pt x="366" y="628" on="1"/>
        <pt x="250" y="0" on="1"/>
        <pt x="137" y="0" on="1"/>
        <pt x="254" y="628" on="1"/>
        <pt x="94" y="628" on="1"/>
        <pt x="113" y="733" on="1"/>
        <pt x="545" y="733" on="1"/>
      </contour>
    </TTGlyph>
    <TTGlyph name="Tcaron" xMin="94" yMin="0" xMax="545" yMax="943">
      <component glyphName="caron" x="79" y="293" flags="0x4"/>
      <component glyphName="T" x="0" y="0" flags="0x4"/>
    </TTGlyph>
    <TTGlyph name="Tcommaaccent" xMin="85" yMin="-295" xMax="546" yMax="733">
      <component glyphName="commaaccent" x="72" y="0" flags="0x4"/>
      <component glyphName="T" x="1" y="0" flags="0x4"/>
    </TTGlyph>
    <TTGlyph name="Thorn" xMin="21" yMin="0" xMax="491" yMax="733">
      <contour>
        <pt x="156" y="733" on="1"/>
        <pt x="269" y="733" on="1"/>
        <pt x="249" y="624" on="1"/>
        <pt x="252" y="624" on="1"/>
        <pt x="310" y="624" on="0"/>
        <pt x="399" y="592" on="0"/>
        <pt x="460" y="536" on="0"/>
        <pt x="491" y="457" on="0"/>
        <pt x="491" y="411" on="1"/>
        <pt x="491" y="354" on="0"/>
        <pt x="452" y="251" on="0"/>
        <pt x="377" y="174" on="0"/>
        <pt x="270" y="128" on="0"/>
        <pt x="201" y="128" on="1"/>
        <pt x="195" y="128" on="0"/>
        <pt x="165" y="130" on="0"/>
        <pt x="158" y="131" on="1"/>
        <pt x="134" y="0" on="1"/>
        <pt x="21" y="0" on="1"/>
      </contour>
      <contour>
        <pt x="375" y="401" on="1"/>
        <pt x="375" y="455" on="0"/>
        <pt x="316" y="520" on="0"/>
        <pt x="262" y="520" on="1"/>
        <pt x="242" y="520" on="0"/>
        <pt x="229" y="517" on="1"/>
        <pt x="176" y="231" on="1"/>
        <pt x="185" y="230" on="0"/>
        <pt x="204" y="228" on="0"/>
        <pt x="215" y="228" on="1"/>
        <pt x="252" y="228" on="0"/>
        <pt x="312" y="255" on="0"/>
        <pt x="353" y="302" on="0"/>
        <pt x="375" y="365" on="0"/>
      </contour>
    </TTGlyph>
    <TTGlyph name="U" xMin="55" yMin="-11" xMax="597" yMax="733">
      <contour>
        <pt x="505" y="226" on="1"/>
        <pt x="484" y="106" on="0"/>
        <pt x="356" y="-11" on="0"/>
        <pt x="255" y="-11" on="1"/>
        <pt x="211" y="-11" on="0"/>
        <pt x="137" y="13" on="0"/>
        <pt x="84" y="60" on="0"/>
        <pt x="55" y="129" on="0"/>
        <pt x="55" y="175" on="1"/>
        <pt x="55" y="189" on="0"/>
        <pt x="58" y="226" on="0"/>
        <pt x="61" y="243" on="1"/>
        <pt x="151" y="733" on="1"/>
        <pt x="264" y="733" on="1"/>
        <pt x="173" y="238" on="1"/>
        <pt x="171" y="227" on="0"/>
        <pt x="168" y="199" on="0"/>
        <pt x="168" y="187" on="1"/>
        <pt x="168" y="142" on="0"/>
        <pt x="217" y="90" on="0"/>
        <pt x="266" y="90" on="1"/>
        <pt x="317" y="90" on="0"/>
        <pt x="378" y="158" on="0"/>
        <pt x="392" y="230" on="1"/>
        <pt x="484" y="733" on="1"/>
        <pt x="597" y="733" on="1"/>
      </contour>
    </TTGlyph>
    <TTGlyph name="Uacute" xMin="55" yMin="-11" xMax="597" yMax="953">
      <component glyphName="acute" x="172" y="290" flags="0x4"/>
      <component glyphName="U" x="0" y="0" flags="0x4"/>
    </TTGlyph>
    <TTGlyph name="Ubreve" xMin="55" yMin="-11" xMax="597" yMax="924">
      <component glyphName="U" x="0" y="0" flags="0x204"/>
      <component glyphName="breve" x="119" y="290" flags="0x4"/>
    </TTGlyph>
    <TTGlyph name="Ucircumflex" xMin="55" yMin="-11" xMax="597" yMax="944">
      <component glyphName="circumflex" x="112" y="290" flags="0x4"/>
      <component glyphName="U" x="0" y="0" flags="0x4"/>
    </TTGlyph>
    <TTGlyph name="Udieresis" xMin="55" yMin="-11" xMax="597" yMax="901">
      <component glyphName="dieresis" x="118" y="290" flags="0x4"/>
      <component glyphName="U" x="0" y="0" flags="0x4"/>
    </TTGlyph>
    <TTGlyph name="Ugrave" xMin="55" yMin="-11" xMax="597" yMax="957">
      <component glyphName="U" x="0" y="0" flags="0x204"/>
      <component glyphName="grave" x="62" y="290" flags="0x4"/>
    </TTGlyph>
    <TTGlyph name="Uhungarumlaut" xMin="55" yMin="-11" xMax="606" yMax="987">
      <component glyphName="U" x="0" y="0" flags="0x204"/>
      <component glyphName="hungarumlaut" x="157" y="290" flags="0x4"/>
    </TTGlyph>
    <TTGlyph name="Umacron" xMin="55" yMin="-11" xMax="597" yMax="872">
      <component glyphName="U" x="0" y="0" flags="0x204"/>
      <component glyphName="macron" x="118" y="290" flags="0x4"/>
    </TTGlyph>
    <TTGlyph name="Uogonek" xMin="55" yMin="-205" xMax="597" yMax="733">
      <contour>
        <pt x="505" y="226" on="1"/>
        <pt x="485" y="113" on="0"/>
        <pt x="370" y="-3" on="0"/>
        <pt x="279" y="-10" on="1"/>
        <pt x="256" y="-33" on="0"/>
        <pt x="216" y="-86" on="0"/>
        <pt x="216" y="-113" on="1"/>
        <pt x="216" y="-141" on="0"/>
        <pt x="243" y="-141" on="1"/>
        <pt x="253" y="-141" on="0"/>
        <pt x="274" y="-132" on="0"/>
        <pt x="285" y="-124" on="1"/>
        <pt x="302" y="-168" on="1"/>
        <pt x="282" y="-185" on="0"/>
        <pt x="238" y="-205" on="0"/>
        <pt x="209" y="-205" on="1"/>
        <pt x="176" y="-205" on="0"/>
        <pt x="140" y="-169" on="0"/>
        <pt x="140" y="-140" on="1"/>
        <pt x="140" y="-103" on="0"/>
        <pt x="181" y="-39" on="0"/>
        <pt x="213" y="-8" on="1"/>
        <pt x="141" y="3" on="0"/>
        <pt x="55" y="94" on="0"/>
        <pt x="55" y="175" on="1"/>
        <pt x="55" y="189" on="0"/>
        <pt x="58" y="226" on="0"/>
        <pt x="61" y="243" on="1"/>
        <pt x="151" y="733" on="1"/>
        <pt x="264" y="733" on="1"/>
        <pt x="173" y="238" on="1"/>
        <pt x="171" y="227" on="0"/>
        <pt x="168" y="199" on="0"/>
        <pt x="168" y="187" on="1"/>
        <pt x="168" y="142" on="0"/>
        <pt x="217" y="90" on="0"/>
        <pt x="266" y="90" on="1"/>
        <pt x="317" y="90" on="0"/>
        <pt x="378" y="158" on="0"/>
        <pt x="392" y="230" on="1"/>
        <pt x="484" y="733" on="1"/>
        <pt x="597" y="733" on="1"/>
      </contour>
    </TTGlyph>
    <TTGlyph name="Uring" xMin="55" yMin="-11" xMax="597" yMax="990">
      <component glyphName="ring" x="118" y="290" flags="0x4"/>
      <component glyphName="U" x="0" y="0" flags="0x4"/>
    </TTGlyph>
    <TTGlyph name="V" xMin="99" yMin="-8" xMax="615" yMax="733">
      <contour>
        <pt x="242" y="-8" on="1"/>
        <pt x="190" y="-8" on="1"/>
        <pt x="99" y="733" on="1"/>
        <pt x="217" y="733" on="1"/>
        <pt x="264" y="236" on="1"/>
        <pt x="493" y="733" on="1"/>
        <pt x="615" y="733" on="1"/>
      </contour>
    </TTGlyph>
    <TTGlyph name="W" xMin="103" yMin="-7" xMax="828" yMax="736">
      <contour>
        <pt x="524" y="-6" on="1"/>
        <pt x="480" y="-7" on="1"/>
        <pt x="416" y="478" on="1"/>
        <pt x="169" y="-7" on="1"/>
        <pt x="125" y="-6" on="1"/>
        <pt x="103" y="733" on="1"/>
        <pt x="222" y="733" on="1"/>
        <pt x="220" y="273" on="1"/>
        <pt x="444" y="736" on="1"/>
        <pt x="482" y="736" on="1"/>
        <pt x="536" y="273" on="1"/>
        <pt x="707" y="733" on="1"/>
        <pt x="828" y="733" on="1"/>
      </contour>
    </TTGlyph>
    <TTGlyph name="Wacute" xMin="103" yMin="-7" xMax="828" yMax="956">
      <component glyphName="acute" x="262" y="293" flags="0x4"/>
      <component glyphName="W" x="0" y="0" flags="0x4"/>
    </TTGlyph>
    <TTGlyph name="Wcircumflex" xMin="103" yMin="-7" xMax="828" yMax="947">
      <component glyphName="circumflex" x="203" y="293" flags="0x4"/>
      <component glyphName="W" x="0" y="0" flags="0x4"/>
    </TTGlyph>
    <TTGlyph name="Wdieresis" xMin="103" yMin="-7" xMax="828" yMax="904">
      <component glyphName="dieresis" x="209" y="293" flags="0x4"/>
      <component glyphName="W" x="0" y="0" flags="0x4"/>
    </TTGlyph>
    <TTGlyph name="Wgrave" xMin="103" yMin="-7" xMax="828" yMax="960">
      <component glyphName="W" x="0" y="0" flags="0x204"/>
      <component glyphName="grave" x="153" y="293" flags="0x4"/>
    </TTGlyph>
    <TTGlyph name="X" xMin="-33" yMin="0" xMax="600" yMax="733">
      <contour>
        <pt x="352" y="365" on="1"/>
        <pt x="468" y="0" on="1"/>
        <pt x="347" y="0" on="1"/>
        <pt x="269" y="273" on="1"/>
        <pt x="93" y="0" on="1"/>
        <pt x="-33" y="0" on="1"/>
        <pt x="221" y="372" on="1"/>
        <pt x="106" y="733" on="1"/>
        <pt x="225" y="733" on="1"/>
        <pt x="303" y="466" on="1"/>
        <pt x="474" y="733" on="1"/>
        <pt x="600" y="733" on="1"/>
      </contour>
    </TTGlyph>
    <TTGlyph name="Y" xMin="93" yMin="0" xMax="587" yMax="733">
      <contour>
        <pt x="315" y="286" on="1"/>
        <pt x="262" y="0" on="1"/>
        <pt x="149" y="0" on="1"/>
        <pt x="202" y="287" on="1"/>
        <pt x="93" y="733" on="1"/>
        <pt x="209" y="733" on="1"/>
        <pt x="281" y="410" on="1"/>
        <pt x="463" y="733" on="1"/>
        <pt x="587" y="733" on="1"/>
      </contour>
    </TTGlyph>
    <TTGlyph name="Yacute" xMin="93" yMin="0" xMax="587" yMax="953">
      <component glyphName="Y" x="0" y="0" flags="0x204"/>
      <component glyphName="acute" x="141" y="290" flags="0x4"/>
    </TTGlyph>
    <TTGlyph name="Ycircumflex" xMin="93" yMin="0" xMax="587" yMax="944">
      <component glyphName="Y" x="0" y="0" flags="0x204"/>
      <component glyphName="circumflex" x="81" y="290" flags="0x4"/>
    </TTGlyph>
    <TTGlyph name="Ydieresis" xMin="93" yMin="0" xMax="587" yMax="901">
      <component glyphName="Y" x="0" y="0" flags="0x204"/>
      <component glyphName="dieresis" x="87" y="290" flags="0x4"/>
    </TTGlyph>
    <TTGlyph name="Ygrave" xMin="93" yMin="0" xMax="587" yMax="957">
      <component glyphName="Y" x="0" y="0" flags="0x204"/>
      <component glyphName="grave" x="31" y="290" flags="0x4"/>
    </TTGlyph>
    <TTGlyph name="Z" xMin="-21" yMin="0" xMax="554" yMax="733">
      <contour>
        <pt x="159" y="104" on="1"/>
        <pt x="432" y="104" on="1"/>
        <pt x="412" y="0" on="1"/>
        <pt x="-17" y="0" on="1"/>
        <pt x="-21" y="15" on="1"/>
        <pt x="376" y="628" on="1"/>
        <pt x="114" y="628" on="1"/>
        <pt x="133" y="733" on="1"/>
        <pt x="551" y="733" on="1"/>
        <pt x="554" y="717" on="1"/>
      </contour>
    </TTGlyph>
    <TTGlyph name="Zacute" xMin="-21" yMin="0" xMax="554" yMax="956">
      <component glyphName="acute" x="134" y="293" flags="0x4"/>
      <component glyphName="Z" x="0" y="0" flags="0x4"/>
    </TTGlyph>
    <TTGlyph name="Zcaron" xMin="-21" yMin="0" xMax="554" yMax="943">
      <component glyphName="caron" x="82" y="293" flags="0x4"/>
      <component glyphName="Z" x="0" y="0" flags="0x4"/>
    </TTGlyph>
    <TTGlyph name="Zdotaccent" xMin="-21" yMin="0" xMax="554" yMax="904">
      <component glyphName="Z" x="0" y="0" flags="0x204"/>
      <component glyphName="dotaccent" x="85" y="293" flags="0x4"/>
    </TTGlyph>
    <TTGlyph name="a" xMin="4" yMin="-8" xMax="360" yMax="455">
      <contour>
        <pt x="360" y="334" on="1"/>
        <pt x="360" y="323" on="0"/>
        <pt x="356" y="294" on="0"/>
        <pt x="354" y="281" on="1"/>
        <pt x="303" y="0" on="1"/>
        <pt x="205" y="0" on="1"/>
        <pt x="213" y="43" on="1"/>
        <pt x="193" y="22" on="0"/>
        <pt x="143" y="-8" on="0"/>
        <pt x="110" y="-8" on="1"/>
        <pt x="66" y="-8" on="0"/>
        <pt x="4" y="54" on="0"/>
        <pt x="4" y="112" on="1"/>
        <pt x="4" y="145" on="0"/>
        <pt x="25" y="205" on="0"/>
        <pt x="64" y="250" on="0"/>
        <pt x="119" y="277" on="0"/>
        <pt x="153" y="277" on="1"/>
        <pt x="183" y="277" on="0"/>
        <pt x="229" y="257" on="0"/>
        <pt x="246" y="243" on="1"/>
        <pt x="253" y="280" on="1"/>
        <pt x="254" y="285" on="0"/>
        <pt x="256" y="304" on="0"/>
        <pt x="256" y="311" on="1"/>
        <pt x="256" y="338" on="0"/>
        <pt x="219" y="368" on="0"/>
        <pt x="187" y="368" on="1"/>
        <pt x="167" y="368" on="0"/>
        <pt x="121" y="357" on="0"/>
        <pt x="100" y="349" on="1"/>
        <pt x="95" y="431" on="1"/>
        <pt x="119" y="439" on="0"/>
        <pt x="186" y="455" on="0"/>
        <pt x="218" y="455" on="1"/>
        <pt x="280" y="455" on="0"/>
        <pt x="359" y="398" on="0"/>
      </contour>
      <contour>
        <pt x="235" y="182" on="1"/>
        <pt x="224" y="194" on="0"/>
        <pt x="192" y="210" on="0"/>
        <pt x="172" y="210" on="1"/>
        <pt x="142" y="210" on="0"/>
        <pt x="103" y="160" on="0"/>
        <pt x="103" y="123" on="1"/>
        <pt x="103" y="97" on="0"/>
        <pt x="129" y="66" on="0"/>
        <pt x="154" y="66" on="1"/>
        <pt x="173" y="66" on="0"/>
        <pt x="205" y="84" on="0"/>
        <pt x="219" y="98" on="1"/>
      </contour>
    </TTGlyph>
    <TTGlyph name="aacute" xMin="4" yMin="-8" xMax="405" yMax="664">
      <component glyphName="a" x="0" y="0" flags="0x204"/>
      <component glyphName="acute" x="35" y="1" flags="0x4"/>
    </TTGlyph>
    <TTGlyph name="abreve" xMin="4" yMin="-8" xMax="405" yMax="635">
      <component glyphName="a" x="0" y="0" flags="0x204"/>
      <component glyphName="breve" x="-15" y="1" flags="0x4"/>
    </TTGlyph>
    <TTGlyph name="acircumflex" xMin="4" yMin="-8" xMax="388" yMax="655">
      <component glyphName="a" x="0" y="0" flags="0x204"/>
      <component glyphName="circumflex" x="-23" y="1" flags="0x4"/>
    </TTGlyph>
    <TTGlyph name="acute" xMin="164" yMin="492" xMax="370" yMax="663">
      <contour>
        <pt x="191" y="492" on="1"/>
        <pt x="164" y="539" on="1"/>
        <pt x="325" y="663" on="1"/>
        <pt x="370" y="580" on="1"/>
      </contour>
    </TTGlyph>
    <TTGlyph name="adieresis" xMin="4" yMin="-8" xMax="392" yMax="612">
      <component glyphName="a" x="0" y="0" flags="0x204"/>
      <component glyphName="dieresis" x="-17" y="1" flags="0x4"/>
    </TTGlyph>
    <TTGlyph name="ae" xMin="5" yMin="-10" xMax="590" yMax="455">
      <contour>
        <pt x="125" y="-9" on="1"/>
        <pt x="74" y="-9" on="0"/>
        <pt x="5" y="55" on="0"/>
        <pt x="5" y="114" on="1"/>
        <pt x="5" y="147" on="0"/>
        <pt x="26" y="206" on="0"/>
        <pt x="65" y="251" on="0"/>
        <pt x="119" y="277" on="0"/>
        <pt x="153" y="277" on="1"/>
        <pt x="183" y="277" on="0"/>
        <pt x="229" y="257" on="0"/>
        <pt x="246" y="243" on="1"/>
        <pt x="253" y="281" on="1"/>
        <pt x="255" y="287" on="0"/>
        <pt x="256" y="305" on="0"/>
        <pt x="256" y="310" on="1"/>
        <pt x="256" y="339" on="0"/>
        <pt x="219" y="368" on="0"/>
        <pt x="187" y="368" on="1"/>
        <pt x="167" y="368" on="0"/>
        <pt x="121" y="357" on="0"/>
        <pt x="101" y="349" on="1"/>
        <pt x="95" y="431" on="1"/>
        <pt x="119" y="439" on="0"/>
        <pt x="186" y="455" on="0"/>
        <pt x="218" y="455" on="1"/>
        <pt x="259" y="455" on="0"/>
        <pt x="315" y="427" on="0"/>
        <pt x="328" y="394" on="1"/>
        <pt x="353" y="423" on="0"/>
        <pt x="416" y="455" on="0"/>
        <pt x="453" y="455" on="1"/>
        <pt x="522" y="455" on="0"/>
        <pt x="590" y="366" on="0"/>
        <pt x="590" y="295" on="1"/>
        <pt x="590" y="273" on="0"/>
        <pt x="581" y="218" on="0"/>
        <pt x="573" y="192" on="1"/>
        <pt x="333" y="192" on="1"/>
        <pt x="333" y="168" on="1"/>
        <pt x="334" y="122" on="0"/>
        <pt x="382" y="75" on="0"/>
        <pt x="424" y="75" on="1"/>
        <pt x="447" y="75" on="0"/>
        <pt x="491" y="87" on="0"/>
        <pt x="512" y="95" on="1"/>
        <pt x="522" y="16" on="1"/>
        <pt x="494" y="3" on="0"/>
        <pt x="439" y="-10" on="0"/>
        <pt x="406" y="-10" on="1"/>
        <pt x="357" y="-10" on="0"/>
        <pt x="283" y="32" on="0"/>
        <pt x="266" y="74" on="1"/>
        <pt x="255" y="59" on="0"/>
        <pt x="227" y="29" on="0"/>
        <pt x="193" y="6" on="0"/>
        <pt x="150" y="-9" on="0"/>
      </contour>
      <contour>
        <pt x="152" y="67" on="1"/>
        <pt x="179" y="67" on="0"/>
        <pt x="230" y="125" on="0"/>
        <pt x="241" y="176" on="1"/>
        <pt x="230" y="191" on="0"/>
        <pt x="193" y="210" on="0"/>
        <pt x="173" y="210" on="1"/>
        <pt x="142" y="210" on="0"/>
        <pt x="103" y="160" on="0"/>
        <pt x="103" y="124" on="1"/>
        <pt x="103" y="98" on="0"/>
        <pt x="129" y="67" on="0"/>
      </contour>
      <contour>
        <pt x="493" y="258" on="1"/>
        <pt x="495" y="268" on="0"/>
        <pt x="498" y="294" on="0"/>
        <pt x="498" y="304" on="1"/>
        <pt x="498" y="331" on="0"/>
        <pt x="473" y="371" on="0"/>
        <pt x="444" y="371" on="1"/>
        <pt x="410" y="371" on="0"/>
        <pt x="358" y="304" on="0"/>
        <pt x="345" y="258" on="1"/>
      </contour>
    </TTGlyph>
    <TTGlyph name="aeacute" xMin="5" yMin="-10" xMax="590" yMax="663">
      <component glyphName="acute" x="137" y="0" flags="0x4"/>
      <component glyphName="ae" x="0" y="0" flags="0x4"/>
    </TTGlyph>
    <TTGlyph name="agrave" xMin="4" yMin="-8" xMax="360" yMax="668">
      <component glyphName="a" x="0" y="0" flags="0x204"/>
      <component glyphName="grave" x="-73" y="1" flags="0x4"/>
    </TTGlyph>
    <TTGlyph name="amacron" xMin="4" yMin="-8" xMax="387" yMax="583">
      <component glyphName="a" x="0" y="0" flags="0x204"/>
      <component glyphName="macron" x="-17" y="1" flags="0x4"/>
    </TTGlyph>
    <TTGlyph name="ampersand" xMin="19" yMin="-15" xMax="514" yMax="676">
      <contour>
        <pt x="514" y="276" on="1"/>
        <pt x="488" y="232" on="0"/>
        <pt x="435" y="157" on="0"/>
        <pt x="408" y="125" on="1"/>
        <pt x="425" y="99" on="0"/>
        <pt x="456" y="56" on="0"/>
        <pt x="470" y="40" on="1"/>
        <pt x="387" y="-15" on="1"/>
        <pt x="382" y="-10" on="0"/>
        <pt x="369" y="8" on="0"/>
        <pt x="354" y="28" on="0"/>
        <pt x="341" y="47" on="0"/>
        <pt x="336" y="53" on="1"/>
        <pt x="298" y="22" on="0"/>
        <pt x="221" y="-11" on="0"/>
        <pt x="180" y="-11" on="1"/>
        <pt x="144" y="-11" on="0"/>
        <pt x="84" y="12" on="0"/>
        <pt x="42" y="54" on="0"/>
        <pt x="19" y="113" on="0"/>
        <pt x="19" y="148" on="1"/>
        <pt x="19" y="211" on="0"/>
        <pt x="93" y="323" on="0"/>
        <pt x="175" y="363" on="1"/>
        <pt x="167" y="391" on="0"/>
        <pt x="157" y="446" on="0"/>
        <pt x="157" y="474" on="1"/>
        <pt x="157" y="513" on="0"/>
        <pt x="181" y="585" on="0"/>
        <pt x="226" y="642" on="0"/>
        <pt x="290" y="676" on="0"/>
        <pt x="331" y="676" on="1"/>
        <pt x="363" y="676" on="0"/>
        <pt x="413" y="654" on="0"/>
        <pt x="448" y="617" on="0"/>
        <pt x="466" y="568" on="0"/>
        <pt x="466" y="542" on="1"/>
        <pt x="466" y="468" on="0"/>
        <pt x="373" y="358" on="0"/>
        <pt x="295" y="324" on="1"/>
        <pt x="309" y="293" on="0"/>
        <pt x="341" y="230" on="0"/>
        <pt x="360" y="199" on="1"/>
        <pt x="383" y="230" on="0"/>
        <pt x="427" y="296" on="0"/>
        <pt x="447" y="328" on="1"/>
      </contour>
      <contour>
        <pt x="289" y="124" on="1"/>
        <pt x="265" y="162" on="0"/>
        <pt x="221" y="244" on="0"/>
        <pt x="204" y="286" on="1"/>
        <pt x="168" y="266" on="0"/>
        <pt x="125" y="204" on="0"/>
        <pt x="125" y="162" on="1"/>
        <pt x="125" y="129" on="0"/>
        <pt x="162" y="81" on="0"/>
        <pt x="200" y="81" on="1"/>
        <pt x="241" y="81" on="0"/>
      </contour>
      <contour>
        <pt x="370" y="533" on="1"/>
        <pt x="370" y="559" on="0"/>
        <pt x="347" y="590" on="0"/>
        <pt x="325" y="590" on="1"/>
        <pt x="308" y="590" on="0"/>
        <pt x="283" y="570" on="0"/>
        <pt x="265" y="537" on="0"/>
        <pt x="256" y="495" on="0"/>
        <pt x="256" y="473" on="1"/>
        <pt x="256" y="435" on="0"/>
        <pt x="269" y="395" on="1"/>
        <pt x="370" y="447" on="0"/>
      </contour>
    </TTGlyph>
    <TTGlyph name="ampersand.cap" xMin="16" yMin="-14" xMax="568" yMax="737">
      <contour>
        <pt x="568" y="298" on="1"/>
        <pt x="539" y="251" on="0"/>
        <pt x="478" y="168" on="0"/>
        <pt x="448" y="133" on="1"/>
        <pt x="467" y="106" on="0"/>
        <pt x="501" y="61" on="0"/>
        <pt x="515" y="45" on="1"/>
        <pt x="427" y="-14" on="1"/>
        <pt x="421" y="-8" on="0"/>
        <pt x="406" y="11" on="0"/>
        <pt x="390" y="32" on="0"/>
        <pt x="374" y="53" on="0"/>
        <pt x="368" y="61" on="1"/>
        <pt x="323" y="26" on="0"/>
        <pt x="238" y="-10" on="0"/>
        <pt x="193" y="-10" on="1"/>
        <pt x="153" y="-10" on="0"/>
        <pt x="88" y="15" on="0"/>
        <pt x="41" y="61" on="0"/>
        <pt x="16" y="125" on="0"/>
        <pt x="16" y="164" on="1"/>
        <pt x="16" y="235" on="0"/>
        <pt x="98" y="354" on="0"/>
        <pt x="189" y="395" on="1"/>
        <pt x="180" y="426" on="0"/>
        <pt x="169" y="485" on="0"/>
        <pt x="169" y="517" on="1"/>
        <pt x="169" y="559" on="0"/>
        <pt x="195" y="638" on="0"/>
        <pt x="245" y="700" on="0"/>
        <pt x="315" y="737" on="0"/>
        <pt x="360" y="737" on="1"/>
        <pt x="396" y="737" on="0"/>
        <pt x="452" y="713" on="0"/>
        <pt x="491" y="672" on="0"/>
        <pt x="511" y="618" on="0"/>
        <pt x="511" y="589" on="1"/>
        <pt x="511" y="548" on="0"/>
        <pt x="483" y="478" on="0"/>
        <pt x="433" y="418" on="0"/>
        <pt x="362" y="370" on="0"/>
        <pt x="319" y="352" on="1"/>
        <pt x="333" y="317" on="0"/>
        <pt x="373" y="246" on="0"/>
        <pt x="393" y="213" on="1"/>
        <pt x="421" y="247" on="0"/>
        <pt x="473" y="321" on="0"/>
        <pt x="495" y="355" on="1"/>
      </contour>
      <contour>
        <pt x="316" y="134" on="1"/>
        <pt x="290" y="175" on="0"/>
        <pt x="240" y="266" on="0"/>
        <pt x="220" y="313" on="1"/>
        <pt x="179" y="293" on="0"/>
        <pt x="130" y="223" on="0"/>
        <pt x="130" y="178" on="1"/>
        <pt x="130" y="142" on="0"/>
        <pt x="171" y="87" on="0"/>
        <pt x="214" y="87" on="1"/>
        <pt x="239" y="87" on="0"/>
        <pt x="290" y="111" on="0"/>
      </contour>
      <contour>
        <pt x="289" y="429" on="1"/>
        <pt x="349" y="456" on="0"/>
        <pt x="409" y="534" on="0"/>
        <pt x="409" y="580" on="1"/>
        <pt x="409" y="610" on="0"/>
        <pt x="380" y="647" on="0"/>
        <pt x="355" y="647" on="1"/>
        <pt x="335" y="647" on="0"/>
        <pt x="305" y="624" on="0"/>
        <pt x="285" y="587" on="0"/>
        <pt x="274" y="540" on="0"/>
        <pt x="274" y="516" on="1"/>
        <pt x="274" y="493" on="0"/>
        <pt x="282" y="450" on="0"/>
      </contour>
    </TTGlyph>
    <TTGlyph name="aogonek" xMin="4" yMin="-205" xMax="360" yMax="455">
      <contour>
        <pt x="283" y="-168" on="1"/>
        <pt x="263" y="-185" on="0"/>
        <pt x="219" y="-205" on="0"/>
        <pt x="190" y="-205" on="1"/>
        <pt x="157" y="-205" on="0"/>
        <pt x="121" y="-169" on="0"/>
        <pt x="121" y="-140" on="1"/>
        <pt x="121" y="-100" on="0"/>
        <pt x="168" y="-30" on="0"/>
        <pt x="205" y="2" on="1"/>
        <pt x="213" y="43" on="1"/>
        <pt x="193" y="22" on="0"/>
        <pt x="143" y="-8" on="0"/>
        <pt x="110" y="-8" on="1"/>
        <pt x="66" y="-8" on="0"/>
        <pt x="4" y="54" on="0"/>
        <pt x="4" y="112" on="1"/>
        <pt x="4" y="145" on="0"/>
        <pt x="25" y="205" on="0"/>
        <pt x="64" y="250" on="0"/>
        <pt x="119" y="277" on="0"/>
        <pt x="153" y="277" on="1"/>
        <pt x="183" y="277" on="0"/>
        <pt x="229" y="257" on="0"/>
        <pt x="246" y="243" on="1"/>
        <pt x="253" y="280" on="1"/>
        <pt x="254" y="285" on="0"/>
        <pt x="256" y="304" on="0"/>
        <pt x="256" y="311" on="1"/>
        <pt x="256" y="338" on="0"/>
        <pt x="219" y="368" on="0"/>
        <pt x="187" y="368" on="1"/>
        <pt x="167" y="368" on="0"/>
        <pt x="121" y="357" on="0"/>
        <pt x="100" y="349" on="1"/>
        <pt x="95" y="431" on="1"/>
        <pt x="119" y="439" on="0"/>
        <pt x="186" y="455" on="0"/>
        <pt x="218" y="455" on="1"/>
        <pt x="280" y="455" on="0"/>
        <pt x="359" y="398" on="0"/>
        <pt x="360" y="334" on="1"/>
        <pt x="360" y="323" on="0"/>
        <pt x="356" y="294" on="0"/>
        <pt x="354" y="281" on="1"/>
        <pt x="303" y="0" on="1"/>
        <pt x="270" y="0" on="1"/>
        <pt x="258" y="-12" on="0"/>
        <pt x="232" y="-39" on="0"/>
        <pt x="211" y="-68" on="0"/>
        <pt x="197" y="-98" on="0"/>
        <pt x="197" y="-113" on="1"/>
        <pt x="197" y="-141" on="0"/>
        <pt x="224" y="-141" on="1"/>
        <pt x="234" y="-141" on="0"/>
        <pt x="255" y="-132" on="0"/>
        <pt x="266" y="-124" on="1"/>
      </contour>
      <contour>
        <pt x="235" y="182" on="1"/>
        <pt x="224" y="194" on="0"/>
        <pt x="192" y="210" on="0"/>
        <pt x="172" y="210" on="1"/>
        <pt x="142" y="210" on="0"/>
        <pt x="103" y="160" on="0"/>
        <pt x="103" y="123" on="1"/>
        <pt x="103" y="97" on="0"/>
        <pt x="129" y="66" on="0"/>
        <pt x="154" y="66" on="1"/>
        <pt x="173" y="66" on="0"/>
        <pt x="205" y="84" on="0"/>
        <pt x="219" y="98" on="1"/>
      </contour>
    </TTGlyph>
    <TTGlyph name="aring" xMin="4" yMin="-8" xMax="372" yMax="701">
      <component glyphName="a" x="0" y="0" flags="0x204"/>
      <component glyphName="ring" x="-16" y="1" flags="0x4"/>
    </TTGlyph>
    <TTGlyph name="aringacute" xMin="4" yMin="-8" xMax="455" yMax="908">
      <component glyphName="a" x="0" y="0" flags="0x204"/>
      <component glyphName="acute" x="85" y="245" flags="0x4"/>
      <component glyphName="ring" x="-17" y="0" flags="0x4"/>
    </TTGlyph>
    <TTGlyph name="arrowleft" xMin="30" yMin="29" xMax="521" yMax="487">
      <contour>
        <pt x="159" y="214" on="1"/>
        <pt x="249" y="83" on="1"/>
        <pt x="178" y="29" on="1"/>
        <pt x="30" y="251" on="1"/>
        <pt x="33" y="265" on="1"/>
        <pt x="263" y="487" on="1"/>
        <pt x="322" y="425" on="1"/>
        <pt x="188" y="302" on="1"/>
        <pt x="521" y="302" on="1"/>
        <pt x="504" y="214" on="1"/>
      </contour>
    </TTGlyph>
    <TTGlyph name="arrowleft.cap" xMin="50" yMin="142" xMax="541" yMax="600">
      <component glyphName="arrowleft" x="20" y="113" flags="0x204"/>
    </TTGlyph>
    <TTGlyph name="arrowright" xMin="38" yMin="29" xMax="529" yMax="487">
      <contour>
        <pt x="400" y="302" on="1"/>
        <pt x="309" y="433" on="1"/>
        <pt x="380" y="487" on="1"/>
        <pt x="529" y="265" on="1"/>
        <pt x="526" y="251" on="1"/>
        <pt x="295" y="29" on="1"/>
        <pt x="237" y="90" on="1"/>
        <pt x="371" y="214" on="1"/>
        <pt x="38" y="214" on="1"/>
        <pt x="54" y="302" on="1"/>
      </contour>
    </TTGlyph>
    <TTGlyph name="arrowright.cap" xMin="58" yMin="142" xMax="549" yMax="600">
      <component glyphName="arrowright" x="20" y="113" flags="0x204"/>
    </TTGlyph>
    <TTGlyph name="asciicircum" xMin="124" yMin="533" xMax="422" yMax="695">
      <contour>
        <pt x="332" y="533" on="1"/>
        <pt x="290" y="614" on="1"/>
        <pt x="219" y="533" on="1"/>
        <pt x="124" y="533" on="1"/>
        <pt x="280" y="695" on="1"/>
        <pt x="328" y="695" on="1"/>
        <pt x="422" y="533" on="1"/>
      </contour>
    </TTGlyph>
    <TTGlyph name="asciitilde" xMin="77" yMin="243" xMax="386" yMax="359">
      <contour>
        <pt x="386" y="297" on="1"/>
        <pt x="363" y="272" on="0"/>
        <pt x="308" y="243" on="0"/>
        <pt x="282" y="243" on="1"/>
        <pt x="264" y="243" on="0"/>
        <pt x="236" y="254" on="0"/>
        <pt x="221" y="262" on="1"/>
        <pt x="205" y="270" on="0"/>
        <pt x="182" y="278" on="0"/>
        <pt x="169" y="278" on="1"/>
        <pt x="152" y="278" on="0"/>
        <pt x="122" y="261" on="0"/>
        <pt x="105" y="244" on="1"/>
        <pt x="77" y="303" on="1"/>
        <pt x="101" y="329" on="0"/>
        <pt x="154" y="357" on="0"/>
        <pt x="180" y="357" on="1"/>
        <pt x="197" y="357" on="0"/>
        <pt x="225" y="347" on="0"/>
        <pt x="239" y="339" on="1"/>
        <pt x="255" y="331" on="0"/>
        <pt x="279" y="322" on="0"/>
        <pt x="292" y="322" on="1"/>
        <pt x="309" y="322" on="0"/>
        <pt x="338" y="340" on="0"/>
        <pt x="356" y="359" on="1"/>
      </contour>
    </TTGlyph>
    <TTGlyph name="asterisk" xMin="93" yMin="481" xMax="347" yMax="733">
      <contour>
        <pt x="258" y="587" on="1"/>
        <pt x="302" y="511" on="1"/>
        <pt x="242" y="481" on="1"/>
        <pt x="210" y="562" on="1"/>
        <pt x="150" y="495" on="1"/>
        <pt x="105" y="538" on="1"/>
        <pt x="174" y="598" on="1"/>
        <pt x="93" y="632" on="1"/>
        <pt x="125" y="688" on="1"/>
        <pt x="199" y="644" on="1"/>
        <pt x="209" y="733" on="1"/>
        <pt x="274" y="725" on="1"/>
        <pt x="251" y="638" on="1"/>
        <pt x="338" y="659" on="1"/>
        <pt x="347" y="596" on="1"/>
      </contour>
    </TTGlyph>
    <TTGlyph name="at" xMin="55" yMin="-11" xMax="570" yMax="625">
      <contour>
        <pt x="570" y="386" on="1"/>
        <pt x="570" y="344" on="0"/>
        <pt x="550" y="260" on="0"/>
        <pt x="513" y="194" on="0"/>
        <pt x="461" y="152" on="0"/>
        <pt x="430" y="152" on="1"/>
        <pt x="404" y="152" on="0"/>
        <pt x="370" y="178" on="0"/>
        <pt x="362" y="201" on="1"/>
        <pt x="346" y="183" on="0"/>
        <pt x="304" y="155" on="0"/>
        <pt x="276" y="155" on="1"/>
        <pt x="239" y="155" on="0"/>
        <pt x="194" y="198" on="0"/>
        <pt x="194" y="234" on="1"/>
        <pt x="194" y="274" on="0"/>
        <pt x="243" y="333" on="0"/>
        <pt x="286" y="333" on="1"/>
        <pt x="309" y="333" on="0"/>
        <pt x="342" y="319" on="0"/>
        <pt x="354" y="309" on="1"/>
        <pt x="357" y="321" on="0"/>
        <pt x="359" y="337" on="0"/>
        <pt x="359" y="342" on="1"/>
        <pt x="359" y="383" on="0"/>
        <pt x="304" y="383" on="1"/>
        <pt x="292" y="383" on="0"/>
        <pt x="267" y="378" on="0"/>
        <pt x="253" y="374" on="1"/>
        <pt x="253" y="431" on="1"/>
        <pt x="269" y="436" on="0"/>
        <pt x="307" y="444" on="0"/>
        <pt x="325" y="444" on="1"/>
        <pt x="373" y="444" on="0"/>
        <pt x="429" y="401" on="0"/>
        <pt x="429" y="358" on="1"/>
        <pt x="429" y="351" on="0"/>
        <pt x="427" y="330" on="0"/>
        <pt x="425" y="322" on="1"/>
        <pt x="413" y="258" on="1"/>
        <pt x="408" y="226" on="0"/>
        <pt x="423" y="200" on="0"/>
        <pt x="438" y="200" on="1"/>
        <pt x="456" y="200" on="0"/>
        <pt x="486" y="232" on="0"/>
        <pt x="508" y="284" on="0"/>
        <pt x="520" y="349" on="0"/>
        <pt x="520" y="382" on="1"/>
        <pt x="520" y="421" on="0"/>
        <pt x="500" y="492" on="0"/>
        <pt x="459" y="546" on="0"/>
        <pt x="395" y="578" on="0"/>
        <pt x="352" y="578" on="1"/>
        <pt x="299" y="578" on="0"/>
        <pt x="208" y="526" on="0"/>
        <pt x="142" y="436" on="0"/>
        <pt x="104" y="317" on="0"/>
        <pt x="104" y="251" on="1"/>
        <pt x="104" y="207" on="0"/>
        <pt x="128" y="128" on="0"/>
        <pt x="177" y="70" on="0"/>
        <pt x="250" y="36" on="0"/>
        <pt x="300" y="36" on="1"/>
        <pt x="325" y="36" on="0"/>
        <pt x="367" y="45" on="0"/>
        <pt x="390" y="52" on="1"/>
        <pt x="396" y="6" on="1"/>
        <pt x="371" y="-2" on="0"/>
        <pt x="322" y="-11" on="0"/>
        <pt x="293" y="-11" on="1"/>
        <pt x="233" y="-11" on="0"/>
        <pt x="143" y="32" on="0"/>
        <pt x="84" y="102" on="0"/>
        <pt x="55" y="194" on="0"/>
        <pt x="55" y="244" on="1"/>
        <pt x="55" y="323" on="0"/>
        <pt x="102" y="462" on="0"/>
        <pt x="183" y="566" on="0"/>
        <pt x="292" y="625" on="0"/>
        <pt x="354" y="625" on="1"/>
        <pt x="406" y="625" on="0"/>
        <pt x="487" y="588" on="0"/>
        <pt x="542" y="523" on="0"/>
        <pt x="570" y="436" on="0"/>
      </contour>
      <contour>
        <pt x="347" y="269" on="1"/>
        <pt x="339" y="277" on="0"/>
        <pt x="317" y="287" on="0"/>
        <pt x="303" y="287" on="1"/>
        <pt x="283" y="287" on="0"/>
        <pt x="261" y="261" on="0"/>
        <pt x="261" y="241" on="1"/>
        <pt x="261" y="225" on="0"/>
        <pt x="279" y="206" on="0"/>
        <pt x="295" y="206" on="1"/>
        <pt x="309" y="206" on="0"/>
        <pt x="332" y="220" on="0"/>
        <pt x="340" y="230" on="1"/>
      </contour>
    </TTGlyph>
    <TTGlyph name="at.cap" xMin="71" yMin="-11" xMax="658" yMax="744">
      <contour>
        <pt x="456" y="6" on="1"/>
        <pt x="433" y="-2" on="0"/>
        <pt x="377" y="-11" on="0"/>
        <pt x="351" y="-11" on="1"/>
        <pt x="288" y="-11" on="0"/>
        <pt x="185" y="32" on="0"/>
        <pt x="111" y="110" on="0"/>
        <pt x="71" y="220" on="0"/>
        <pt x="71" y="288" on="1"/>
        <pt x="71" y="378" on="0"/>
        <pt x="124" y="543" on="0"/>
        <pt x="217" y="669" on="0"/>
        <pt x="343" y="744" on="0"/>
        <pt x="415" y="744" on="1"/>
        <pt x="471" y="744" on="0"/>
        <pt x="561" y="703" on="0"/>
        <pt x="624" y="629" on="0"/>
        <pt x="658" y="529" on="0"/>
        <pt x="658" y="469" on="1"/>
        <pt x="658" y="421" on="0"/>
        <pt x="637" y="320" on="0"/>
        <pt x="596" y="236" on="0"/>
        <pt x="535" y="182" on="0"/>
        <pt x="495" y="182" on="1"/>
        <pt x="467" y="182" on="0"/>
        <pt x="427" y="212" on="0"/>
        <pt x="419" y="240" on="1"/>
        <pt x="402" y="217" on="0"/>
        <pt x="351" y="186" on="0"/>
        <pt x="319" y="186" on="1"/>
        <pt x="281" y="186" on="0"/>
        <pt x="228" y="231" on="0"/>
        <pt x="228" y="276" on="1"/>
        <pt x="228" y="301" on="0"/>
        <pt x="244" y="346" on="0"/>
        <pt x="272" y="378" on="0"/>
        <pt x="311" y="397" on="0"/>
        <pt x="334" y="397" on="1"/>
        <pt x="377" y="397" on="0"/>
        <pt x="412" y="370" on="1"/>
        <pt x="416" y="392" on="0"/>
        <pt x="419" y="411" on="0"/>
        <pt x="419" y="419" on="1"/>
        <pt x="419" y="444" on="0"/>
        <pt x="379" y="463" on="0"/>
        <pt x="353" y="463" on="1"/>
        <pt x="339" y="463" on="0"/>
        <pt x="310" y="457" on="0"/>
        <pt x="298" y="454" on="1"/>
        <pt x="298" y="518" on="1"/>
        <pt x="314" y="522" on="0"/>
        <pt x="355" y="530" on="0"/>
        <pt x="375" y="530" on="1"/>
        <pt x="429" y="530" on="0"/>
        <pt x="495" y="485" on="0"/>
        <pt x="495" y="437" on="1"/>
        <pt x="495" y="429" on="0"/>
        <pt x="493" y="410" on="0"/>
        <pt x="491" y="402" on="1"/>
        <pt x="473" y="303" on="1"/>
        <pt x="466" y="268" on="0"/>
        <pt x="485" y="235" on="0"/>
        <pt x="505" y="235" on="1"/>
        <pt x="528" y="235" on="0"/>
        <pt x="565" y="280" on="0"/>
        <pt x="590" y="349" on="0"/>
        <pt x="604" y="431" on="0"/>
        <pt x="604" y="467" on="1"/>
        <pt x="604" y="515" on="0"/>
        <pt x="578" y="598" on="0"/>
        <pt x="529" y="658" on="0"/>
        <pt x="456" y="693" on="0"/>
        <pt x="410" y="693" on="1"/>
        <pt x="350" y="693" on="0"/>
        <pt x="246" y="624" on="0"/>
        <pt x="169" y="512" on="0"/>
        <pt x="125" y="367" on="0"/>
        <pt x="125" y="291" on="1"/>
        <pt x="125" y="234" on="0"/>
        <pt x="158" y="142" on="0"/>
        <pt x="219" y="76" on="0"/>
        <pt x="303" y="40" on="0"/>
        <pt x="354" y="40" on="1"/>
        <pt x="380" y="40" on="0"/>
        <pt x="427" y="49" on="0"/>
        <pt x="450" y="57" on="1"/>
      </contour>
      <contour>
        <pt x="403" y="321" on="1"/>
        <pt x="394" y="332" on="0"/>
        <pt x="369" y="346" on="0"/>
        <pt x="354" y="346" on="1"/>
        <pt x="331" y="346" on="0"/>
        <pt x="304" y="310" on="0"/>
        <pt x="304" y="284" on="1"/>
        <pt x="304" y="264" on="0"/>
        <pt x="327" y="243" on="0"/>
        <pt x="344" y="243" on="1"/>
        <pt x="358" y="243" on="0"/>
        <pt x="386" y="262" on="0"/>
        <pt x="395" y="276" on="1"/>
      </contour>
    </TTGlyph>
    <TTGlyph name="atilde" xMin="4" yMin="-8" xMax="406" yMax="615">
      <component glyphName="a" x="0" y="0" flags="0x204"/>
      <component glyphName="tilde" x="-22" y="1" flags="0x4"/>
    </TTGlyph>
    <TTGlyph name="b" xMin="5" yMin="-8" xMax="403" yMax="733">
      <contour>
        <pt x="403" y="295" on="1"/>
        <pt x="403" y="236" on="0"/>
        <pt x="374" y="127" on="0"/>
        <pt x="321" y="43" on="0"/>
        <pt x="249" y="-8" on="0"/>
        <pt x="207" y="-8" on="1"/>
        <pt x="178" y="-8" on="0"/>
        <pt x="130" y="15" on="0"/>
        <pt x="111" y="35" on="1"/>
        <pt x="105" y="0" on="1"/>
        <pt x="5" y="0" on="1"/>
        <pt x="140" y="733" on="1"/>
        <pt x="243" y="733" on="1"/>
        <pt x="184" y="413" on="1"/>
        <pt x="228" y="454" on="0"/>
        <pt x="279" y="454" on="1"/>
        <pt x="333" y="454" on="0"/>
        <pt x="403" y="370" on="0"/>
      </contour>
      <contour>
        <pt x="300" y="288" on="1"/>
        <pt x="300" y="331" on="0"/>
        <pt x="265" y="369" on="0"/>
        <pt x="238" y="369" on="1"/>
        <pt x="220" y="369" on="0"/>
        <pt x="185" y="351" on="0"/>
        <pt x="171" y="339" on="1"/>
        <pt x="128" y="102" on="1"/>
        <pt x="140" y="90" on="0"/>
        <pt x="169" y="75" on="0"/>
        <pt x="188" y="75" on="1"/>
        <pt x="213" y="75" on="0"/>
        <pt x="254" y="115" on="0"/>
        <pt x="284" y="177" on="0"/>
        <pt x="300" y="252" on="0"/>
      </contour>
    </TTGlyph>
    <TTGlyph name="backslash" xMin="80" yMin="-216" xMax="233" yMax="733">
      <contour>
        <pt x="154" y="-216" on="1"/>
        <pt x="80" y="733" on="1"/>
        <pt x="159" y="733" on="1"/>
        <pt x="233" y="-216" on="1"/>
      </contour>
    </TTGlyph>
    <TTGlyph name="backslash.cap" xMin="104" yMin="-110" xMax="257" yMax="839">
      <component glyphName="backslash" x="24" y="106" flags="0x204"/>
    </TTGlyph>
    <TTGlyph name="bar" xMin="-10" yMin="-215" xMax="244" yMax="734">
      <contour>
        <pt x="-10" y="-215" on="1"/>
        <pt x="165" y="734" on="1"/>
        <pt x="244" y="734" on="1"/>
        <pt x="69" y="-215" on="1"/>
      </contour>
    </TTGlyph>
    <TTGlyph name="bar.cap" xMin="11" yMin="-110" xMax="265" yMax="839">
      <component glyphName="bar" x="21" y="105" flags="0x204"/>
    </TTGlyph>
    <TTGlyph name="braceleft" xMin="20" yMin="-223" xMax="359" yMax="740">
      <contour>
        <pt x="343" y="653" on="1"/>
        <pt x="332" y="653" on="1"/>
        <pt x="302" y="653" on="0"/>
        <pt x="261" y="624" on="0"/>
        <pt x="253" y="580" on="1"/>
        <pt x="213" y="363" on="1"/>
        <pt x="208" y="337" on="0"/>
        <pt x="193" y="302" on="0"/>
        <pt x="172" y="278" on="0"/>
        <pt x="143" y="264" on="0"/>
        <pt x="125" y="258" on="1"/>
        <pt x="152" y="245" on="0"/>
        <pt x="177" y="210" on="0"/>
        <pt x="177" y="182" on="1"/>
        <pt x="177" y="176" on="0"/>
        <pt x="174" y="153" on="0"/>
        <pt x="172" y="142" on="1"/>
        <pt x="138" y="-47" on="1"/>
        <pt x="133" y="-67" on="0"/>
        <pt x="133" y="-82" on="1"/>
        <pt x="133" y="-112" on="0"/>
        <pt x="168" y="-135" on="0"/>
        <pt x="199" y="-136" on="1"/>
        <pt x="183" y="-223" on="1"/>
        <pt x="117" y="-221" on="0"/>
        <pt x="42" y="-162" on="0"/>
        <pt x="42" y="-102" on="1"/>
        <pt x="42" y="-93" on="0"/>
        <pt x="45" y="-68" on="0"/>
        <pt x="47" y="-56" on="1"/>
        <pt x="85" y="151" on="1"/>
        <pt x="86" y="156" on="0"/>
        <pt x="88" y="171" on="0"/>
        <pt x="88" y="176" on="1"/>
        <pt x="88" y="199" on="0"/>
        <pt x="61" y="220" on="0"/>
        <pt x="37" y="220" on="1"/>
        <pt x="20" y="220" on="1"/>
        <pt x="35" y="302" on="1"/>
        <pt x="52" y="302" on="1"/>
        <pt x="81" y="302" on="0"/>
        <pt x="118" y="329" on="0"/>
        <pt x="124" y="361" on="1"/>
        <pt x="167" y="598" on="1"/>
        <pt x="175" y="640" on="0"/>
        <pt x="206" y="694" on="0"/>
        <pt x="250" y="727" on="0"/>
        <pt x="307" y="740" on="0"/>
        <pt x="341" y="740" on="1"/>
        <pt x="359" y="740" on="1"/>
      </contour>
    </TTGlyph>
    <TTGlyph name="braceleft.cap" xMin="40" yMin="-118" xMax="379" yMax="845">
      <component glyphName="braceleft" x="20" y="105" flags="0x204"/>
    </TTGlyph>
    <TTGlyph name="braceright" xMin="-76" yMin="-224" xMax="262" yMax="740">
      <contour>
        <pt x="-61" y="-136" on="1"/>
        <pt x="-57" y="-137" on="0"/>
        <pt x="-50" y="-137" on="0"/>
        <pt x="-49" y="-137" on="1"/>
        <pt x="-19" y="-137" on="0"/>
        <pt x="21" y="-107" on="0"/>
        <pt x="29" y="-63" on="1"/>
        <pt x="69" y="154" on="1"/>
        <pt x="79" y="205" on="0"/>
        <pt x="121" y="247" on="0"/>
        <pt x="157" y="259" on="1"/>
        <pt x="131" y="272" on="0"/>
        <pt x="105" y="307" on="0"/>
        <pt x="105" y="334" on="1"/>
        <pt x="105" y="341" on="0"/>
        <pt x="108" y="363" on="0"/>
        <pt x="110" y="375" on="1"/>
        <pt x="145" y="563" on="1"/>
        <pt x="147" y="573" on="0"/>
        <pt x="149" y="591" on="0"/>
        <pt x="149" y="599" on="1"/>
        <pt x="149" y="628" on="0"/>
        <pt x="114" y="651" on="0"/>
        <pt x="84" y="652" on="1"/>
        <pt x="100" y="740" on="1"/>
        <pt x="166" y="738" on="0"/>
        <pt x="240" y="678" on="0"/>
        <pt x="240" y="618" on="1"/>
        <pt x="240" y="610" on="0"/>
        <pt x="238" y="584" on="0"/>
        <pt x="236" y="573" on="1"/>
        <pt x="197" y="365" on="1"/>
        <pt x="196" y="360" on="0"/>
        <pt x="195" y="346" on="0"/>
        <pt x="195" y="341" on="1"/>
        <pt x="195" y="318" on="0"/>
        <pt x="222" y="296" on="0"/>
        <pt x="246" y="296" on="1"/>
        <pt x="262" y="296" on="1"/>
        <pt x="247" y="214" on="1"/>
        <pt x="231" y="214" on="1"/>
        <pt x="202" y="214" on="0"/>
        <pt x="165" y="188" on="0"/>
        <pt x="159" y="155" on="1"/>
        <pt x="115" y="-82" on="1"/>
        <pt x="107" y="-123" on="0"/>
        <pt x="77" y="-178" on="0"/>
        <pt x="32" y="-211" on="0"/>
        <pt x="-25" y="-224" on="0"/>
        <pt x="-58" y="-224" on="1"/>
        <pt x="-60" y="-224" on="0"/>
        <pt x="-72" y="-223" on="0"/>
        <pt x="-76" y="-223" on="1"/>
      </contour>
    </TTGlyph>
    <TTGlyph name="braceright.cap" xMin="-57" yMin="-118" xMax="281" yMax="846">
      <component glyphName="braceright" x="19" y="106" flags="0x204"/>
    </TTGlyph>
    <TTGlyph name="bracketleft" xMin="-21" yMin="-216" xMax="353" yMax="733">
      <contour>
        <pt x="338" y="651" on="1"/>
        <pt x="228" y="651" on="1"/>
        <pt x="83" y="-134" on="1"/>
        <pt x="194" y="-134" on="1"/>
        <pt x="178" y="-216" on="1"/>
        <pt x="-21" y="-216" on="1"/>
        <pt x="154" y="733" on="1"/>
        <pt x="353" y="733" on="1"/>
      </contour>
    </TTGlyph>
    <TTGlyph name="bracketleft.cap" xMin="-2" yMin="-110" xMax="372" yMax="839">
      <component glyphName="bracketleft" x="19" y="106" flags="0x204"/>
    </TTGlyph>
    <TTGlyph name="bracketright" xMin="-71" yMin="-216" xMax="302" yMax="733">
      <contour>
        <pt x="128" y="-216" on="1"/>
        <pt x="-71" y="-216" on="1"/>
        <pt x="-56" y="-134" on="1"/>
        <pt x="54" y="-134" on="1"/>
        <pt x="199" y="651" on="1"/>
        <pt x="88" y="651" on="1"/>
        <pt x="104" y="733" on="1"/>
        <pt x="302" y="733" on="1"/>
      </contour>
    </TTGlyph>
    <TTGlyph name="bracketright.cap" xMin="-52" yMin="-110" xMax="321" yMax="839">
      <component glyphName="bracketright" x="19" y="106" flags="0x4"/>
    </TTGlyph>
    <TTGlyph name="breve" xMin="148" yMin="496" xMax="420" yMax="634">
      <contour>
        <pt x="420" y="628" on="1"/>
        <pt x="411" y="571" on="0"/>
        <pt x="335" y="496" on="0"/>
        <pt x="269" y="496" on="1"/>
        <pt x="210" y="496" on="0"/>
        <pt x="148" y="557" on="0"/>
        <pt x="148" y="604" on="1"/>
        <pt x="148" y="610" on="0"/>
        <pt x="148" y="623" on="0"/>
        <pt x="150" y="628" on="1"/>
        <pt x="228" y="634" on="1"/>
        <pt x="227" y="629" on="0"/>
        <pt x="226" y="620" on="0"/>
        <pt x="226" y="615" on="1"/>
        <pt x="226" y="562" on="0"/>
        <pt x="275" y="562" on="1"/>
        <pt x="331" y="562" on="0"/>
        <pt x="343" y="634" on="1"/>
      </contour>
    </TTGlyph>
    <TTGlyph name="bullet" xMin="66" yMin="229" xMax="335" yMax="503">
      <contour>
        <pt x="335" y="371" on="1"/>
        <pt x="335" y="342" on="0"/>
        <pt x="313" y="290" on="0"/>
        <pt x="275" y="251" on="0"/>
        <pt x="224" y="229" on="0"/>
        <pt x="196" y="229" on="1"/>
        <pt x="167" y="229" on="0"/>
        <pt x="120" y="249" on="0"/>
        <pt x="85" y="285" on="0"/>
        <pt x="66" y="333" on="0"/>
        <pt x="66" y="361" on="1"/>
        <pt x="66" y="390" on="0"/>
        <pt x="88" y="442" on="0"/>
        <pt x="126" y="481" on="0"/>
        <pt x="177" y="503" on="0"/>
        <pt x="205" y="503" on="1"/>
        <pt x="234" y="503" on="0"/>
        <pt x="282" y="483" on="0"/>
        <pt x="316" y="447" on="0"/>
        <pt x="335" y="399" on="0"/>
      </contour>
    </TTGlyph>
    <TTGlyph name="c" xMin="26" yMin="-10" xMax="364" yMax="455">
      <contour>
        <pt x="318" y="340" on="1"/>
        <pt x="301" y="353" on="0"/>
        <pt x="266" y="368" on="0"/>
        <pt x="245" y="368" on="1"/>
        <pt x="219" y="368" on="0"/>
        <pt x="176" y="336" on="0"/>
        <pt x="144" y="283" on="0"/>
        <pt x="127" y="215" on="0"/>
        <pt x="127" y="179" on="1"/>
        <pt x="127" y="131" on="0"/>
        <pt x="173" y="78" on="0"/>
        <pt x="210" y="78" on="1"/>
        <pt x="244" y="78" on="0"/>
        <pt x="278" y="98" on="1"/>
        <pt x="298" y="20" on="1"/>
        <pt x="274" y="6" on="0"/>
        <pt x="219" y="-10" on="0"/>
        <pt x="189" y="-10" on="1"/>
        <pt x="115" y="-10" on="0"/>
        <pt x="26" y="89" on="0"/>
        <pt x="26" y="172" on="1"/>
        <pt x="26" y="225" on="0"/>
        <pt x="57" y="327" on="0"/>
        <pt x="115" y="406" on="0"/>
        <pt x="197" y="455" on="0"/>
        <pt x="248" y="455" on="1"/>
        <pt x="284" y="455" on="0"/>
        <pt x="342" y="433" on="0"/>
        <pt x="364" y="416" on="1"/>
      </contour>
    </TTGlyph>
    <TTGlyph name="cacute" xMin="26" yMin="-10" xMax="412" yMax="664">
      <component glyphName="acute" x="42" y="1" flags="0x4"/>
      <component glyphName="c" x="0" y="0" flags="0x4"/>
    </TTGlyph>
    <TTGlyph name="caron" xMin="147" yMin="497" xMax="436" yMax="650">
      <contour>
        <pt x="286" y="497" on="1"/>
        <pt x="239" y="497" on="1"/>
        <pt x="147" y="650" on="1"/>
        <pt x="234" y="650" on="1"/>
        <pt x="275" y="574" on="1"/>
        <pt x="344" y="650" on="1"/>
        <pt x="436" y="650" on="1"/>
      </contour>
    </TTGlyph>
    <TTGlyph name="caron.alt" xMin="24" yMin="521" xMax="180" yMax="740">
      <contour>
        <pt x="180" y="727" on="1"/>
        <pt x="160" y="594" on="0"/>
        <pt x="61" y="521" on="1"/>
        <pt x="24" y="550" on="1"/>
        <pt x="59" y="590" on="0"/>
        <pt x="92" y="683" on="0"/>
        <pt x="101" y="740" on="1"/>
      </contour>
    </TTGlyph>
    <TTGlyph name="ccaron" xMin="26" yMin="-10" xMax="428" yMax="651">
      <component glyphName="caron" x="-8" y="1" flags="0x4"/>
      <component glyphName="c" x="0" y="0" flags="0x4"/>
    </TTGlyph>
    <TTGlyph name="ccedilla" xMin="26" yMin="-217" xMax="364" yMax="455">
      <contour>
        <pt x="241" y="-124" on="1"/>
        <pt x="241" y="-163" on="0"/>
        <pt x="184" y="-217" on="0"/>
        <pt x="135" y="-217" on="1"/>
        <pt x="106" y="-217" on="0"/>
        <pt x="52" y="-199" on="0"/>
        <pt x="29" y="-183" on="1"/>
        <pt x="59" y="-131" on="1"/>
        <pt x="82" y="-146" on="0"/>
        <pt x="121" y="-159" on="0"/>
        <pt x="138" y="-159" on="1"/>
        <pt x="153" y="-159" on="0"/>
        <pt x="175" y="-143" on="0"/>
        <pt x="175" y="-129" on="1"/>
        <pt x="175" y="-116" on="0"/>
        <pt x="143" y="-93" on="0"/>
        <pt x="98" y="-91" on="1"/>
        <pt x="95" y="-83" on="1"/>
        <pt x="132" y="-1" on="1"/>
        <pt x="82" y="16" on="0"/>
        <pt x="26" y="106" on="0"/>
        <pt x="26" y="172" on="1"/>
        <pt x="26" y="225" on="0"/>
        <pt x="57" y="327" on="0"/>
        <pt x="115" y="406" on="0"/>
        <pt x="197" y="455" on="0"/>
        <pt x="248" y="455" on="1"/>
        <pt x="284" y="455" on="0"/>
        <pt x="342" y="433" on="0"/>
        <pt x="364" y="416" on="1"/>
        <pt x="318" y="340" on="1"/>
        <pt x="301" y="353" on="0"/>
        <pt x="266" y="368" on="0"/>
        <pt x="245" y="368" on="1"/>
        <pt x="219" y="368" on="0"/>
        <pt x="176" y="336" on="0"/>
        <pt x="144" y="283" on="0"/>
        <pt x="127" y="215" on="0"/>
        <pt x="127" y="179" on="1"/>
        <pt x="127" y="131" on="0"/>
        <pt x="173" y="78" on="0"/>
        <pt x="210" y="78" on="1"/>
        <pt x="244" y="78" on="0"/>
        <pt x="278" y="98" on="1"/>
        <pt x="298" y="20" on="1"/>
        <pt x="274" y="6" on="0"/>
        <pt x="219" y="-10" on="0"/>
        <pt x="189" y="-10" on="1"/>
        <pt x="180" y="-10" on="0"/>
        <pt x="175" y="-9" on="1"/>
        <pt x="160" y="-45" on="1"/>
        <pt x="202" y="-54" on="0"/>
        <pt x="241" y="-96" on="0"/>
      </contour>
    </TTGlyph>
    <TTGlyph name="cdotaccent" xMin="26" yMin="-10" xMax="364" yMax="612">
      <component glyphName="c" x="0" y="0" flags="0x204"/>
      <component glyphName="dotaccent" x="-5" y="1" flags="0x4"/>
    </TTGlyph>
    <TTGlyph name="cedilla" xMin="44" yMin="-217" xMax="256" yMax="17">
      <contour>
        <pt x="256" y="-124" on="1"/>
        <pt x="256" y="-163" on="0"/>
        <pt x="199" y="-217" on="0"/>
        <pt x="150" y="-217" on="1"/>
        <pt x="121" y="-217" on="0"/>
        <pt x="67" y="-199" on="0"/>
        <pt x="44" y="-183" on="1"/>
        <pt x="74" y="-131" on="1"/>
        <pt x="97" y="-146" on="0"/>
        <pt x="136" y="-159" on="0"/>
        <pt x="153" y="-159" on="1"/>
        <pt x="168" y="-159" on="0"/>
        <pt x="190" y="-143" on="0"/>
        <pt x="190" y="-129" on="1"/>
        <pt x="190" y="-116" on="0"/>
        <pt x="158" y="-93" on="0"/>
        <pt x="113" y="-91" on="1"/>
        <pt x="110" y="-83" on="1"/>
        <pt x="156" y="17" on="1"/>
        <pt x="197" y="6" on="1"/>
        <pt x="175" y="-45" on="1"/>
        <pt x="217" y="-54" on="0"/>
        <pt x="256" y="-96" on="0"/>
      </contour>
    </TTGlyph>
    <TTGlyph name="cent" xMin="28" yMin="-80" xMax="374" yMax="530">
      <contour>
        <pt x="308" y="447" on="1"/>
        <pt x="328" y="441" on="0"/>
        <pt x="360" y="423" on="0"/>
        <pt x="374" y="412" on="1"/>
        <pt x="327" y="337" on="1"/>
        <pt x="318" y="344" on="0"/>
        <pt x="297" y="359" on="0"/>
        <pt x="285" y="364" on="1"/>
        <pt x="206" y="75" on="1"/>
        <pt x="213" y="75" on="1"/>
        <pt x="230" y="75" on="0"/>
        <pt x="266" y="87" on="0"/>
        <pt x="283" y="98" on="1"/>
        <pt x="303" y="20" on="1"/>
        <pt x="279" y="6" on="0"/>
        <pt x="224" y="-10" on="0"/>
        <pt x="194" y="-10" on="1"/>
        <pt x="191" y="-10" on="0"/>
        <pt x="185" y="-9" on="0"/>
        <pt x="182" y="-9" on="1"/>
        <pt x="163" y="-80" on="1"/>
        <pt x="105" y="-73" on="1"/>
        <pt x="126" y="3" on="1"/>
        <pt x="80" y="23" on="0"/>
        <pt x="28" y="110" on="0"/>
        <pt x="28" y="173" on="1"/>
        <pt x="28" y="227" on="0"/>
        <pt x="59" y="328" on="0"/>
        <pt x="117" y="406" on="0"/>
        <pt x="199" y="454" on="0"/>
        <pt x="251" y="455" on="1"/>
        <pt x="272" y="530" on="1"/>
        <pt x="329" y="523" on="1"/>
      </contour>
      <contour>
        <pt x="125" y="174" on="1"/>
        <pt x="125" y="147" on="0"/>
        <pt x="139" y="110" on="0"/>
        <pt x="152" y="98" on="1"/>
        <pt x="227" y="369" on="1"/>
        <pt x="204" y="363" on="0"/>
        <pt x="166" y="325" on="0"/>
        <pt x="139" y="272" on="0"/>
        <pt x="125" y="207" on="0"/>
      </contour>
    </TTGlyph>
    <TTGlyph name="cent.lin" xMin="56" yMin="66" xMax="402" yMax="676">
      <component glyphName="cent" x="28" y="146" flags="0x4"/>
    </TTGlyph>
    <TTGlyph name="circumflex" xMin="122" yMin="500" xMax="411" yMax="654">
      <contour>
        <pt x="325" y="500" on="1"/>
        <pt x="285" y="577" on="1"/>
        <pt x="214" y="500" on="1"/>
        <pt x="122" y="500" on="1"/>
        <pt x="274" y="654" on="1"/>
        <pt x="321" y="654" on="1"/>
        <pt x="411" y="500" on="1"/>
      </contour>
    </TTGlyph>
    <TTGlyph name="colon" xMin="9" yMin="-10" xMax="184" yMax="401">
      <contour>
        <pt x="184" y="342" on="1"/>
        <pt x="184" y="315" on="0"/>
        <pt x="146" y="277" on="0"/>
        <pt x="120" y="277" on="1"/>
        <pt x="94" y="277" on="0"/>
        <pt x="61" y="311" on="0"/>
        <pt x="61" y="336" on="1"/>
        <pt x="61" y="363" on="0"/>
        <pt x="99" y="401" on="0"/>
        <pt x="125" y="401" on="1"/>
        <pt x="151" y="401" on="0"/>
        <pt x="184" y="368" on="0"/>
      </contour>
      <contour>
        <pt x="132" y="55" on="1"/>
        <pt x="132" y="29" on="0"/>
        <pt x="94" y="-10" on="0"/>
        <pt x="68" y="-10" on="1"/>
        <pt x="42" y="-10" on="0"/>
        <pt x="9" y="24" on="0"/>
        <pt x="9" y="50" on="1"/>
        <pt x="9" y="77" on="0"/>
        <pt x="47" y="115" on="0"/>
        <pt x="73" y="115" on="1"/>
        <pt x="99" y="115" on="0"/>
        <pt x="132" y="81" on="0"/>
      </contour>
    </TTGlyph>
    <TTGlyph name="comma" xMin="-24" yMin="-117" xMax="128" yMax="114">
      <contour>
        <pt x="128" y="48" on="1"/>
        <pt x="128" y="23" on="0"/>
        <pt x="103" y="-26" on="0"/>
        <pt x="63" y="-70" on="0"/>
        <pt x="12" y="-106" on="0"/>
        <pt x="-14" y="-117" on="1"/>
        <pt x="-24" y="-100" on="1"/>
        <pt x="14" y="-72" on="0"/>
        <pt x="49" y="-27" on="0"/>
        <pt x="58" y="-5" on="1"/>
        <pt x="35" y="-1" on="0"/>
        <pt x="7" y="30" on="0"/>
        <pt x="7" y="51" on="1"/>
        <pt x="7" y="77" on="0"/>
        <pt x="44" y="114" on="0"/>
        <pt x="69" y="114" on="1"/>
        <pt x="95" y="114" on="0"/>
        <pt x="128" y="79" on="0"/>
      </contour>
    </TTGlyph>
    <TTGlyph name="commaaccent" xMin="13" yMin="-295" xMax="161" yMax="-70">
      <contour>
        <pt x="161" y="-134" on="1"/>
        <pt x="161" y="-158" on="0"/>
        <pt x="137" y="-206" on="0"/>
        <pt x="98" y="-249" on="0"/>
        <pt x="49" y="-284" on="0"/>
        <pt x="24" y="-295" on="1"/>
        <pt x="13" y="-278" on="1"/>
        <pt x="51" y="-251" on="0"/>
        <pt x="85" y="-207" on="0"/>
        <pt x="93" y="-186" on="1"/>
        <pt x="70" y="-182" on="0"/>
        <pt x="44" y="-152" on="0"/>
        <pt x="44" y="-132" on="1"/>
        <pt x="44" y="-106" on="0"/>
        <pt x="80" y="-70" on="0"/>
        <pt x="104" y="-70" on="1"/>
        <pt x="130" y="-70" on="0"/>
        <pt x="161" y="-105" on="0"/>
      </contour>
    </TTGlyph>
    <TTGlyph name="copyright" xMin="56" yMin="-12" xMax="645" yMax="745">
      <contour>
        <pt x="426" y="201" on="1"/>
        <pt x="386" y="178" on="0"/>
        <pt x="340" y="178" on="1"/>
        <pt x="282" y="178" on="0"/>
        <pt x="209" y="256" on="0"/>
        <pt x="209" y="328" on="1"/>
        <pt x="209" y="373" on="0"/>
        <pt x="237" y="456" on="0"/>
        <pt x="285" y="521" on="0"/>
        <pt x="352" y="559" on="0"/>
        <pt x="391" y="559" on="1"/>
        <pt x="420" y="559" on="0"/>
        <pt x="465" y="543" on="0"/>
        <pt x="484" y="529" on="1"/>
        <pt x="452" y="472" on="1"/>
        <pt x="440" y="482" on="0"/>
        <pt x="409" y="495" on="0"/>
        <pt x="392" y="495" on="1"/>
        <pt x="369" y="495" on="0"/>
        <pt x="329" y="468" on="0"/>
        <pt x="299" y="422" on="0"/>
        <pt x="281" y="363" on="0"/>
        <pt x="281" y="330" on="1"/>
        <pt x="281" y="288" on="0"/>
        <pt x="321" y="242" on="0"/>
        <pt x="354" y="242" on="1"/>
        <pt x="369" y="242" on="0"/>
        <pt x="398" y="251" on="0"/>
        <pt x="412" y="259" on="1"/>
      </contour>
      <contour>
        <pt x="593" y="442" on="1"/>
        <pt x="593" y="498" on="0"/>
        <pt x="566" y="592" on="0"/>
        <pt x="515" y="661" on="0"/>
        <pt x="443" y="699" on="0"/>
        <pt x="398" y="699" on="1"/>
        <pt x="337" y="699" on="0"/>
        <pt x="231" y="629" on="0"/>
        <pt x="153" y="514" on="0"/>
        <pt x="108" y="368" on="0"/>
        <pt x="108" y="292" on="1"/>
        <pt x="108" y="236" on="0"/>
        <pt x="135" y="141" on="0"/>
        <pt x="186" y="72" on="0"/>
        <pt x="258" y="33" on="0"/>
        <pt x="303" y="33" on="1"/>
        <pt x="344" y="33" on="0"/>
        <pt x="419" y="66" on="0"/>
        <pt x="483" y="123" on="0"/>
        <pt x="536" y="201" on="0"/>
        <pt x="573" y="292" on="0"/>
        <pt x="593" y="391" on="0"/>
      </contour>
      <contour>
        <pt x="645" y="444" on="1"/>
        <pt x="645" y="358" on="0"/>
        <pt x="593" y="195" on="0"/>
        <pt x="501" y="66" on="0"/>
        <pt x="375" y="-12" on="0"/>
        <pt x="300" y="-12" on="1"/>
        <pt x="244" y="-12" on="0"/>
        <pt x="154" y="33" on="0"/>
        <pt x="91" y="113" on="0"/>
        <pt x="56" y="224" on="0"/>
        <pt x="56" y="289" on="1"/>
        <pt x="56" y="375" on="0"/>
        <pt x="108" y="539" on="0"/>
        <pt x="201" y="667" on="0"/>
        <pt x="327" y="745" on="0"/>
        <pt x="402" y="745" on="1"/>
        <pt x="457" y="745" on="0"/>
        <pt x="547" y="700" on="0"/>
        <pt x="611" y="620" on="0"/>
        <pt x="645" y="510" on="0"/>
      </contour>
    </TTGlyph>
    <TTGlyph name="d" xMin="23" yMin="-8" xMax="473" yMax="733">
      <contour>
        <pt x="339" y="0" on="1"/>
        <pt x="239" y="0" on="1"/>
        <pt x="247" y="39" on="1"/>
        <pt x="200" y="-8" on="0"/>
        <pt x="148" y="-8" on="1"/>
        <pt x="94" y="-8" on="0"/>
        <pt x="23" y="79" on="0"/>
        <pt x="23" y="156" on="1"/>
        <pt x="23" y="214" on="0"/>
        <pt x="52" y="321" on="0"/>
        <pt x="105" y="404" on="0"/>
        <pt x="177" y="454" on="0"/>
        <pt x="221" y="454" on="1"/>
        <pt x="273" y="454" on="0"/>
        <pt x="312" y="415" on="1"/>
        <pt x="370" y="733" on="1"/>
        <pt x="473" y="733" on="1"/>
      </contour>
      <contour>
        <pt x="298" y="344" on="1"/>
        <pt x="272" y="370" on="0"/>
        <pt x="237" y="370" on="1"/>
        <pt x="211" y="370" on="0"/>
        <pt x="170" y="331" on="0"/>
        <pt x="141" y="270" on="0"/>
        <pt x="125" y="196" on="0"/>
        <pt x="125" y="161" on="1"/>
        <pt x="125" y="116" on="0"/>
        <pt x="162" y="77" on="0"/>
        <pt x="188" y="77" on="1"/>
        <pt x="206" y="77" on="0"/>
        <pt x="240" y="93" on="0"/>
        <pt x="255" y="107" on="1"/>
      </contour>
    </TTGlyph>
    <TTGlyph name="dagger" xMin="78" yMin="187" xMax="402" yMax="733">
      <contour>
        <pt x="386" y="498" on="1"/>
        <pt x="280" y="498" on="1"/>
        <pt x="223" y="187" on="1"/>
        <pt x="129" y="187" on="1"/>
        <pt x="187" y="498" on="1"/>
        <pt x="78" y="498" on="1"/>
        <pt x="94" y="586" on="1"/>
        <pt x="203" y="586" on="1"/>
        <pt x="230" y="733" on="1"/>
        <pt x="324" y="733" on="1"/>
        <pt x="296" y="586" on="1"/>
        <pt x="402" y="586" on="1"/>
      </contour>
    </TTGlyph>
    <TTGlyph name="daggerdbl" xMin="45" yMin="178" xMax="409" yMax="733">
      <contour>
        <pt x="393" y="519" on="1"/>
        <pt x="285" y="519" on="1"/>
        <pt x="262" y="391" on="1"/>
        <pt x="371" y="391" on="1"/>
        <pt x="355" y="303" on="1"/>
        <pt x="246" y="303" on="1"/>
        <pt x="223" y="178" on="1"/>
        <pt x="129" y="178" on="1"/>
        <pt x="153" y="303" on="1"/>
        <pt x="45" y="303" on="1"/>
        <pt x="61" y="391" on="1"/>
        <pt x="169" y="391" on="1"/>
        <pt x="193" y="519" on="1"/>
        <pt x="82" y="519" on="1"/>
        <pt x="98" y="607" on="1"/>
        <pt x="208" y="607" on="1"/>
        <pt x="232" y="733" on="1"/>
        <pt x="325" y="733" on="1"/>
        <pt x="302" y="607" on="1"/>
        <pt x="409" y="607" on="1"/>
      </contour>
    </TTGlyph>
    <TTGlyph name="dcaron" xMin="23" yMin="-8" xMax="621" yMax="734">
      <component glyphName="caron.alt" x="441" y="-6" flags="0x4"/>
      <component glyphName="d" x="0" y="0" flags="0x4"/>
    </TTGlyph>
    <TTGlyph name="dcroat" xMin="23" yMin="-8" xMax="501" yMax="733">
      <contour>
        <pt x="455" y="635" on="1"/>
        <pt x="501" y="635" on="1"/>
        <pt x="485" y="551" on="1"/>
        <pt x="439" y="551" on="1"/>
        <pt x="339" y="0" on="1"/>
        <pt x="239" y="0" on="1"/>
        <pt x="247" y="39" on="1"/>
        <pt x="200" y="-8" on="0"/>
        <pt x="148" y="-8" on="1"/>
        <pt x="94" y="-8" on="0"/>
        <pt x="23" y="79" on="0"/>
        <pt x="23" y="156" on="1"/>
        <pt x="23" y="214" on="0"/>
        <pt x="52" y="321" on="0"/>
        <pt x="105" y="404" on="0"/>
        <pt x="177" y="454" on="0"/>
        <pt x="221" y="454" on="1"/>
        <pt x="273" y="454" on="0"/>
        <pt x="312" y="415" on="1"/>
        <pt x="337" y="551" on="1"/>
        <pt x="224" y="551" on="1"/>
        <pt x="240" y="635" on="1"/>
        <pt x="352" y="635" on="1"/>
        <pt x="370" y="733" on="1"/>
        <pt x="473" y="733" on="1"/>
      </contour>
      <contour>
        <pt x="298" y="344" on="1"/>
        <pt x="272" y="370" on="0"/>
        <pt x="237" y="370" on="1"/>
        <pt x="211" y="370" on="0"/>
        <pt x="170" y="331" on="0"/>
        <pt x="141" y="270" on="0"/>
        <pt x="125" y="196" on="0"/>
        <pt x="125" y="161" on="1"/>
        <pt x="125" y="116" on="0"/>
        <pt x="162" y="77" on="0"/>
        <pt x="188" y="77" on="1"/>
        <pt x="206" y="77" on="0"/>
        <pt x="240" y="93" on="0"/>
        <pt x="255" y="107" on="1"/>
      </contour>
    </TTGlyph>
    <TTGlyph name="degree" xMin="117" yMin="467" xMax="366" yMax="714">
      <contour>
        <pt x="366" y="607" on="1"/>
        <pt x="366" y="580" on="0"/>
        <pt x="346" y="530" on="0"/>
        <pt x="309" y="491" on="0"/>
        <pt x="258" y="467" on="0"/>
        <pt x="227" y="467" on="1"/>
        <pt x="176" y="467" on="0"/>
        <pt x="117" y="530" on="0"/>
        <pt x="117" y="573" on="1"/>
        <pt x="117" y="600" on="0"/>
        <pt x="137" y="651" on="0"/>
        <pt x="173" y="690" on="0"/>
        <pt x="224" y="714" on="0"/>
        <pt x="256" y="714" on="1"/>
        <pt x="307" y="714" on="0"/>
        <pt x="366" y="651" on="0"/>
      </contour>
      <contour>
        <pt x="297" y="604" on="1"/>
        <pt x="297" y="630" on="0"/>
        <pt x="270" y="658" on="0"/>
        <pt x="250" y="658" on="1"/>
        <pt x="222" y="658" on="0"/>
        <pt x="186" y="612" on="0"/>
        <pt x="186" y="577" on="1"/>
        <pt x="186" y="551" on="0"/>
        <pt x="212" y="522" on="0"/>
        <pt x="233" y="522" on="1"/>
        <pt x="260" y="522" on="0"/>
        <pt x="297" y="569" on="0"/>
      </contour>
    </TTGlyph>
    <TTGlyph name="degree.lin" xMin="118" yMin="465" xMax="390" yMax="737">
      <contour>
        <pt x="390" y="620" on="1"/>
        <pt x="390" y="591" on="0"/>
        <pt x="368" y="535" on="0"/>
        <pt x="328" y="491" on="0"/>
        <pt x="271" y="465" on="0"/>
        <pt x="237" y="465" on="1"/>
        <pt x="210" y="465" on="0"/>
        <pt x="166" y="484" on="0"/>
        <pt x="135" y="516" on="0"/>
        <pt x="118" y="558" on="0"/>
        <pt x="118" y="582" on="1"/>
        <pt x="118" y="612" on="0"/>
        <pt x="140" y="667" on="0"/>
        <pt x="180" y="711" on="0"/>
        <pt x="236" y="737" on="0"/>
        <pt x="270" y="737" on="1"/>
        <pt x="297" y="737" on="0"/>
        <pt x="342" y="718" on="0"/>
        <pt x="373" y="687" on="0"/>
        <pt x="390" y="644" on="0"/>
      </contour>
      <contour>
        <pt x="316" y="617" on="1"/>
        <pt x="316" y="646" on="0"/>
        <pt x="287" y="678" on="0"/>
        <pt x="263" y="678" on="1"/>
        <pt x="232" y="678" on="0"/>
        <pt x="191" y="624" on="0"/>
        <pt x="191" y="586" on="1"/>
        <pt x="191" y="557" on="0"/>
        <pt x="221" y="525" on="0"/>
        <pt x="244" y="525" on="1"/>
        <pt x="275" y="525" on="0"/>
        <pt x="316" y="579" on="0"/>
      </contour>
    </TTGlyph>
    <TTGlyph name="dieresis" xMin="141" yMin="501" xMax="409" yMax="611">
      <contour>
        <pt x="250" y="558" on="1"/>
        <pt x="250" y="535" on="0"/>
        <pt x="217" y="501" on="0"/>
        <pt x="194" y="501" on="1"/>
        <pt x="171" y="501" on="0"/>
        <pt x="141" y="531" on="0"/>
        <pt x="141" y="554" on="1"/>
        <pt x="141" y="577" on="0"/>
        <pt x="174" y="611" on="0"/>
        <pt x="197" y="611" on="1"/>
        <pt x="221" y="611" on="0"/>
        <pt x="250" y="581" on="0"/>
      </contour>
      <contour>
        <pt x="409" y="558" on="1"/>
        <pt x="409" y="535" on="0"/>
        <pt x="376" y="501" on="0"/>
        <pt x="353" y="501" on="1"/>
        <pt x="330" y="501" on="0"/>
        <pt x="300" y="531" on="0"/>
        <pt x="300" y="554" on="1"/>
        <pt x="300" y="577" on="0"/>
        <pt x="333" y="611" on="0"/>
        <pt x="356" y="611" on="1"/>
        <pt x="379" y="611" on="0"/>
        <pt x="409" y="581" on="0"/>
      </contour>
    </TTGlyph>
    <TTGlyph name="divide" xMin="52" yMin="159" xMax="377" yMax="511">
      <contour>
        <pt x="240" y="211" on="1"/>
        <pt x="240" y="189" on="0"/>
        <pt x="210" y="159" on="0"/>
        <pt x="189" y="159" on="1"/>
        <pt x="168" y="159" on="0"/>
        <pt x="141" y="187" on="0"/>
        <pt x="141" y="207" on="1"/>
        <pt x="141" y="229" on="0"/>
        <pt x="172" y="260" on="0"/>
        <pt x="192" y="260" on="1"/>
        <pt x="214" y="260" on="0"/>
        <pt x="240" y="232" on="0"/>
      </contour>
      <contour>
        <pt x="66" y="372" on="1"/>
        <pt x="377" y="372" on="1"/>
        <pt x="363" y="299" on="1"/>
        <pt x="52" y="299" on="1"/>
      </contour>
      <contour>
        <pt x="287" y="463" on="1"/>
        <pt x="287" y="441" on="0"/>
        <pt x="257" y="411" on="0"/>
        <pt x="236" y="411" on="1"/>
        <pt x="214" y="411" on="0"/>
        <pt x="188" y="439" on="0"/>
        <pt x="188" y="459" on="1"/>
        <pt x="188" y="481" on="0"/>
        <pt x="218" y="511" on="0"/>
        <pt x="239" y="511" on="1"/>
        <pt x="261" y="511" on="0"/>
        <pt x="287" y="483" on="0"/>
      </contour>
    </TTGlyph>
    <TTGlyph name="divide.lin" xMin="68" yMin="194" xMax="393" yMax="546">
      <component glyphName="divide" x="16" y="35" flags="0x4"/>
    </TTGlyph>
    <TTGlyph name="dollar" xMin="-9" yMin="-88" xMax="443" yMax="750">
      <contour>
        <pt x="357" y="660" on="1"/>
        <pt x="384" y="651" on="0"/>
        <pt x="427" y="625" on="0"/>
        <pt x="443" y="613" on="1"/>
        <pt x="396" y="526" on="1"/>
        <pt x="380" y="539" on="0"/>
        <pt x="347" y="560" on="0"/>
        <pt x="330" y="567" on="1"/>
        <pt x="272" y="365" on="1"/>
        <pt x="328" y="318" on="0"/>
        <pt x="383" y="235" on="0"/>
        <pt x="383" y="180" on="1"/>
        <pt x="383" y="138" on="0"/>
        <pt x="353" y="68" on="0"/>
        <pt x="300" y="17" on="0"/>
        <pt x="229" y="-11" on="0"/>
        <pt x="188" y="-11" on="1"/>
        <pt x="181" y="-11" on="0"/>
        <pt x="169" y="-10" on="0"/>
        <pt x="163" y="-10" on="1"/>
        <pt x="142" y="-88" on="1"/>
        <pt x="84" y="-80" on="1"/>
        <pt x="106" y="1" on="1"/>
        <pt x="72" y="12" on="0"/>
        <pt x="15" y="46" on="0"/>
        <pt x="-9" y="66" on="1"/>
        <pt x="40" y="154" on="1"/>
        <pt x="60" y="135" on="0"/>
        <pt x="106" y="103" on="0"/>
        <pt x="132" y="94" on="1"/>
        <pt x="193" y="310" on="1"/>
        <pt x="141" y="354" on="0"/>
        <pt x="88" y="435" on="0"/>
        <pt x="88" y="488" on="1"/>
        <pt x="88" y="529" on="0"/>
        <pt x="117" y="597" on="0"/>
        <pt x="169" y="645" on="0"/>
        <pt x="240" y="672" on="0"/>
        <pt x="282" y="672" on="1"/>
        <pt x="287" y="672" on="0"/>
        <pt x="295" y="672" on="0"/>
        <pt x="300" y="671" on="1"/>
        <pt x="323" y="750" on="1"/>
        <pt x="381" y="743" on="1"/>
      </contour>
      <contour>
        <pt x="279" y="175" on="1"/>
        <pt x="279" y="200" on="0"/>
        <pt x="258" y="243" on="0"/>
        <pt x="239" y="265" on="1"/>
        <pt x="189" y="83" on="1"/>
        <pt x="191" y="83" on="1"/>
        <pt x="230" y="83" on="0"/>
        <pt x="279" y="134" on="0"/>
      </contour>
      <contour>
        <pt x="191" y="496" on="1"/>
        <pt x="191" y="455" on="0"/>
        <pt x="227" y="412" on="1"/>
        <pt x="274" y="578" on="1"/>
        <pt x="233" y="578" on="0"/>
        <pt x="191" y="530" on="0"/>
      </contour>
    </TTGlyph>
    <TTGlyph name="dollar.lin" xMin="-8" yMin="-96" xMax="474" yMax="822">
      <contour>
        <pt x="382" y="724" on="1"/>
        <pt x="410" y="715" on="0"/>
        <pt x="456" y="689" on="0"/>
        <pt x="474" y="675" on="1"/>
        <pt x="426" y="582" on="1"/>
        <pt x="410" y="596" on="0"/>
        <pt x="374" y="619" on="0"/>
        <pt x="354" y="626" on="1"/>
        <pt x="291" y="404" on="1"/>
        <pt x="294" y="401" on="1"/>
        <pt x="321" y="377" on="0"/>
        <pt x="365" y="332" on="0"/>
        <pt x="396" y="284" on="0"/>
        <pt x="414" y="231" on="0"/>
        <pt x="414" y="198" on="1"/>
        <pt x="414" y="156" on="0"/>
        <pt x="383" y="80" on="0"/>
        <pt x="326" y="23" on="0"/>
        <pt x="246" y="-11" on="0"/>
        <pt x="198" y="-11" on="1"/>
        <pt x="191" y="-11" on="0"/>
        <pt x="178" y="-11" on="0"/>
        <pt x="171" y="-10" on="1"/>
        <pt x="148" y="-96" on="1"/>
        <pt x="90" y="-89" on="1"/>
        <pt x="115" y="1" on="1"/>
        <pt x="79" y="12" on="0"/>
        <pt x="17" y="48" on="0"/>
        <pt x="-8" y="69" on="1"/>
        <pt x="41" y="163" on="1"/>
        <pt x="63" y="143" on="0"/>
        <pt x="113" y="109" on="0"/>
        <pt x="142" y="99" on="1"/>
        <pt x="208" y="337" on="1"/>
        <pt x="155" y="383" on="0"/>
        <pt x="92" y="473" on="0"/>
        <pt x="92" y="536" on="1"/>
        <pt x="92" y="580" on="0"/>
        <pt x="124" y="654" on="0"/>
        <pt x="180" y="707" on="0"/>
        <pt x="257" y="737" on="0"/>
        <pt x="303" y="737" on="1"/>
        <pt x="309" y="737" on="0"/>
        <pt x="320" y="736" on="0"/>
        <pt x="326" y="736" on="1"/>
        <pt x="350" y="822" on="1"/>
        <pt x="408" y="815" on="1"/>
      </contour>
      <contour>
        <pt x="304" y="191" on="1"/>
        <pt x="304" y="220" on="0"/>
        <pt x="277" y="269" on="0"/>
        <pt x="254" y="293" on="1"/>
        <pt x="198" y="88" on="1"/>
        <pt x="202" y="88" on="1"/>
        <pt x="226" y="88" on="0"/>
        <pt x="264" y="105" on="0"/>
        <pt x="290" y="133" on="0"/>
        <pt x="304" y="170" on="0"/>
      </contour>
      <contour>
        <pt x="200" y="544" on="1"/>
        <pt x="200" y="518" on="0"/>
        <pt x="222" y="474" on="0"/>
        <pt x="245" y="448" on="1"/>
        <pt x="298" y="637" on="1"/>
        <pt x="296" y="637" on="1"/>
        <pt x="248" y="637" on="0"/>
        <pt x="200" y="582" on="0"/>
      </contour>
    </TTGlyph>
    <TTGlyph name="dotaccent" xMin="215" yMin="501" xMax="324" yMax="611">
      <contour>
        <pt x="324" y="558" on="1"/>
        <pt x="324" y="535" on="0"/>
        <pt x="291" y="501" on="0"/>
        <pt x="268" y="501" on="1"/>
        <pt x="245" y="501" on="0"/>
        <pt x="215" y="531" on="0"/>
        <pt x="215" y="554" on="1"/>
        <pt x="215" y="577" on="0"/>
        <pt x="249" y="611" on="0"/>
        <pt x="271" y="611" on="1"/>
        <pt x="295" y="611" on="0"/>
        <pt x="324" y="581" on="0"/>
      </contour>
    </TTGlyph>
    <TTGlyph name="dotlessi" xMin="9" yMin="0" xMax="194" yMax="446">
      <contour>
        <pt x="113" y="0" on="1"/>
        <pt x="9" y="0" on="1"/>
        <pt x="91" y="446" on="1"/>
        <pt x="194" y="446" on="1"/>
      </contour>
    </TTGlyph>
    <TTGlyph name="e" xMin="25" yMin="-10" xMax="381" yMax="455">
      <contour>
        <pt x="196" y="-10" on="1"/>
        <pt x="121" y="-10" on="0"/>
        <pt x="25" y="78" on="0"/>
        <pt x="25" y="167" on="1"/>
        <pt x="25" y="218" on="0"/>
        <pt x="56" y="320" on="0"/>
        <pt x="113" y="403" on="0"/>
        <pt x="194" y="455" on="0"/>
        <pt x="243" y="455" on="1"/>
        <pt x="312" y="455" on="0"/>
        <pt x="381" y="366" on="0"/>
        <pt x="381" y="295" on="1"/>
        <pt x="381" y="273" on="0"/>
        <pt x="371" y="218" on="0"/>
        <pt x="363" y="192" on="1"/>
        <pt x="124" y="192" on="1"/>
        <pt x="124" y="168" on="1"/>
        <pt x="125" y="122" on="0"/>
        <pt x="172" y="75" on="0"/>
        <pt x="215" y="75" on="1"/>
        <pt x="237" y="75" on="0"/>
        <pt x="281" y="87" on="0"/>
        <pt x="303" y="95" on="1"/>
        <pt x="312" y="16" on="1"/>
        <pt x="285" y="3" on="0"/>
        <pt x="230" y="-10" on="0"/>
      </contour>
      <contour>
        <pt x="283" y="258" on="1"/>
        <pt x="285" y="268" on="0"/>
        <pt x="288" y="294" on="0"/>
        <pt x="288" y="305" on="1"/>
        <pt x="288" y="332" on="0"/>
        <pt x="263" y="371" on="0"/>
        <pt x="235" y="371" on="1"/>
        <pt x="218" y="371" on="0"/>
        <pt x="188" y="353" on="0"/>
        <pt x="162" y="322" on="0"/>
        <pt x="142" y="281" on="0"/>
        <pt x="136" y="258" on="1"/>
      </contour>
    </TTGlyph>
    <TTGlyph name="eacute" xMin="25" yMin="-10" xMax="419" yMax="664">
      <component glyphName="acute" x="49" y="1" flags="0x4"/>
      <component glyphName="e" x="0" y="0" flags="0x4"/>
    </TTGlyph>
    <TTGlyph name="ebreve" xMin="25" yMin="-10" xMax="419" yMax="635">
      <component glyphName="e" x="0" y="0" flags="0x204"/>
      <component glyphName="breve" x="-1" y="1" flags="0x4"/>
    </TTGlyph>
    <TTGlyph name="ecaron" xMin="25" yMin="-10" xMax="436" yMax="651">
      <component glyphName="caron" x="0" y="1" flags="0x4"/>
      <component glyphName="e" x="0" y="0" flags="0x4"/>
    </TTGlyph>
    <TTGlyph name="ecircumflex" xMin="25" yMin="-10" xMax="402" yMax="655">
      <component glyphName="circumflex" x="-9" y="1" flags="0x4"/>
      <component glyphName="e" x="0" y="0" flags="0x4"/>
    </TTGlyph>
    <TTGlyph name="edieresis" xMin="25" yMin="-10" xMax="406" yMax="612">
      <component glyphName="dieresis" x="-3" y="1" flags="0x4"/>
      <component glyphName="e" x="0" y="0" flags="0x4"/>
    </TTGlyph>
    <TTGlyph name="edotaccent" xMin="25" yMin="-10" xMax="381" yMax="612">
      <component glyphName="e" x="0" y="0" flags="0x204"/>
      <component glyphName="dotaccent" x="0" y="1" flags="0x4"/>
    </TTGlyph>
    <TTGlyph name="egrave" xMin="25" yMin="-10" xMax="381" yMax="668">
      <component glyphName="e" x="0" y="0" flags="0x204"/>
      <component glyphName="grave" x="-58" y="1" flags="0x4"/>
    </TTGlyph>
    <TTGlyph name="eight" xMin="31" yMin="-11" xMax="448" yMax="672">
      <contour>
        <pt x="448" y="515" on="1"/>
        <pt x="448" y="456" on="0"/>
        <pt x="391" y="359" on="0"/>
        <pt x="336" y="332" on="1"/>
        <pt x="371" y="309" on="0"/>
        <pt x="405" y="242" on="0"/>
        <pt x="405" y="200" on="1"/>
        <pt x="405" y="159" on="0"/>
        <pt x="375" y="83" on="0"/>
        <pt x="320" y="24" on="0"/>
        <pt x="244" y="-11" on="0"/>
        <pt x="199" y="-11" on="1"/>
        <pt x="160" y="-11" on="0"/>
        <pt x="97" y="13" on="0"/>
        <pt x="54" y="56" on="0"/>
        <pt x="31" y="115" on="0"/>
        <pt x="31" y="149" on="1"/>
        <pt x="31" y="179" on="0"/>
        <pt x="46" y="236" on="0"/>
        <pt x="76" y="287" on="0"/>
        <pt x="122" y="328" on="0"/>
        <pt x="153" y="341" on="1"/>
        <pt x="124" y="364" on="0"/>
        <pt x="93" y="427" on="0"/>
        <pt x="93" y="468" on="1"/>
        <pt x="93" y="507" on="0"/>
        <pt x="121" y="581" on="0"/>
        <pt x="172" y="638" on="0"/>
        <pt x="244" y="672" on="0"/>
        <pt x="288" y="672" on="1"/>
        <pt x="325" y="672" on="0"/>
        <pt x="384" y="647" on="0"/>
        <pt x="426" y="605" on="0"/>
        <pt x="448" y="548" on="0"/>
      </contour>
      <contour>
        <pt x="345" y="504" on="1"/>
        <pt x="345" y="538" on="0"/>
        <pt x="313" y="583" on="0"/>
        <pt x="283" y="583" on="1"/>
        <pt x="262" y="583" on="0"/>
        <pt x="229" y="560" on="0"/>
        <pt x="206" y="523" on="0"/>
        <pt x="194" y="477" on="0"/>
        <pt x="194" y="453" on="1"/>
        <pt x="194" y="418" on="0"/>
        <pt x="227" y="375" on="0"/>
        <pt x="256" y="375" on="1"/>
        <pt x="276" y="375" on="0"/>
        <pt x="309" y="397" on="0"/>
        <pt x="332" y="433" on="0"/>
        <pt x="345" y="480" on="0"/>
      </contour>
      <contour>
        <pt x="299" y="212" on="1"/>
        <pt x="299" y="248" on="0"/>
        <pt x="264" y="293" on="0"/>
        <pt x="232" y="293" on="1"/>
        <pt x="211" y="293" on="0"/>
        <pt x="176" y="270" on="0"/>
        <pt x="152" y="232" on="0"/>
        <pt x="139" y="184" on="0"/>
        <pt x="139" y="159" on="1"/>
        <pt x="139" y="121" on="0"/>
        <pt x="175" y="79" on="0"/>
        <pt x="206" y="79" on="1"/>
        <pt x="228" y="79" on="0"/>
        <pt x="262" y="102" on="0"/>
        <pt x="286" y="140" on="0"/>
        <pt x="299" y="188" on="0"/>
      </contour>
    </TTGlyph>
    <TTGlyph name="eight.lin" xMin="35" yMin="-12" xMax="498" yMax="737">
      <contour>
        <pt x="224" y="-12" on="1"/>
        <pt x="179" y="-12" on="0"/>
        <pt x="109" y="16" on="0"/>
        <pt x="60" y="64" on="0"/>
        <pt x="35" y="129" on="0"/>
        <pt x="35" y="166" on="1"/>
        <pt x="35" y="199" on="0"/>
        <pt x="52" y="262" on="0"/>
        <pt x="86" y="317" on="0"/>
        <pt x="137" y="362" on="0"/>
        <pt x="170" y="376" on="1"/>
        <pt x="139" y="401" on="0"/>
        <pt x="105" y="469" on="0"/>
        <pt x="105" y="513" on="1"/>
        <pt x="105" y="558" on="0"/>
        <pt x="137" y="639" on="0"/>
        <pt x="194" y="700" on="0"/>
        <pt x="273" y="737" on="0"/>
        <pt x="320" y="737" on="1"/>
        <pt x="362" y="737" on="0"/>
        <pt x="428" y="710" on="0"/>
        <pt x="474" y="663" on="0"/>
        <pt x="498" y="600" on="0"/>
        <pt x="498" y="564" on="1"/>
        <pt x="498" y="499" on="0"/>
        <pt x="434" y="390" on="0"/>
        <pt x="374" y="362" on="1"/>
        <pt x="450" y="311" on="0"/>
        <pt x="450" y="219" on="1"/>
        <pt x="450" y="174" on="0"/>
        <pt x="416" y="90" on="0"/>
        <pt x="356" y="26" on="0"/>
        <pt x="273" y="-12" on="0"/>
      </contour>
      <contour>
        <pt x="339" y="230" on="1"/>
        <pt x="339" y="274" on="0"/>
        <pt x="293" y="324" on="0"/>
        <pt x="256" y="324" on="1"/>
        <pt x="232" y="324" on="0"/>
        <pt x="192" y="298" on="0"/>
        <pt x="163" y="256" on="0"/>
        <pt x="148" y="203" on="0"/>
        <pt x="148" y="175" on="1"/>
        <pt x="148" y="132" on="0"/>
        <pt x="191" y="81" on="0"/>
        <pt x="229" y="81" on="1"/>
        <pt x="254" y="81" on="0"/>
        <pt x="295" y="107" on="0"/>
        <pt x="323" y="149" on="0"/>
        <pt x="339" y="203" on="0"/>
      </contour>
      <contour>
        <pt x="391" y="553" on="1"/>
        <pt x="391" y="595" on="0"/>
        <pt x="349" y="645" on="0"/>
        <pt x="314" y="645" on="1"/>
        <pt x="290" y="645" on="0"/>
        <pt x="251" y="620" on="0"/>
        <pt x="224" y="578" on="0"/>
        <pt x="210" y="526" on="0"/>
        <pt x="210" y="499" on="1"/>
        <pt x="210" y="458" on="0"/>
        <pt x="252" y="409" on="0"/>
        <pt x="287" y="409" on="1"/>
        <pt x="310" y="409" on="0"/>
        <pt x="349" y="433" on="0"/>
        <pt x="376" y="473" on="0"/>
        <pt x="391" y="525" on="0"/>
      </contour>
    </TTGlyph>
    <TTGlyph name="ellipsis" xMin="18" yMin="-10" xMax="560" yMax="115">
      <contour>
        <pt x="140" y="55" on="1"/>
        <pt x="140" y="29" on="0"/>
        <pt x="103" y="-10" on="0"/>
        <pt x="77" y="-10" on="1"/>
        <pt x="51" y="-10" on="0"/>
        <pt x="18" y="24" on="0"/>
        <pt x="18" y="50" on="1"/>
        <pt x="18" y="77" on="0"/>
        <pt x="55" y="115" on="0"/>
        <pt x="81" y="115" on="1"/>
        <pt x="107" y="115" on="0"/>
        <pt x="140" y="81" on="0"/>
      </contour>
      <contour>
        <pt x="350" y="55" on="1"/>
        <pt x="350" y="29" on="0"/>
        <pt x="312" y="-10" on="0"/>
        <pt x="286" y="-10" on="1"/>
        <pt x="260" y="-10" on="0"/>
        <pt x="227" y="24" on="0"/>
        <pt x="227" y="50" on="1"/>
        <pt x="227" y="77" on="0"/>
        <pt x="265" y="115" on="0"/>
        <pt x="291" y="115" on="1"/>
        <pt x="317" y="115" on="0"/>
        <pt x="350" y="81" on="0"/>
      </contour>
      <contour>
        <pt x="560" y="55" on="1"/>
        <pt x="560" y="29" on="0"/>
        <pt x="522" y="-10" on="0"/>
        <pt x="496" y="-10" on="1"/>
        <pt x="470" y="-10" on="0"/>
        <pt x="437" y="24" on="0"/>
        <pt x="437" y="50" on="1"/>
        <pt x="437" y="77" on="0"/>
        <pt x="475" y="115" on="0"/>
        <pt x="501" y="115" on="1"/>
        <pt x="527" y="115" on="0"/>
        <pt x="560" y="81" on="0"/>
      </contour>
    </TTGlyph>
    <TTGlyph name="emacron" xMin="25" yMin="-10" xMax="401" yMax="583">
      <component glyphName="e" x="0" y="0" flags="0x204"/>
      <component glyphName="macron" x="-3" y="1" flags="0x4"/>
    </TTGlyph>
    <TTGlyph name="emdash" xMin="38" yMin="221" xMax="548" yMax="296">
      <contour>
        <pt x="534" y="221" on="1"/>
        <pt x="38" y="221" on="1"/>
        <pt x="52" y="296" on="1"/>
        <pt x="548" y="296" on="1"/>
      </contour>
    </TTGlyph>
    <TTGlyph name="emdash.cap" xMin="59" yMin="333" xMax="569" yMax="408">
      <component glyphName="emdash" x="21" y="112" flags="0x204"/>
    </TTGlyph>
    <TTGlyph name="endash" xMin="38" yMin="221" xMax="355" yMax="296">
      <contour>
        <pt x="341" y="221" on="1"/>
        <pt x="38" y="221" on="1"/>
        <pt x="52" y="296" on="1"/>
        <pt x="355" y="296" on="1"/>
      </contour>
    </TTGlyph>
    <TTGlyph name="endash.cap" xMin="59" yMin="333" xMax="376" yMax="408">
      <component glyphName="endash" x="21" y="112" flags="0x204"/>
    </TTGlyph>
    <TTGlyph name="eogonek" xMin="25" yMin="-205" xMax="381" yMax="455">
      <contour>
        <pt x="196" y="-10" on="1"/>
        <pt x="121" y="-10" on="0"/>
        <pt x="25" y="78" on="0"/>
        <pt x="25" y="167" on="1"/>
        <pt x="25" y="218" on="0"/>
        <pt x="56" y="320" on="0"/>
        <pt x="113" y="403" on="0"/>
        <pt x="194" y="455" on="0"/>
        <pt x="243" y="455" on="1"/>
        <pt x="312" y="455" on="0"/>
        <pt x="381" y="366" on="0"/>
        <pt x="381" y="295" on="1"/>
        <pt x="381" y="273" on="0"/>
        <pt x="371" y="218" on="0"/>
        <pt x="363" y="192" on="1"/>
        <pt x="124" y="192" on="1"/>
        <pt x="124" y="168" on="1"/>
        <pt x="125" y="122" on="0"/>
        <pt x="172" y="75" on="0"/>
        <pt x="215" y="75" on="1"/>
        <pt x="237" y="75" on="0"/>
        <pt x="281" y="87" on="0"/>
        <pt x="303" y="95" on="1"/>
        <pt x="312" y="16" on="1"/>
        <pt x="294" y="2" on="0"/>
        <pt x="260" y="-31" on="0"/>
        <pt x="234" y="-64" on="0"/>
        <pt x="218" y="-98" on="0"/>
        <pt x="218" y="-114" on="1"/>
        <pt x="218" y="-141" on="0"/>
        <pt x="244" y="-141" on="1"/>
        <pt x="255" y="-141" on="0"/>
        <pt x="275" y="-132" on="0"/>
        <pt x="286" y="-124" on="1"/>
        <pt x="303" y="-168" on="1"/>
        <pt x="283" y="-185" on="0"/>
        <pt x="239" y="-205" on="0"/>
        <pt x="210" y="-205" on="1"/>
        <pt x="177" y="-205" on="0"/>
        <pt x="141" y="-169" on="0"/>
        <pt x="141" y="-140" on="1"/>
        <pt x="141" y="-105" on="0"/>
        <pt x="182" y="-40" on="0"/>
        <pt x="214" y="-9" on="1"/>
        <pt x="209" y="-10" on="0"/>
        <pt x="201" y="-10" on="0"/>
      </contour>
      <contour>
        <pt x="283" y="258" on="1"/>
        <pt x="285" y="268" on="0"/>
        <pt x="288" y="294" on="0"/>
        <pt x="288" y="305" on="1"/>
        <pt x="288" y="332" on="0"/>
        <pt x="263" y="371" on="0"/>
        <pt x="235" y="371" on="1"/>
        <pt x="218" y="371" on="0"/>
        <pt x="188" y="353" on="0"/>
        <pt x="162" y="322" on="0"/>
        <pt x="142" y="281" on="0"/>
        <pt x="136" y="258" on="1"/>
      </contour>
    </TTGlyph>
    <TTGlyph name="equal" xMin="43" yMin="215" xMax="341" yMax="456">
      <contour>
        <pt x="296" y="215" on="1"/>
        <pt x="43" y="215" on="1"/>
        <pt x="58" y="294" on="1"/>
        <pt x="311" y="294" on="1"/>
      </contour>
      <contour>
        <pt x="326" y="377" on="1"/>
        <pt x="73" y="377" on="1"/>
        <pt x="87" y="456" on="1"/>
        <pt x="341" y="456" on="1"/>
      </contour>
    </TTGlyph>
    <TTGlyph name="equal.lin" xMin="49" yMin="250" xMax="347" yMax="491">
      <component glyphName="equal" x="6" y="35" flags="0x4"/>
    </TTGlyph>
    <TTGlyph name="eth" xMin="23" yMin="-10" xMax="397" yMax="740">
      <contour>
        <pt x="316" y="614" on="1"/>
        <pt x="350" y="563" on="0"/>
        <pt x="397" y="427" on="0"/>
        <pt x="397" y="339" on="1"/>
        <pt x="397" y="270" on="0"/>
        <pt x="367" y="143" on="0"/>
        <pt x="310" y="47" on="0"/>
        <pt x="228" y="-10" on="0"/>
        <pt x="177" y="-10" on="1"/>
        <pt x="141" y="-10" on="0"/>
        <pt x="84" y="16" on="0"/>
        <pt x="44" y="64" on="0"/>
        <pt x="23" y="130" on="0"/>
        <pt x="23" y="171" on="1"/>
        <pt x="23" y="226" on="0"/>
        <pt x="54" y="326" on="0"/>
        <pt x="107" y="401" on="0"/>
        <pt x="179" y="445" on="0"/>
        <pt x="221" y="445" on="1"/>
        <pt x="245" y="445" on="0"/>
        <pt x="286" y="424" on="0"/>
        <pt x="299" y="404" on="1"/>
        <pt x="293" y="449" on="0"/>
        <pt x="260" y="526" on="0"/>
        <pt x="237" y="560" on="1"/>
        <pt x="160" y="507" on="1"/>
        <pt x="121" y="568" on="1"/>
        <pt x="193" y="617" on="1"/>
        <pt x="178" y="634" on="0"/>
        <pt x="149" y="660" on="0"/>
        <pt x="135" y="671" on="1"/>
        <pt x="197" y="740" on="1"/>
        <pt x="214" y="727" on="0"/>
        <pt x="251" y="693" on="0"/>
        <pt x="271" y="671" on="1"/>
        <pt x="343" y="721" on="1"/>
        <pt x="383" y="660" on="1"/>
      </contour>
      <contour>
        <pt x="292" y="277" on="1"/>
        <pt x="292" y="319" on="0"/>
        <pt x="260" y="368" on="0"/>
        <pt x="230" y="368" on="1"/>
        <pt x="205" y="368" on="0"/>
        <pt x="165" y="328" on="0"/>
        <pt x="136" y="268" on="0"/>
        <pt x="121" y="196" on="0"/>
        <pt x="121" y="164" on="1"/>
        <pt x="121" y="123" on="0"/>
        <pt x="153" y="75" on="0"/>
        <pt x="183" y="75" on="1"/>
        <pt x="208" y="75" on="0"/>
        <pt x="248" y="115" on="0"/>
        <pt x="276" y="175" on="0"/>
        <pt x="292" y="246" on="0"/>
      </contour>
    </TTGlyph>
    <TTGlyph name="exclam" xMin="17" yMin="-10" xMax="260" yMax="733">
      <contour>
        <pt x="137" y="200" on="1"/>
        <pt x="70" y="202" on="1"/>
        <pt x="144" y="733" on="1"/>
        <pt x="260" y="733" on="1"/>
      </contour>
      <contour>
        <pt x="140" y="55" on="1"/>
        <pt x="140" y="29" on="0"/>
        <pt x="102" y="-10" on="0"/>
        <pt x="76" y="-10" on="1"/>
        <pt x="50" y="-10" on="0"/>
        <pt x="17" y="24" on="0"/>
        <pt x="17" y="50" on="1"/>
        <pt x="17" y="77" on="0"/>
        <pt x="55" y="115" on="0"/>
        <pt x="81" y="115" on="1"/>
        <pt x="107" y="115" on="0"/>
        <pt x="140" y="81" on="0"/>
      </contour>
    </TTGlyph>
    <TTGlyph name="exclamdown" xMin="9" yMin="0" xMax="252" yMax="743">
      <contour>
        <pt x="252" y="683" on="1"/>
        <pt x="252" y="656" on="0"/>
        <pt x="214" y="618" on="0"/>
        <pt x="188" y="618" on="1"/>
        <pt x="162" y="618" on="0"/>
        <pt x="129" y="652" on="0"/>
        <pt x="129" y="678" on="1"/>
        <pt x="129" y="704" on="0"/>
        <pt x="166" y="743" on="0"/>
        <pt x="192" y="743" on="1"/>
        <pt x="219" y="743" on="0"/>
        <pt x="252" y="709" on="0"/>
      </contour>
      <contour>
        <pt x="125" y="0" on="1"/>
        <pt x="9" y="0" on="1"/>
        <pt x="132" y="533" on="1"/>
        <pt x="199" y="531" on="1"/>
      </contour>
    </TTGlyph>
    <TTGlyph name="f" xMin="-3" yMin="-195" xMax="374" yMax="739">
      <contour>
        <pt x="345" y="637" on="1"/>
        <pt x="337" y="640" on="0"/>
        <pt x="316" y="645" on="0"/>
        <pt x="306" y="645" on="1"/>
        <pt x="277" y="645" on="0"/>
        <pt x="247" y="611" on="0"/>
        <pt x="238" y="564" on="1"/>
        <pt x="216" y="446" on="1"/>
        <pt x="303" y="446" on="1"/>
        <pt x="286" y="358" on="1"/>
        <pt x="200" y="358" on="1"/>
        <pt x="98" y="-195" on="1"/>
        <pt x="-3" y="-195" on="1"/>
        <pt x="99" y="358" on="1"/>
        <pt x="32" y="358" on="1"/>
        <pt x="38" y="392" on="1"/>
        <pt x="115" y="450" on="1"/>
        <pt x="138" y="573" on="1"/>
        <pt x="155" y="663" on="0"/>
        <pt x="232" y="739" on="0"/>
        <pt x="298" y="739" on="1"/>
        <pt x="320" y="739" on="0"/>
        <pt x="358" y="731" on="0"/>
        <pt x="374" y="725" on="1"/>
      </contour>
    </TTGlyph>
    <TTGlyph name="f_f" xMin="-2" yMin="-195" xMax="615" yMax="739">
      <contour>
        <pt x="342" y="638" on="1"/>
        <pt x="323" y="645" on="0"/>
        <pt x="305" y="645" on="1"/>
        <pt x="276" y="645" on="0"/>
        <pt x="247" y="611" on="0"/>
        <pt x="239" y="567" on="1"/>
        <pt x="217" y="446" on="1"/>
        <pt x="315" y="446" on="1"/>
        <pt x="310" y="421" on="1"/>
        <pt x="356" y="448" on="1"/>
        <pt x="379" y="571" on="1"/>
        <pt x="395" y="659" on="0"/>
        <pt x="471" y="739" on="0"/>
        <pt x="540" y="739" on="1"/>
        <pt x="561" y="739" on="0"/>
        <pt x="599" y="731" on="0"/>
        <pt x="615" y="725" on="1"/>
        <pt x="587" y="637" on="1"/>
        <pt x="578" y="640" on="0"/>
        <pt x="556" y="645" on="0"/>
        <pt x="546" y="645" on="1"/>
        <pt x="517" y="645" on="0"/>
        <pt x="488" y="611" on="0"/>
        <pt x="480" y="567" on="1"/>
        <pt x="457" y="446" on="1"/>
        <pt x="544" y="446" on="1"/>
        <pt x="528" y="358" on="1"/>
        <pt x="441" y="358" on="1"/>
        <pt x="339" y="-195" on="1"/>
        <pt x="238" y="-195" on="1"/>
        <pt x="340" y="358" on="1"/>
        <pt x="201" y="358" on="1"/>
        <pt x="99" y="-195" on="1"/>
        <pt x="-2" y="-195" on="1"/>
        <pt x="100" y="358" on="1"/>
        <pt x="33" y="358" on="1"/>
        <pt x="39" y="392" on="1"/>
        <pt x="116" y="450" on="1"/>
        <pt x="139" y="571" on="1"/>
        <pt x="155" y="659" on="0"/>
        <pt x="231" y="739" on="0"/>
        <pt x="300" y="739" on="1"/>
        <pt x="337" y="739" on="0"/>
        <pt x="368" y="726" on="1"/>
      </contour>
    </TTGlyph>
    <TTGlyph name="f_f_i" xMin="-2" yMin="-195" xMax="735" yMax="739">
      <contour>
        <pt x="582" y="638" on="1"/>
        <pt x="563" y="645" on="0"/>
        <pt x="545" y="645" on="1"/>
        <pt x="516" y="645" on="0"/>
        <pt x="488" y="611" on="0"/>
        <pt x="480" y="567" on="1"/>
        <pt x="457" y="446" on="1"/>
        <pt x="542" y="446" on="1"/>
        <pt x="526" y="358" on="1"/>
        <pt x="441" y="358" on="1"/>
        <pt x="339" y="-195" on="1"/>
        <pt x="238" y="-195" on="1"/>
        <pt x="340" y="358" on="1"/>
        <pt x="201" y="358" on="1"/>
        <pt x="99" y="-195" on="1"/>
        <pt x="-2" y="-195" on="1"/>
        <pt x="100" y="358" on="1"/>
        <pt x="33" y="358" on="1"/>
        <pt x="39" y="392" on="1"/>
        <pt x="116" y="450" on="1"/>
        <pt x="139" y="571" on="1"/>
        <pt x="155" y="659" on="0"/>
        <pt x="231" y="739" on="0"/>
        <pt x="300" y="739" on="1"/>
        <pt x="337" y="739" on="0"/>
        <pt x="368" y="726" on="1"/>
        <pt x="342" y="638" on="1"/>
        <pt x="323" y="645" on="0"/>
        <pt x="305" y="645" on="1"/>
        <pt x="276" y="645" on="0"/>
        <pt x="247" y="611" on="0"/>
        <pt x="239" y="567" on="1"/>
        <pt x="217" y="446" on="1"/>
        <pt x="315" y="446" on="1"/>
        <pt x="310" y="421" on="1"/>
        <pt x="356" y="448" on="1"/>
        <pt x="379" y="571" on="1"/>
        <pt x="395" y="659" on="0"/>
        <pt x="471" y="739" on="0"/>
        <pt x="540" y="739" on="1"/>
        <pt x="558" y="739" on="0"/>
        <pt x="594" y="732" on="0"/>
        <pt x="609" y="726" on="1"/>
      </contour>
      <contour>
        <pt x="619" y="0" on="1"/>
        <pt x="516" y="0" on="1"/>
        <pt x="597" y="446" on="1"/>
        <pt x="701" y="446" on="1"/>
      </contour>
      <contour>
        <pt x="735" y="588" on="1"/>
        <pt x="735" y="559" on="0"/>
        <pt x="697" y="519" on="0"/>
        <pt x="671" y="519" on="1"/>
        <pt x="644" y="519" on="0"/>
        <pt x="611" y="555" on="0"/>
        <pt x="611" y="580" on="1"/>
        <pt x="611" y="609" on="0"/>
        <pt x="649" y="649" on="0"/>
        <pt x="677" y="649" on="1"/>
        <pt x="703" y="649" on="0"/>
        <pt x="735" y="613" on="0"/>
      </contour>
    </TTGlyph>
    <TTGlyph name="f_f_l" xMin="-2" yMin="-195" xMax="752" yMax="739">
      <contour>
        <pt x="582" y="638" on="1"/>
        <pt x="563" y="645" on="0"/>
        <pt x="545" y="645" on="1"/>
        <pt x="516" y="645" on="0"/>
        <pt x="488" y="611" on="0"/>
        <pt x="480" y="567" on="1"/>
        <pt x="457" y="446" on="1"/>
        <pt x="542" y="446" on="1"/>
        <pt x="526" y="358" on="1"/>
        <pt x="441" y="358" on="1"/>
        <pt x="339" y="-195" on="1"/>
        <pt x="238" y="-195" on="1"/>
        <pt x="340" y="358" on="1"/>
        <pt x="201" y="358" on="1"/>
        <pt x="99" y="-195" on="1"/>
        <pt x="-2" y="-195" on="1"/>
        <pt x="100" y="358" on="1"/>
        <pt x="33" y="358" on="1"/>
        <pt x="39" y="392" on="1"/>
        <pt x="116" y="450" on="1"/>
        <pt x="139" y="571" on="1"/>
        <pt x="155" y="659" on="0"/>
        <pt x="231" y="739" on="0"/>
        <pt x="300" y="739" on="1"/>
        <pt x="337" y="739" on="0"/>
        <pt x="368" y="726" on="1"/>
        <pt x="342" y="638" on="1"/>
        <pt x="323" y="645" on="0"/>
        <pt x="305" y="645" on="1"/>
        <pt x="276" y="645" on="0"/>
        <pt x="247" y="611" on="0"/>
        <pt x="239" y="567" on="1"/>
        <pt x="217" y="446" on="1"/>
        <pt x="315" y="446" on="1"/>
        <pt x="310" y="421" on="1"/>
        <pt x="356" y="448" on="1"/>
        <pt x="379" y="571" on="1"/>
        <pt x="395" y="659" on="0"/>
        <pt x="471" y="739" on="0"/>
        <pt x="540" y="739" on="1"/>
        <pt x="558" y="739" on="0"/>
        <pt x="594" y="732" on="0"/>
        <pt x="609" y="726" on="1"/>
      </contour>
      <contour>
        <pt x="616" y="0" on="1"/>
        <pt x="513" y="0" on="1"/>
        <pt x="648" y="733" on="1"/>
        <pt x="752" y="733" on="1"/>
      </contour>
    </TTGlyph>
    <TTGlyph name="fi" xMin="-2" yMin="-195" xMax="495" yMax="739">
      <contour>
        <pt x="341" y="638" on="1"/>
        <pt x="333" y="641" on="0"/>
        <pt x="315" y="645" on="0"/>
        <pt x="305" y="645" on="1"/>
        <pt x="277" y="645" on="0"/>
        <pt x="247" y="612" on="0"/>
        <pt x="239" y="565" on="1"/>
        <pt x="217" y="446" on="1"/>
        <pt x="301" y="446" on="1"/>
        <pt x="285" y="358" on="1"/>
        <pt x="201" y="358" on="1"/>
        <pt x="99" y="-195" on="1"/>
        <pt x="-2" y="-195" on="1"/>
        <pt x="100" y="358" on="1"/>
        <pt x="33" y="358" on="1"/>
        <pt x="39" y="392" on="1"/>
        <pt x="116" y="450" on="1"/>
        <pt x="139" y="573" on="1"/>
        <pt x="156" y="663" on="0"/>
        <pt x="233" y="739" on="0"/>
        <pt x="299" y="739" on="1"/>
        <pt x="318" y="739" on="0"/>
        <pt x="354" y="731" on="0"/>
        <pt x="369" y="726" on="1"/>
      </contour>
      <contour>
        <pt x="379" y="0" on="1"/>
        <pt x="275" y="0" on="1"/>
        <pt x="357" y="446" on="1"/>
        <pt x="460" y="446" on="1"/>
      </contour>
      <contour>
        <pt x="495" y="588" on="1"/>
        <pt x="495" y="559" on="0"/>
        <pt x="457" y="519" on="0"/>
        <pt x="430" y="519" on="1"/>
        <pt x="404" y="519" on="0"/>
        <pt x="371" y="555" on="0"/>
        <pt x="371" y="580" on="1"/>
        <pt x="371" y="609" on="0"/>
        <pt x="409" y="649" on="0"/>
        <pt x="436" y="649" on="1"/>
        <pt x="462" y="649" on="0"/>
        <pt x="495" y="613" on="0"/>
      </contour>
    </TTGlyph>
    <TTGlyph name="five" xMin="9" yMin="-10" xMax="434" yMax="662">
      <contour>
        <pt x="416" y="565" on="1"/>
        <pt x="227" y="565" on="1"/>
        <pt x="198" y="412" on="1"/>
        <pt x="201" y="413" on="0"/>
        <pt x="208" y="413" on="1"/>
        <pt x="293" y="413" on="0"/>
        <pt x="383" y="318" on="0"/>
        <pt x="383" y="240" on="1"/>
        <pt x="383" y="187" on="0"/>
        <pt x="350" y="95" on="0"/>
        <pt x="290" y="28" on="0"/>
        <pt x="207" y="-10" on="0"/>
        <pt x="157" y="-10" on="1"/>
        <pt x="77" y="-10" on="0"/>
        <pt x="9" y="24" on="1"/>
        <pt x="43" y="115" on="1"/>
        <pt x="70" y="101" on="0"/>
        <pt x="125" y="86" on="0"/>
        <pt x="152" y="86" on="1"/>
        <pt x="181" y="86" on="0"/>
        <pt x="226" y="109" on="0"/>
        <pt x="256" y="148" on="0"/>
        <pt x="272" y="199" on="0"/>
        <pt x="272" y="226" on="1"/>
        <pt x="272" y="324" on="0"/>
        <pt x="157" y="324" on="1"/>
        <pt x="138" y="324" on="0"/>
        <pt x="106" y="320" on="0"/>
        <pt x="89" y="316" on="1"/>
        <pt x="81" y="325" on="1"/>
        <pt x="145" y="662" on="1"/>
        <pt x="434" y="662" on="1"/>
      </contour>
    </TTGlyph>
    <TTGlyph name="five.lin" xMin="11" yMin="-11" xMax="484" yMax="726">
      <contour>
        <pt x="465" y="625" on="1"/>
        <pt x="247" y="625" on="1"/>
        <pt x="210" y="447" on="1"/>
        <pt x="216" y="448" on="0"/>
        <pt x="228" y="449" on="0"/>
        <pt x="234" y="449" on="1"/>
        <pt x="279" y="449" on="0"/>
        <pt x="350" y="421" on="0"/>
        <pt x="398" y="371" on="0"/>
        <pt x="424" y="301" on="0"/>
        <pt x="424" y="260" on="1"/>
        <pt x="424" y="203" on="0"/>
        <pt x="387" y="104" on="0"/>
        <pt x="320" y="31" on="0"/>
        <pt x="227" y="-11" on="0"/>
        <pt x="171" y="-11" on="1"/>
        <pt x="86" y="-11" on="0"/>
        <pt x="11" y="27" on="1"/>
        <pt x="46" y="124" on="1"/>
        <pt x="76" y="109" on="0"/>
        <pt x="138" y="89" on="0"/>
        <pt x="169" y="89" on="1"/>
        <pt x="202" y="89" on="0"/>
        <pt x="254" y="114" on="0"/>
        <pt x="289" y="157" on="0"/>
        <pt x="308" y="214" on="0"/>
        <pt x="308" y="245" on="1"/>
        <pt x="308" y="302" on="0"/>
        <pt x="237" y="359" on="0"/>
        <pt x="171" y="359" on="1"/>
        <pt x="150" y="359" on="0"/>
        <pt x="114" y="355" on="0"/>
        <pt x="97" y="351" on="1"/>
        <pt x="89" y="360" on="1"/>
        <pt x="161" y="726" on="1"/>
        <pt x="484" y="726" on="1"/>
      </contour>
    </TTGlyph>
    <TTGlyph name="fl" xMin="-2" yMin="-195" xMax="511" yMax="739">
      <contour>
        <pt x="376" y="0" on="1"/>
        <pt x="272" y="0" on="1"/>
        <pt x="407" y="733" on="1"/>
        <pt x="511" y="733" on="1"/>
      </contour>
      <contour>
        <pt x="341" y="638" on="1"/>
        <pt x="333" y="641" on="0"/>
        <pt x="315" y="645" on="0"/>
        <pt x="305" y="645" on="1"/>
        <pt x="277" y="645" on="0"/>
        <pt x="247" y="612" on="0"/>
        <pt x="239" y="565" on="1"/>
        <pt x="217" y="446" on="1"/>
        <pt x="301" y="446" on="1"/>
        <pt x="285" y="358" on="1"/>
        <pt x="201" y="358" on="1"/>
        <pt x="99" y="-195" on="1"/>
        <pt x="-2" y="-195" on="1"/>
        <pt x="100" y="358" on="1"/>
        <pt x="33" y="358" on="1"/>
        <pt x="39" y="392" on="1"/>
        <pt x="116" y="450" on="1"/>
        <pt x="139" y="573" on="1"/>
        <pt x="156" y="663" on="0"/>
        <pt x="233" y="739" on="0"/>
        <pt x="299" y="739" on="1"/>
        <pt x="318" y="739" on="0"/>
        <pt x="354" y="731" on="0"/>
        <pt x="369" y="726" on="1"/>
      </contour>
    </TTGlyph>
    <TTGlyph name="florin" xMin="26" yMin="0" xMax="409" yMax="670">
      <contour>
        <pt x="379" y="563" on="1"/>
        <pt x="361" y="571" on="0"/>
        <pt x="338" y="571" on="1"/>
        <pt x="311" y="571" on="0"/>
        <pt x="276" y="536" on="0"/>
        <pt x="264" y="493" on="1"/>
        <pt x="242" y="410" on="1"/>
        <pt x="323" y="410" on="1"/>
        <pt x="306" y="321" on="1"/>
        <pt x="218" y="321" on="1"/>
        <pt x="131" y="0" on="1"/>
        <pt x="26" y="0" on="1"/>
        <pt x="113" y="321" on="1"/>
        <pt x="48" y="321" on="1"/>
        <pt x="55" y="354" on="1"/>
        <pt x="138" y="413" on="1"/>
        <pt x="162" y="504" on="1"/>
        <pt x="187" y="593" on="0"/>
        <pt x="271" y="670" on="0"/>
        <pt x="337" y="670" on="1"/>
        <pt x="360" y="670" on="0"/>
        <pt x="398" y="660" on="0"/>
        <pt x="409" y="655" on="1"/>
      </contour>
    </TTGlyph>
    <TTGlyph name="florin.lin" xMin="19" yMin="0" xMax="460" yMax="737">
      <contour>
        <pt x="427" y="624" on="1"/>
        <pt x="415" y="629" on="0"/>
        <pt x="389" y="637" on="0"/>
        <pt x="375" y="637" on="1"/>
        <pt x="340" y="637" on="0"/>
        <pt x="293" y="592" on="0"/>
        <pt x="279" y="541" on="1"/>
        <pt x="253" y="447" on="1"/>
        <pt x="355" y="447" on="1"/>
        <pt x="336" y="354" on="1"/>
        <pt x="227" y="354" on="1"/>
        <pt x="129" y="0" on="1"/>
        <pt x="19" y="0" on="1"/>
        <pt x="118" y="354" on="1"/>
        <pt x="48" y="354" on="1"/>
        <pt x="55" y="388" on="1"/>
        <pt x="144" y="448" on="1"/>
        <pt x="174" y="558" on="1"/>
        <pt x="201" y="652" on="0"/>
        <pt x="299" y="737" on="0"/>
        <pt x="371" y="737" on="1"/>
        <pt x="400" y="737" on="0"/>
        <pt x="449" y="724" on="0"/>
        <pt x="460" y="718" on="1"/>
      </contour>
    </TTGlyph>
    <TTGlyph name="four" xMin="6" yMin="-1" xMax="432" yMax="668">
      <contour>
        <pt x="408" y="159" on="1"/>
        <pt x="338" y="159" on="1"/>
        <pt x="309" y="-1" on="1"/>
        <pt x="210" y="-1" on="1"/>
        <pt x="240" y="159" on="1"/>
        <pt x="6" y="159" on="1"/>
        <pt x="19" y="227" on="1"/>
        <pt x="357" y="668" on="1"/>
        <pt x="432" y="668" on="1"/>
        <pt x="355" y="253" on="1"/>
        <pt x="425" y="253" on="1"/>
      </contour>
      <contour>
        <pt x="297" y="468" on="1"/>
        <pt x="138" y="251" on="1"/>
        <pt x="257" y="251" on="1"/>
      </contour>
    </TTGlyph>
    <TTGlyph name="four.lin" xMin="8" yMin="0" xMax="484" yMax="732">
      <contour>
        <pt x="464" y="178" on="1"/>
        <pt x="382" y="178" on="1"/>
        <pt x="349" y="0" on="1"/>
        <pt x="245" y="0" on="1"/>
        <pt x="277" y="178" on="1"/>
        <pt x="8" y="178" on="1"/>
        <pt x="21" y="248" on="1"/>
        <pt x="402" y="732" on="1"/>
        <pt x="484" y="732" on="1"/>
        <pt x="399" y="275" on="1"/>
        <pt x="482" y="275" on="1"/>
      </contour>
      <contour>
        <pt x="344" y="526" on="1"/>
        <pt x="151" y="274" on="1"/>
        <pt x="296" y="274" on="1"/>
      </contour>
    </TTGlyph>
    <TTGlyph name="fraction" xMin="-8" yMin="-15" xMax="564" yMax="689">
      <contour>
        <pt x="36" y="-15" on="1"/>
        <pt x="-8" y="21" on="1"/>
        <pt x="521" y="689" on="1"/>
        <pt x="564" y="653" on="1"/>
      </contour>
    </TTGlyph>
    <TTGlyph name="fraction.lin" xMin="5" yMin="-15" xMax="638" yMax="753">
      <contour>
        <pt x="51" y="-15" on="1"/>
        <pt x="5" y="21" on="1"/>
        <pt x="593" y="753" on="1"/>
        <pt x="638" y="717" on="1"/>
      </contour>
    </TTGlyph>
    <TTGlyph name="g" xMin="21" yMin="-207" xMax="420" yMax="454">
      <contour>
        <pt x="331" y="-41" on="1"/>
        <pt x="322" y="-88" on="0"/>
        <pt x="290" y="-152" on="0"/>
        <pt x="243" y="-191" on="0"/>
        <pt x="184" y="-207" on="0"/>
        <pt x="148" y="-207" on="1"/>
        <pt x="116" y="-207" on="0"/>
        <pt x="48" y="-192" on="0"/>
        <pt x="21" y="-182" on="1"/>
        <pt x="45" y="-97" on="1"/>
        <pt x="69" y="-105" on="0"/>
        <pt x="119" y="-117" on="0"/>
        <pt x="142" y="-117" on="1"/>
        <pt x="179" y="-117" on="0"/>
        <pt x="220" y="-79" on="0"/>
        <pt x="228" y="-36" on="1"/>
        <pt x="241" y="31" on="1"/>
        <pt x="197" y="-8" on="0"/>
        <pt x="151" y="-8" on="1"/>
        <pt x="95" y="-8" on="0"/>
        <pt x="22" y="79" on="0"/>
        <pt x="22" y="156" on="1"/>
        <pt x="22" y="214" on="0"/>
        <pt x="51" y="321" on="0"/>
        <pt x="104" y="404" on="0"/>
        <pt x="177" y="454" on="0"/>
        <pt x="221" y="454" on="1"/>
        <pt x="248" y="454" on="0"/>
        <pt x="297" y="432" on="0"/>
        <pt x="314" y="413" on="1"/>
        <pt x="320" y="446" on="1"/>
        <pt x="420" y="446" on="1"/>
      </contour>
      <contour>
        <pt x="297" y="344" on="1"/>
        <pt x="271" y="370" on="0"/>
        <pt x="236" y="370" on="1"/>
        <pt x="211" y="370" on="0"/>
        <pt x="170" y="331" on="0"/>
        <pt x="141" y="270" on="0"/>
        <pt x="125" y="196" on="0"/>
        <pt x="125" y="161" on="1"/>
        <pt x="125" y="116" on="0"/>
        <pt x="162" y="77" on="0"/>
        <pt x="189" y="77" on="1"/>
        <pt x="206" y="77" on="0"/>
        <pt x="239" y="93" on="0"/>
        <pt x="254" y="107" on="1"/>
      </contour>
    </TTGlyph>
    <TTGlyph name="gbreve" xMin="21" yMin="-207" xMax="431" yMax="635">
      <component glyphName="g" x="0" y="0" flags="0x204"/>
      <component glyphName="breve" x="11" y="1" flags="0x4"/>
    </TTGlyph>
    <TTGlyph name="gcommaaccent" xMin="21" yMin="-207" xMax="420" yMax="725">
      <contour>
        <pt x="228" y="564" on="1"/>
        <pt x="228" y="588" on="0"/>
        <pt x="252" y="636" on="0"/>
        <pt x="291" y="679" on="0"/>
        <pt x="340" y="714" on="0"/>
        <pt x="365" y="725" on="1"/>
        <pt x="376" y="708" on="1"/>
        <pt x="338" y="681" on="0"/>
        <pt x="304" y="637" on="0"/>
        <pt x="296" y="616" on="1"/>
        <pt x="319" y="612" on="0"/>
        <pt x="345" y="582" on="0"/>
        <pt x="345" y="562" on="1"/>
        <pt x="345" y="536" on="0"/>
        <pt x="309" y="500" on="0"/>
        <pt x="285" y="500" on="1"/>
        <pt x="259" y="500" on="0"/>
        <pt x="228" y="535" on="0"/>
      </contour>
      <contour>
        <pt x="331" y="-41" on="1"/>
        <pt x="322" y="-88" on="0"/>
        <pt x="290" y="-152" on="0"/>
        <pt x="243" y="-191" on="0"/>
        <pt x="184" y="-207" on="0"/>
        <pt x="148" y="-207" on="1"/>
        <pt x="116" y="-207" on="0"/>
        <pt x="48" y="-192" on="0"/>
        <pt x="21" y="-182" on="1"/>
        <pt x="45" y="-97" on="1"/>
        <pt x="69" y="-105" on="0"/>
        <pt x="119" y="-117" on="0"/>
        <pt x="142" y="-117" on="1"/>
        <pt x="179" y="-117" on="0"/>
        <pt x="220" y="-79" on="0"/>
        <pt x="228" y="-36" on="1"/>
        <pt x="241" y="31" on="1"/>
        <pt x="197" y="-8" on="0"/>
        <pt x="151" y="-8" on="1"/>
        <pt x="95" y="-8" on="0"/>
        <pt x="22" y="79" on="0"/>
        <pt x="22" y="156" on="1"/>
        <pt x="22" y="214" on="0"/>
        <pt x="51" y="321" on="0"/>
        <pt x="104" y="404" on="0"/>
        <pt x="177" y="454" on="0"/>
        <pt x="221" y="454" on="1"/>
        <pt x="248" y="454" on="0"/>
        <pt x="297" y="432" on="0"/>
        <pt x="314" y="413" on="1"/>
        <pt x="320" y="446" on="1"/>
        <pt x="420" y="446" on="1"/>
      </contour>
      <contour>
        <pt x="297" y="344" on="1"/>
        <pt x="271" y="370" on="0"/>
        <pt x="236" y="370" on="1"/>
        <pt x="211" y="370" on="0"/>
        <pt x="170" y="331" on="0"/>
        <pt x="141" y="270" on="0"/>
        <pt x="125" y="196" on="0"/>
        <pt x="125" y="161" on="1"/>
        <pt x="125" y="116" on="0"/>
        <pt x="162" y="77" on="0"/>
        <pt x="189" y="77" on="1"/>
        <pt x="206" y="77" on="0"/>
        <pt x="239" y="93" on="0"/>
        <pt x="254" y="107" on="1"/>
      </contour>
    </TTGlyph>
    <TTGlyph name="gdotaccent" xMin="21" yMin="-207" xMax="420" yMax="612">
      <component glyphName="g" x="0" y="0" flags="0x204"/>
      <component glyphName="dotaccent" x="15" y="1" flags="0x4"/>
    </TTGlyph>
    <TTGlyph name="germandbls" xMin="2" yMin="-94" xMax="460" yMax="740">
      <contour>
        <pt x="307" y="211" on="1"/>
        <pt x="345" y="193" on="0"/>
        <pt x="382" y="131" on="0"/>
        <pt x="382" y="89" on="1"/>
        <pt x="382" y="49" on="0"/>
        <pt x="356" y="-18" on="0"/>
        <pt x="308" y="-67" on="0"/>
        <pt x="242" y="-94" on="0"/>
        <pt x="203" y="-94" on="1"/>
        <pt x="183" y="-94" on="0"/>
        <pt x="144" y="-88" on="0"/>
        <pt x="129" y="-83" on="1"/>
        <pt x="151" y="0" on="1"/>
        <pt x="162" y="-4" on="0"/>
        <pt x="186" y="-7" on="0"/>
        <pt x="198" y="-7" on="1"/>
        <pt x="238" y="-7" on="0"/>
        <pt x="282" y="46" on="0"/>
        <pt x="282" y="85" on="1"/>
        <pt x="282" y="120" on="0"/>
        <pt x="238" y="159" on="0"/>
        <pt x="198" y="161" on="1"/>
        <pt x="192" y="161" on="0"/>
        <pt x="190" y="160" on="1"/>
        <pt x="186" y="173" on="1"/>
        <pt x="309" y="358" on="1"/>
        <pt x="170" y="358" on="1"/>
        <pt x="104" y="0" on="1"/>
        <pt x="2" y="0" on="1"/>
        <pt x="109" y="577" on="1"/>
        <pt x="125" y="666" on="0"/>
        <pt x="206" y="740" on="0"/>
        <pt x="269" y="740" on="1"/>
        <pt x="292" y="740" on="0"/>
        <pt x="332" y="730" on="0"/>
        <pt x="348" y="724" on="1"/>
        <pt x="319" y="636" on="1"/>
        <pt x="299" y="646" on="0"/>
        <pt x="278" y="646" on="1"/>
        <pt x="251" y="646" on="0"/>
        <pt x="217" y="611" on="0"/>
        <pt x="208" y="564" on="1"/>
        <pt x="187" y="446" on="1"/>
        <pt x="457" y="446" on="1"/>
        <pt x="460" y="434" on="1"/>
      </contour>
    </TTGlyph>
    <TTGlyph name="grave" xMin="182" yMin="492" xMax="378" yMax="667">
      <contour>
        <pt x="343" y="492" on="1"/>
        <pt x="182" y="590" on="1"/>
        <pt x="240" y="667" on="1"/>
        <pt x="378" y="536" on="1"/>
      </contour>
    </TTGlyph>
    <TTGlyph name="greater" xMin="17" yMin="91" xMax="314" yMax="575">
      <contour>
        <pt x="68" y="91" on="1"/>
        <pt x="17" y="159" on="1"/>
        <pt x="202" y="330" on="1"/>
        <pt x="82" y="522" on="1"/>
        <pt x="155" y="575" on="1"/>
        <pt x="314" y="323" on="1"/>
      </contour>
    </TTGlyph>
    <TTGlyph name="greater.lin" xMin="23" yMin="126" xMax="320" yMax="610">
      <component glyphName="greater" x="6" y="35" flags="0x204"/>
    </TTGlyph>
    <TTGlyph name="guillemotleft" xMin="30" yMin="38" xMax="389" yMax="365">
      <contour>
        <pt x="275" y="199" on="1"/>
        <pt x="328" y="38" on="1"/>
        <pt x="233" y="38" on="1"/>
        <pt x="182" y="202" on="1"/>
        <pt x="293" y="365" on="1"/>
        <pt x="389" y="365" on="1"/>
      </contour>
      <contour>
        <pt x="123" y="199" on="1"/>
        <pt x="176" y="38" on="1"/>
        <pt x="81" y="38" on="1"/>
        <pt x="30" y="202" on="1"/>
        <pt x="141" y="365" on="1"/>
        <pt x="237" y="365" on="1"/>
      </contour>
    </TTGlyph>
    <TTGlyph name="guillemotleft.cap" xMin="61" yMin="206" xMax="420" yMax="533">
      <component glyphName="guillemotleft" x="31" y="168" flags="0x204"/>
    </TTGlyph>
    <TTGlyph name="guillemotright" xMin="-8" yMin="38" xMax="351" yMax="365">
      <contour>
        <pt x="240" y="38" on="1"/>
        <pt x="144" y="38" on="1"/>
        <pt x="258" y="204" on="1"/>
        <pt x="205" y="365" on="1"/>
        <pt x="300" y="365" on="1"/>
        <pt x="351" y="201" on="1"/>
      </contour>
      <contour>
        <pt x="87" y="38" on="1"/>
        <pt x="-8" y="38" on="1"/>
        <pt x="106" y="204" on="1"/>
        <pt x="53" y="365" on="1"/>
        <pt x="148" y="365" on="1"/>
        <pt x="199" y="201" on="1"/>
      </contour>
    </TTGlyph>
    <TTGlyph name="guillemotright.cap" xMin="23" yMin="206" xMax="382" yMax="533">
      <component glyphName="guillemotright" x="31" y="168" flags="0x204"/>
    </TTGlyph>
    <TTGlyph name="guilsinglleft" xMin="29" yMin="38" xMax="236" yMax="365">
      <contour>
        <pt x="122" y="199" on="1"/>
        <pt x="175" y="38" on="1"/>
        <pt x="80" y="38" on="1"/>
        <pt x="29" y="202" on="1"/>
        <pt x="141" y="365" on="1"/>
        <pt x="236" y="365" on="1"/>
      </contour>
    </TTGlyph>
    <TTGlyph name="guilsinglleft.cap" xMin="61" yMin="206" xMax="268" yMax="533">
      <component glyphName="guilsinglleft" x="32" y="168" flags="0x204"/>
    </TTGlyph>
    <TTGlyph name="guilsinglright" xMin="-5" yMin="38" xMax="202" yMax="365">
      <contour>
        <pt x="90" y="38" on="1"/>
        <pt x="-5" y="38" on="1"/>
        <pt x="109" y="204" on="1"/>
        <pt x="56" y="365" on="1"/>
        <pt x="151" y="365" on="1"/>
        <pt x="202" y="201" on="1"/>
      </contour>
    </TTGlyph>
    <TTGlyph name="guilsinglright.cap" xMin="27" yMin="206" xMax="234" yMax="533">
      <component glyphName="guilsinglright" x="32" y="168" flags="0x204"/>
    </TTGlyph>
    <TTGlyph name="h" xMin="5" yMin="0" xMax="403" yMax="733">
      <contour>
        <pt x="403" y="361" on="1"/>
        <pt x="403" y="351" on="0"/>
        <pt x="401" y="330" on="0"/>
        <pt x="399" y="319" on="1"/>
        <pt x="340" y="0" on="1"/>
        <pt x="236" y="0" on="1"/>
        <pt x="291" y="299" on="1"/>
        <pt x="294" y="318" on="0"/>
        <pt x="294" y="330" on="1"/>
        <pt x="294" y="365" on="0"/>
        <pt x="257" y="365" on="1"/>
        <pt x="235" y="365" on="0"/>
        <pt x="190" y="341" on="0"/>
        <pt x="167" y="319" on="1"/>
        <pt x="109" y="0" on="1"/>
        <pt x="5" y="0" on="1"/>
        <pt x="140" y="733" on="1"/>
        <pt x="243" y="733" on="1"/>
        <pt x="178" y="379" on="1"/>
        <pt x="209" y="412" on="0"/>
        <pt x="274" y="455" on="0"/>
        <pt x="313" y="455" on="1"/>
        <pt x="357" y="455" on="0"/>
        <pt x="403" y="403" on="0"/>
      </contour>
    </TTGlyph>
    <TTGlyph name="hbar" xMin="5" yMin="0" xMax="403" yMax="733">
      <contour>
        <pt x="403" y="361" on="1"/>
        <pt x="403" y="351" on="0"/>
        <pt x="401" y="330" on="0"/>
        <pt x="399" y="319" on="1"/>
        <pt x="340" y="0" on="1"/>
        <pt x="236" y="0" on="1"/>
        <pt x="291" y="299" on="1"/>
        <pt x="294" y="318" on="0"/>
        <pt x="294" y="330" on="1"/>
        <pt x="294" y="365" on="0"/>
        <pt x="257" y="365" on="1"/>
        <pt x="235" y="365" on="0"/>
        <pt x="190" y="341" on="0"/>
        <pt x="167" y="319" on="1"/>
        <pt x="109" y="0" on="1"/>
        <pt x="5" y="0" on="1"/>
        <pt x="106" y="551" on="1"/>
        <pt x="62" y="551" on="1"/>
        <pt x="77" y="635" on="1"/>
        <pt x="122" y="635" on="1"/>
        <pt x="140" y="733" on="1"/>
        <pt x="243" y="733" on="1"/>
        <pt x="225" y="635" on="1"/>
        <pt x="338" y="635" on="1"/>
        <pt x="322" y="551" on="1"/>
        <pt x="209" y="551" on="1"/>
        <pt x="178" y="379" on="1"/>
        <pt x="209" y="412" on="0"/>
        <pt x="274" y="455" on="0"/>
        <pt x="313" y="455" on="1"/>
        <pt x="357" y="455" on="0"/>
        <pt x="403" y="403" on="0"/>
      </contour>
    </TTGlyph>
    <TTGlyph name="hcoslug" xMin="50" yMin="-100" xMax="644" yMax="700">
      <contour>
        <pt x="273" y="18" on="1"/>
        <pt x="275" y="40" on="0"/>
        <pt x="254" y="40" on="1"/>
        <pt x="245" y="40" on="0"/>
        <pt x="234" y="29" on="0"/>
        <pt x="234" y="19" on="1"/>
        <pt x="235" y="-1" on="0"/>
        <pt x="255" y="-1" on="1"/>
        <pt x="270" y="-1" on="0"/>
        <pt x="273" y="13" on="1"/>
        <pt x="266" y="13" on="1"/>
        <pt x="264" y="6" on="0"/>
        <pt x="257" y="6" on="1"/>
        <pt x="247" y="6" on="0"/>
        <pt x="247" y="18" on="1"/>
      </contour>
      <contour>
        <pt x="254" y="35" on="1"/>
        <pt x="261" y="35" on="0"/>
        <pt x="261" y="23" on="1"/>
        <pt x="247" y="23" on="1"/>
        <pt x="247" y="35" on="0"/>
      </contour>
      <contour>
        <pt x="195" y="78" on="1"/>
        <pt x="187" y="78" on="0"/>
        <pt x="187" y="94" on="1"/>
        <pt x="187" y="109" on="0"/>
        <pt x="195" y="109" on="1"/>
        <pt x="203" y="109" on="0"/>
        <pt x="203" y="94" on="1"/>
        <pt x="203" y="78" on="0"/>
      </contour>
      <contour>
        <pt x="210" y="4" on="1"/>
        <pt x="202" y="4" on="0"/>
        <pt x="202" y="20" on="1"/>
        <pt x="202" y="35" on="0"/>
        <pt x="210" y="35" on="1"/>
        <pt x="218" y="35" on="0"/>
        <pt x="218" y="20" on="1"/>
        <pt x="218" y="4" on="0"/>
      </contour>
      <contour>
        <pt x="210" y="-1" on="1"/>
        <pt x="219" y="-1" on="0"/>
        <pt x="231" y="11" on="0"/>
        <pt x="231" y="20" on="1"/>
        <pt x="231" y="29" on="0"/>
        <pt x="219" y="40" on="0"/>
        <pt x="210" y="40" on="1"/>
        <pt x="201" y="40" on="0"/>
        <pt x="189" y="29" on="0"/>
        <pt x="189" y="20" on="1"/>
        <pt x="189" y="10" on="0"/>
        <pt x="201" y="-1" on="0"/>
      </contour>
      <contour>
        <pt x="546" y="4" on="1"/>
        <pt x="538" y="4" on="0"/>
        <pt x="538" y="20" on="1"/>
        <pt x="538" y="35" on="0"/>
        <pt x="546" y="35" on="1"/>
        <pt x="554" y="35" on="0"/>
        <pt x="554" y="20" on="1"/>
        <pt x="554" y="4" on="0"/>
      </contour>
      <contour>
        <pt x="546" y="-1" on="1"/>
        <pt x="555" y="-1" on="0"/>
        <pt x="567" y="11" on="0"/>
        <pt x="567" y="20" on="1"/>
        <pt x="567" y="29" on="0"/>
        <pt x="555" y="40" on="0"/>
        <pt x="546" y="40" on="1"/>
        <pt x="537" y="40" on="0"/>
        <pt x="525" y="29" on="0"/>
        <pt x="525" y="20" on="1"/>
        <pt x="525" y="10" on="0"/>
        <pt x="537" y="-1" on="0"/>
      </contour>
      <contour>
        <pt x="125" y="74" on="1"/>
        <pt x="155" y="74" on="1"/>
        <pt x="155" y="81" on="1"/>
        <pt x="145" y="81" on="1"/>
        <pt x="145" y="97" on="1"/>
        <pt x="149" y="97" on="1"/>
        <pt x="154" y="97" on="0"/>
        <pt x="155" y="89" on="1"/>
        <pt x="162" y="89" on="1"/>
        <pt x="162" y="112" on="1"/>
        <pt x="155" y="112" on="1"/>
        <pt x="154" y="104" on="0"/>
        <pt x="149" y="104" on="1"/>
        <pt x="145" y="104" on="1"/>
        <pt x="145" y="122" on="1"/>
        <pt x="157" y="122" on="1"/>
        <pt x="162" y="122" on="0"/>
        <pt x="166" y="117" on="0"/>
        <pt x="168" y="109" on="1"/>
        <pt x="176" y="109" on="1"/>
        <pt x="176" y="129" on="1"/>
        <pt x="125" y="129" on="1"/>
        <pt x="125" y="122" on="1"/>
        <pt x="132" y="122" on="1"/>
        <pt x="132" y="81" on="1"/>
        <pt x="125" y="81" on="1"/>
      </contour>
      <contour>
        <pt x="195" y="73" on="1"/>
        <pt x="204" y="73" on="0"/>
        <pt x="216" y="85" on="0"/>
        <pt x="216" y="94" on="1"/>
        <pt x="216" y="103" on="0"/>
        <pt x="204" y="114" on="0"/>
        <pt x="195" y="114" on="1"/>
        <pt x="186" y="114" on="0"/>
        <pt x="174" y="103" on="0"/>
        <pt x="174" y="94" on="1"/>
        <pt x="174" y="84" on="0"/>
        <pt x="186" y="73" on="0"/>
      </contour>
      <contour>
        <pt x="644" y="-100" on="1"/>
        <pt x="50" y="-100" on="1"/>
        <pt x="50" y="700" on="1"/>
        <pt x="644" y="700" on="1"/>
      </contour>
      <contour>
        <pt x="498" y="-1" on="1"/>
        <pt x="520" y="-1" on="0"/>
        <pt x="522" y="22" on="1"/>
        <pt x="514" y="22" on="1"/>
        <pt x="512" y="6" on="0"/>
        <pt x="500" y="6" on="1"/>
        <pt x="484" y="6" on="0"/>
        <pt x="484" y="28" on="1"/>
        <pt x="484" y="50" on="0"/>
        <pt x="498" y="50" on="1"/>
        <pt x="508" y="50" on="0"/>
        <pt x="513" y="34" on="1"/>
        <pt x="521" y="34" on="1"/>
        <pt x="521" y="56" on="1"/>
        <pt x="513" y="56" on="1"/>
        <pt x="512" y="50" on="1"/>
        <pt x="505" y="57" on="0"/>
        <pt x="496" y="57" on="1"/>
        <pt x="485" y="57" on="0"/>
        <pt x="469" y="41" on="0"/>
        <pt x="469" y="27" on="1"/>
        <pt x="469" y="-1" on="0"/>
      </contour>
      <contour>
        <pt x="372" y="80" on="1"/>
        <pt x="364" y="80" on="0"/>
        <pt x="364" y="93" on="1"/>
        <pt x="364" y="106" on="0"/>
        <pt x="372" y="106" on="1"/>
        <pt x="379" y="106" on="0"/>
        <pt x="379" y="93" on="1"/>
        <pt x="379" y="80" on="0"/>
      </contour>
      <contour>
        <pt x="276" y="0" on="1"/>
        <pt x="299" y="0" on="1"/>
        <pt x="299" y="7" on="1"/>
        <pt x="294" y="7" on="1"/>
        <pt x="294" y="32" on="1"/>
        <pt x="308" y="32" on="1"/>
        <pt x="308" y="7" on="1"/>
        <pt x="303" y="7" on="1"/>
        <pt x="303" y="0" on="1"/>
        <pt x="326" y="0" on="1"/>
        <pt x="326" y="7" on="1"/>
        <pt x="320" y="7" on="1"/>
        <pt x="320" y="59" on="1"/>
        <pt x="310" y="57" on="1"/>
        <pt x="306" y="59" on="0"/>
        <pt x="301" y="59" on="1"/>
        <pt x="293" y="59" on="0"/>
        <pt x="282" y="50" on="0"/>
        <pt x="282" y="40" on="1"/>
        <pt x="282" y="39" on="1"/>
        <pt x="275" y="39" on="1"/>
        <pt x="275" y="32" on="1"/>
        <pt x="282" y="32" on="1"/>
        <pt x="282" y="7" on="1"/>
        <pt x="276" y="7" on="1"/>
      </contour>
      <contour>
        <pt x="368" y="0" on="1"/>
        <pt x="394" y="0" on="1"/>
        <pt x="394" y="7" on="1"/>
        <pt x="386" y="7" on="1"/>
        <pt x="386" y="23" on="1"/>
        <pt x="390" y="32" on="0"/>
        <pt x="393" y="32" on="1"/>
        <pt x="393" y="31" on="1"/>
        <pt x="393" y="25" on="0"/>
        <pt x="399" y="25" on="1"/>
        <pt x="406" y="25" on="0"/>
        <pt x="406" y="32" on="1"/>
        <pt x="406" y="40" on="0"/>
        <pt x="398" y="40" on="1"/>
        <pt x="390" y="40" on="0"/>
        <pt x="386" y="29" on="1"/>
        <pt x="386" y="39" on="1"/>
        <pt x="368" y="39" on="1"/>
        <pt x="368" y="32" on="1"/>
        <pt x="374" y="32" on="1"/>
        <pt x="374" y="7" on="1"/>
        <pt x="368" y="7" on="1"/>
      </contour>
      <contour>
        <pt x="352" y="73" on="1"/>
        <pt x="358" y="73" on="1"/>
        <pt x="362" y="81" on="1"/>
        <pt x="367" y="73" on="0"/>
        <pt x="376" y="73" on="1"/>
        <pt x="385" y="73" on="0"/>
        <pt x="392" y="87" on="0"/>
        <pt x="392" y="94" on="1"/>
        <pt x="392" y="114" on="0"/>
        <pt x="377" y="114" on="1"/>
        <pt x="367" y="114" on="0"/>
        <pt x="364" y="105" on="1"/>
        <pt x="364" y="132" on="1"/>
        <pt x="346" y="132" on="1"/>
        <pt x="346" y="125" on="1"/>
        <pt x="352" y="125" on="1"/>
      </contour>
      <contour>
        <pt x="400" y="75" on="1"/>
        <pt x="393" y="75" on="0"/>
        <pt x="393" y="68" on="1"/>
        <pt x="393" y="59" on="0"/>
        <pt x="404" y="59" on="1"/>
        <pt x="416" y="59" on="0"/>
        <pt x="422" y="75" on="1"/>
        <pt x="435" y="106" on="1"/>
        <pt x="440" y="106" on="1"/>
        <pt x="440" y="113" on="1"/>
        <pt x="423" y="113" on="1"/>
        <pt x="423" y="106" on="1"/>
        <pt x="428" y="106" on="1"/>
        <pt x="420" y="86" on="1"/>
        <pt x="411" y="106" on="1"/>
        <pt x="417" y="106" on="1"/>
        <pt x="417" y="113" on="1"/>
        <pt x="392" y="113" on="1"/>
        <pt x="392" y="106" on="1"/>
        <pt x="397" y="106" on="1"/>
        <pt x="399" y="101" on="0"/>
        <pt x="403" y="93" on="1"/>
        <pt x="406" y="87" on="0"/>
        <pt x="411" y="77" on="0"/>
        <pt x="413" y="73" on="1"/>
        <pt x="411" y="65" on="0"/>
        <pt x="405" y="65" on="1"/>
        <pt x="407" y="67" on="0"/>
        <pt x="405" y="75" on="0"/>
      </contour>
      <contour>
        <pt x="247" y="428" on="1"/>
        <pt x="247" y="441" on="0"/>
        <pt x="262" y="457" on="0"/>
        <pt x="274" y="457" on="1"/>
        <pt x="287" y="457" on="0"/>
        <pt x="303" y="436" on="0"/>
        <pt x="303" y="419" on="1"/>
        <pt x="303" y="406" on="0"/>
        <pt x="293" y="382" on="0"/>
        <pt x="285" y="369" on="1"/>
        <pt x="268" y="386" on="0"/>
        <pt x="247" y="411" on="0"/>
      </contour>
      <contour>
        <pt x="302" y="74" on="1"/>
        <pt x="309" y="74" on="1"/>
        <pt x="310" y="78" on="1"/>
        <pt x="312" y="76" on="0"/>
        <pt x="318" y="73" on="0"/>
        <pt x="323" y="73" on="1"/>
        <pt x="337" y="73" on="0"/>
        <pt x="337" y="86" on="1"/>
        <pt x="337" y="92" on="0"/>
        <pt x="329" y="97" on="0"/>
        <pt x="320" y="99" on="0"/>
        <pt x="313" y="101" on="0"/>
        <pt x="313" y="104" on="1"/>
        <pt x="313" y="108" on="0"/>
        <pt x="318" y="108" on="1"/>
        <pt x="323" y="108" on="0"/>
        <pt x="328" y="101" on="1"/>
        <pt x="335" y="101" on="1"/>
        <pt x="335" y="114" on="1"/>
        <pt x="329" y="114" on="1"/>
        <pt x="327" y="109" on="1"/>
        <pt x="324" y="114" on="0"/>
        <pt x="316" y="114" on="1"/>
        <pt x="309" y="114" on="0"/>
        <pt x="302" y="107" on="0"/>
        <pt x="302" y="102" on="1"/>
        <pt x="302" y="96" on="0"/>
        <pt x="309" y="91" on="0"/>
        <pt x="318" y="88" on="0"/>
        <pt x="326" y="86" on="0"/>
        <pt x="326" y="83" on="1"/>
        <pt x="326" y="79" on="0"/>
        <pt x="321" y="79" on="1"/>
        <pt x="315" y="79" on="0"/>
        <pt x="309" y="88" on="1"/>
        <pt x="302" y="88" on="1"/>
      </contour>
      <contour>
        <pt x="261" y="219" on="1"/>
        <pt x="238" y="219" on="0"/>
        <pt x="209" y="250" on="0"/>
        <pt x="209" y="273" on="1"/>
        <pt x="209" y="297" on="0"/>
        <pt x="225" y="313" on="1"/>
        <pt x="239" y="300" on="0"/>
        <pt x="278" y="257" on="0"/>
        <pt x="299" y="231" on="1"/>
        <pt x="284" y="219" on="0"/>
      </contour>
      <contour>
        <pt x="274" y="122" on="1"/>
        <pt x="274" y="113" on="1"/>
        <pt x="267" y="113" on="1"/>
        <pt x="267" y="106" on="1"/>
        <pt x="274" y="106" on="1"/>
        <pt x="274" y="86" on="1"/>
        <pt x="274" y="73" on="0"/>
        <pt x="286" y="73" on="1"/>
        <pt x="297" y="73" on="0"/>
        <pt x="300" y="86" on="1"/>
        <pt x="295" y="88" on="1"/>
        <pt x="294" y="81" on="0"/>
        <pt x="290" y="81" on="1"/>
        <pt x="286" y="81" on="0"/>
        <pt x="286" y="86" on="1"/>
        <pt x="286" y="106" on="1"/>
        <pt x="299" y="106" on="1"/>
        <pt x="299" y="113" on="1"/>
        <pt x="286" y="113" on="1"/>
        <pt x="286" y="124" on="1"/>
      </contour>
      <contour>
        <pt x="428" y="306" on="1"/>
        <pt x="435" y="295" on="0"/>
        <pt x="457" y="281" on="0"/>
        <pt x="471" y="281" on="1"/>
        <pt x="492" y="281" on="0"/>
        <pt x="521" y="312" on="0"/>
        <pt x="521" y="335" on="1"/>
        <pt x="521" y="358" on="0"/>
        <pt x="492" y="387" on="0"/>
        <pt x="471" y="387" on="1"/>
        <pt x="436" y="387" on="0"/>
        <pt x="411" y="349" on="1"/>
        <pt x="409" y="369" on="0"/>
        <pt x="382" y="387" on="0"/>
        <pt x="362" y="386" on="1"/>
        <pt x="371" y="401" on="0"/>
        <pt x="371" y="420" on="1"/>
        <pt x="371" y="433" on="0"/>
        <pt x="359" y="460" on="0"/>
        <pt x="335" y="481" on="0"/>
        <pt x="299" y="494" on="0"/>
        <pt x="276" y="494" on="1"/>
        <pt x="251" y="494" on="0"/>
        <pt x="211" y="480" on="0"/>
        <pt x="182" y="456" on="0"/>
        <pt x="167" y="425" on="0"/>
        <pt x="167" y="409" on="1"/>
        <pt x="167" y="387" on="0"/>
        <pt x="182" y="357" on="0"/>
        <pt x="198" y="340" on="1"/>
        <pt x="116" y="312" on="0"/>
        <pt x="116" y="249" on="1"/>
        <pt x="116" y="229" on="0"/>
        <pt x="133" y="195" on="0"/>
        <pt x="163" y="170" on="0"/>
        <pt x="202" y="156" on="0"/>
        <pt x="225" y="156" on="1"/>
        <pt x="288" y="156" on="0"/>
        <pt x="329" y="201" on="1"/>
        <pt x="354" y="175" on="0"/>
        <pt x="391" y="156" on="0"/>
        <pt x="414" y="156" on="1"/>
        <pt x="446" y="156" on="0"/>
        <pt x="492" y="206" on="0"/>
        <pt x="494" y="250" on="1"/>
        <pt x="487" y="252" on="1"/>
        <pt x="479" y="239" on="0"/>
        <pt x="460" y="223" on="0"/>
        <pt x="444" y="223" on="1"/>
        <pt x="429" y="223" on="0"/>
        <pt x="401" y="242" on="0"/>
        <pt x="382" y="264" on="1"/>
        <pt x="393" y="279" on="0"/>
        <pt x="417" y="299" on="0"/>
      </contour>
      <contour>
        <pt x="219" y="74" on="1"/>
        <pt x="241" y="74" on="1"/>
        <pt x="241" y="81" on="1"/>
        <pt x="237" y="81" on="1"/>
        <pt x="237" y="96" on="1"/>
        <pt x="237" y="106" on="0"/>
        <pt x="244" y="106" on="1"/>
        <pt x="250" y="106" on="0"/>
        <pt x="250" y="99" on="1"/>
        <pt x="250" y="81" on="1"/>
        <pt x="246" y="81" on="1"/>
        <pt x="246" y="74" on="1"/>
        <pt x="268" y="74" on="1"/>
        <pt x="268" y="81" on="1"/>
        <pt x="262" y="81" on="1"/>
        <pt x="262" y="100" on="1"/>
        <pt x="262" y="114" on="0"/>
        <pt x="250" y="114" on="1"/>
        <pt x="241" y="114" on="0"/>
        <pt x="236" y="103" on="1"/>
        <pt x="236" y="113" on="1"/>
        <pt x="219" y="113" on="1"/>
        <pt x="219" y="106" on="1"/>
        <pt x="225" y="106" on="1"/>
        <pt x="225" y="81" on="1"/>
        <pt x="219" y="81" on="1"/>
      </contour>
      <contour>
        <pt x="446" y="33" on="1"/>
        <pt x="446" y="26" on="1"/>
        <pt x="452" y="26" on="1"/>
        <pt x="450" y="21" on="0"/>
        <pt x="446" y="17" on="1"/>
        <pt x="443" y="20" on="0"/>
        <pt x="438" y="26" on="0"/>
        <pt x="434" y="30" on="1"/>
        <pt x="445" y="35" on="0"/>
        <pt x="445" y="42" on="1"/>
        <pt x="445" y="47" on="0"/>
        <pt x="438" y="54" on="0"/>
        <pt x="431" y="54" on="1"/>
        <pt x="423" y="54" on="0"/>
        <pt x="414" y="46" on="0"/>
        <pt x="414" y="40" on="1"/>
        <pt x="414" y="34" on="0"/>
        <pt x="420" y="28" on="1"/>
        <pt x="407" y="24" on="0"/>
        <pt x="407" y="13" on="1"/>
        <pt x="407" y="-1" on="0"/>
        <pt x="425" y="-1" on="1"/>
        <pt x="434" y="-1" on="0"/>
        <pt x="440" y="5" on="1"/>
        <pt x="445" y="-1" on="0"/>
        <pt x="452" y="-1" on="1"/>
        <pt x="462" y="-1" on="0"/>
        <pt x="465" y="11" on="1"/>
        <pt x="460" y="12" on="1"/>
        <pt x="459" y="7" on="0"/>
        <pt x="456" y="7" on="1"/>
        <pt x="453" y="7" on="0"/>
        <pt x="450" y="12" on="1"/>
        <pt x="453" y="15" on="0"/>
        <pt x="457" y="21" on="0"/>
        <pt x="459" y="26" on="1"/>
        <pt x="464" y="26" on="1"/>
        <pt x="464" y="33" on="1"/>
      </contour>
      <contour>
        <pt x="429" y="6" on="1"/>
        <pt x="419" y="6" on="0"/>
        <pt x="419" y="16" on="1"/>
        <pt x="419" y="21" on="0"/>
        <pt x="423" y="25" on="1"/>
        <pt x="427" y="21" on="0"/>
        <pt x="433" y="14" on="0"/>
        <pt x="437" y="9" on="1"/>
        <pt x="433" y="6" on="0"/>
      </contour>
      <contour>
        <pt x="294" y="42" on="1"/>
        <pt x="294" y="49" on="0"/>
        <pt x="297" y="54" on="0"/>
        <pt x="300" y="54" on="1"/>
        <pt x="302" y="54" on="0"/>
        <pt x="303" y="53" on="1"/>
        <pt x="302" y="51" on="0"/>
        <pt x="302" y="49" on="1"/>
        <pt x="302" y="44" on="0"/>
        <pt x="308" y="44" on="1"/>
        <pt x="308" y="39" on="1"/>
        <pt x="294" y="39" on="1"/>
      </contour>
      <contour>
        <pt x="425" y="43" on="1"/>
        <pt x="425" y="48" on="0"/>
        <pt x="430" y="48" on="1"/>
        <pt x="436" y="48" on="0"/>
        <pt x="436" y="42" on="1"/>
        <pt x="436" y="36" on="0"/>
        <pt x="431" y="33" on="1"/>
        <pt x="425" y="39" on="0"/>
      </contour>
      <contour>
        <pt x="312" y="342" on="1"/>
        <pt x="342" y="362" on="0"/>
        <pt x="354" y="376" on="1"/>
        <pt x="371" y="359" on="0"/>
        <pt x="367" y="321" on="0"/>
        <pt x="353" y="296" on="1"/>
        <pt x="343" y="307" on="0"/>
        <pt x="324" y="330" on="0"/>
      </contour>
      <contour>
        <pt x="366" y="18" on="1"/>
        <pt x="368" y="40" on="0"/>
        <pt x="347" y="40" on="1"/>
        <pt x="339" y="40" on="0"/>
        <pt x="327" y="28" on="0"/>
        <pt x="327" y="19" on="1"/>
        <pt x="327" y="-1" on="0"/>
        <pt x="348" y="-1" on="1"/>
        <pt x="362" y="-1" on="0"/>
        <pt x="366" y="13" on="1"/>
        <pt x="359" y="13" on="1"/>
        <pt x="358" y="6" on="0"/>
        <pt x="350" y="6" on="1"/>
        <pt x="340" y="6" on="0"/>
        <pt x="340" y="18" on="1"/>
      </contour>
      <contour>
        <pt x="347" y="35" on="1"/>
        <pt x="354" y="35" on="0"/>
        <pt x="354" y="23" on="1"/>
        <pt x="340" y="23" on="1"/>
        <pt x="340" y="35" on="0"/>
      </contour>
      <contour>
        <pt x="124" y="0" on="1"/>
        <pt x="153" y="0" on="1"/>
        <pt x="153" y="7" on="1"/>
        <pt x="145" y="7" on="1"/>
        <pt x="145" y="25" on="1"/>
        <pt x="167" y="25" on="1"/>
        <pt x="167" y="7" on="1"/>
        <pt x="159" y="7" on="1"/>
        <pt x="159" y="0" on="1"/>
        <pt x="188" y="0" on="1"/>
        <pt x="188" y="7" on="1"/>
        <pt x="180" y="7" on="1"/>
        <pt x="180" y="48" on="1"/>
        <pt x="188" y="48" on="1"/>
        <pt x="188" y="55" on="1"/>
        <pt x="159" y="55" on="1"/>
        <pt x="159" y="48" on="1"/>
        <pt x="167" y="48" on="1"/>
        <pt x="167" y="32" on="1"/>
        <pt x="145" y="32" on="1"/>
        <pt x="145" y="48" on="1"/>
        <pt x="153" y="48" on="1"/>
        <pt x="153" y="55" on="1"/>
        <pt x="124" y="55" on="1"/>
        <pt x="124" y="48" on="1"/>
        <pt x="132" y="48" on="1"/>
        <pt x="132" y="7" on="1"/>
        <pt x="124" y="7" on="1"/>
      </contour>
      <contour>
        <pt x="576" y="13" on="1"/>
        <pt x="569" y="13" on="0"/>
        <pt x="569" y="6" on="1"/>
        <pt x="569" y="-1" on="0"/>
        <pt x="576" y="-1" on="1"/>
        <pt x="583" y="-1" on="0"/>
        <pt x="583" y="6" on="1"/>
        <pt x="583" y="13" on="0"/>
      </contour>
    </TTGlyph>
    <TTGlyph name="hungarumlaut" xMin="128" yMin="493" xMax="449" yMax="697">
      <contour>
        <pt x="164" y="501" on="1"/>
        <pt x="128" y="532" on="1"/>
        <pt x="245" y="697" on="1"/>
        <pt x="309" y="643" on="1"/>
      </contour>
      <contour>
        <pt x="304" y="493" on="1"/>
        <pt x="268" y="523" on="1"/>
        <pt x="385" y="688" on="1"/>
        <pt x="449" y="634" on="1"/>
      </contour>
    </TTGlyph>
    <TTGlyph name="hyphen" xMin="36" yMin="215" xMax="240" yMax="300">
      <contour>
        <pt x="224" y="215" on="1"/>
        <pt x="36" y="215" on="1"/>
        <pt x="52" y="300" on="1"/>
        <pt x="240" y="300" on="1"/>
      </contour>
    </TTGlyph>
    <TTGlyph name="hyphen.cap" xMin="57" yMin="328" xMax="261" yMax="413">
      <component glyphName="hyphen" x="21" y="113" flags="0x204"/>
    </TTGlyph>
</ttFont>
